G04 #@! TF.GenerationSoftware,KiCad,Pcbnew,(5.0.1)-3*
G04 #@! TF.CreationDate,2019-04-14T21:22:41-05:00*
G04 #@! TF.ProjectId,transceiver,7472616E736365697665722E6B696361,rev?*
G04 #@! TF.SameCoordinates,Original*
G04 #@! TF.FileFunction,Copper,L1,Top,Signal*
G04 #@! TF.FilePolarity,Positive*
%FSLAX46Y46*%
G04 Gerber Fmt 4.6, Leading zero omitted, Abs format (unit mm)*
G04 Created by KiCad (PCBNEW (5.0.1)-3) date 4/14/2019 21:22:41*
%MOMM*%
%LPD*%
G01*
G04 APERTURE LIST*
G04 #@! TA.AperFunction,Conductor*
%ADD10C,0.100000*%
G04 #@! TD*
G04 #@! TA.AperFunction,ComponentPad*
%ADD11C,1.720000*%
G04 #@! TD*
G04 #@! TA.AperFunction,ComponentPad*
%ADD12O,1.720000X2.200000*%
G04 #@! TD*
G04 #@! TA.AperFunction,SMDPad,CuDef*
%ADD13R,0.600000X0.500000*%
G04 #@! TD*
G04 #@! TA.AperFunction,SMDPad,CuDef*
%ADD14R,1.300000X1.300000*%
G04 #@! TD*
G04 #@! TA.AperFunction,SMDPad,CuDef*
%ADD15R,0.300000X0.850000*%
G04 #@! TD*
G04 #@! TA.AperFunction,SMDPad,CuDef*
%ADD16R,0.850000X0.300000*%
G04 #@! TD*
G04 #@! TA.AperFunction,SMDPad,CuDef*
%ADD17R,0.500000X0.600000*%
G04 #@! TD*
G04 #@! TA.AperFunction,SMDPad,CuDef*
%ADD18R,0.800000X0.900000*%
G04 #@! TD*
G04 #@! TA.AperFunction,SMDPad,CuDef*
%ADD19R,1.500000X5.080000*%
G04 #@! TD*
G04 #@! TA.AperFunction,SMDPad,CuDef*
%ADD20R,0.400000X0.600000*%
G04 #@! TD*
G04 #@! TA.AperFunction,SMDPad,CuDef*
%ADD21R,0.600000X0.400000*%
G04 #@! TD*
G04 #@! TA.AperFunction,SMDPad,CuDef*
%ADD22R,0.700000X1.300000*%
G04 #@! TD*
G04 #@! TA.AperFunction,ViaPad*
%ADD23C,0.800000*%
G04 #@! TD*
G04 #@! TA.AperFunction,Conductor*
%ADD24C,0.250000*%
G04 #@! TD*
G04 #@! TA.AperFunction,Conductor*
%ADD25C,0.200000*%
G04 #@! TD*
G04 APERTURE END LIST*
D10*
G04 #@! TO.N,NRESET*
G04 #@! TO.C,J2*
G36*
X132972147Y-93362071D02*
X133013889Y-93368262D01*
X133054822Y-93378516D01*
X133094554Y-93392732D01*
X133132701Y-93410774D01*
X133168895Y-93432468D01*
X133202789Y-93457606D01*
X133234056Y-93485944D01*
X133262394Y-93517211D01*
X133287532Y-93551105D01*
X133309226Y-93587299D01*
X133327268Y-93625446D01*
X133341484Y-93665178D01*
X133351738Y-93706111D01*
X133357929Y-93747853D01*
X133360000Y-93790000D01*
X133360000Y-95130000D01*
X133357929Y-95172147D01*
X133351738Y-95213889D01*
X133341484Y-95254822D01*
X133327268Y-95294554D01*
X133309226Y-95332701D01*
X133287532Y-95368895D01*
X133262394Y-95402789D01*
X133234056Y-95434056D01*
X133202789Y-95462394D01*
X133168895Y-95487532D01*
X133132701Y-95509226D01*
X133094554Y-95527268D01*
X133054822Y-95541484D01*
X133013889Y-95551738D01*
X132972147Y-95557929D01*
X132930000Y-95560000D01*
X132070000Y-95560000D01*
X132027853Y-95557929D01*
X131986111Y-95551738D01*
X131945178Y-95541484D01*
X131905446Y-95527268D01*
X131867299Y-95509226D01*
X131831105Y-95487532D01*
X131797211Y-95462394D01*
X131765944Y-95434056D01*
X131737606Y-95402789D01*
X131712468Y-95368895D01*
X131690774Y-95332701D01*
X131672732Y-95294554D01*
X131658516Y-95254822D01*
X131648262Y-95213889D01*
X131642071Y-95172147D01*
X131640000Y-95130000D01*
X131640000Y-93790000D01*
X131642071Y-93747853D01*
X131648262Y-93706111D01*
X131658516Y-93665178D01*
X131672732Y-93625446D01*
X131690774Y-93587299D01*
X131712468Y-93551105D01*
X131737606Y-93517211D01*
X131765944Y-93485944D01*
X131797211Y-93457606D01*
X131831105Y-93432468D01*
X131867299Y-93410774D01*
X131905446Y-93392732D01*
X131945178Y-93378516D01*
X131986111Y-93368262D01*
X132027853Y-93362071D01*
X132070000Y-93360000D01*
X132930000Y-93360000D01*
X132972147Y-93362071D01*
X132972147Y-93362071D01*
G37*
D11*
G04 #@! TD*
G04 #@! TO.P,J2,1*
G04 #@! TO.N,NRESET*
X132500000Y-94460000D03*
D12*
G04 #@! TO.P,J2,2*
G04 #@! TO.N,GND*
X132500000Y-97000000D03*
G04 #@! TO.P,J2,3*
G04 #@! TO.N,BUSY*
X135040000Y-94460000D03*
G04 #@! TO.P,J2,4*
G04 #@! TO.N,Net-(J2-Pad4)*
X135040000Y-97000000D03*
G04 #@! TO.P,J2,5*
G04 #@! TO.N,DIO1*
X137580000Y-94460000D03*
G04 #@! TO.P,J2,6*
G04 #@! TO.N,NSS_CTS*
X137580000Y-97000000D03*
G04 #@! TO.P,J2,7*
G04 #@! TO.N,DIO2*
X140120000Y-94460000D03*
G04 #@! TO.P,J2,8*
G04 #@! TO.N,SCK_RTS*
X140120000Y-97000000D03*
G04 #@! TO.P,J2,9*
G04 #@! TO.N,DIO3*
X142660000Y-94460000D03*
G04 #@! TO.P,J2,10*
G04 #@! TO.N,MOSI_RX*
X142660000Y-97000000D03*
G04 #@! TO.P,J2,11*
G04 #@! TO.N,+3V3*
X145200000Y-94460000D03*
G04 #@! TO.P,J2,12*
G04 #@! TO.N,MISO_TX*
X145200000Y-97000000D03*
G04 #@! TD*
D13*
G04 #@! TO.P,C6,1*
G04 #@! TO.N,+3V3*
X143670000Y-83450000D03*
G04 #@! TO.P,C6,2*
G04 #@! TO.N,GND*
X144770000Y-83450000D03*
G04 #@! TD*
D14*
G04 #@! TO.P,U1,25*
G04 #@! TO.N,GND*
X138400000Y-82500000D03*
X138400000Y-83800000D03*
X139700000Y-82500000D03*
X139700000Y-83800000D03*
D15*
G04 #@! TO.P,U1,24*
X137800000Y-81200000D03*
G04 #@! TO.P,U1,23*
X138300000Y-81200000D03*
G04 #@! TO.P,U1,22*
G04 #@! TO.N,Net-(C5-Pad1)*
X138800000Y-81200000D03*
G04 #@! TO.P,U1,21*
G04 #@! TO.N,GND*
X139300000Y-81200000D03*
G04 #@! TO.P,U1,20*
X139800000Y-81200000D03*
G04 #@! TO.P,U1,19*
G04 #@! TO.N,NSS_CTS*
X140300000Y-81200000D03*
D16*
G04 #@! TO.P,U1,18*
G04 #@! TO.N,SCK_RTS*
X141000000Y-81900000D03*
G04 #@! TO.P,U1,17*
G04 #@! TO.N,MOSI_RX*
X141000000Y-82400000D03*
G04 #@! TO.P,U1,16*
G04 #@! TO.N,MISO_TX*
X141000000Y-82900000D03*
G04 #@! TO.P,U1,15*
G04 #@! TO.N,+3V3*
X141000000Y-83400000D03*
G04 #@! TO.P,U1,14*
G04 #@! TO.N,Net-(L1-Pad2)*
X141000000Y-83900000D03*
G04 #@! TO.P,U1,13*
G04 #@! TO.N,GND*
X141000000Y-84400000D03*
D15*
G04 #@! TO.P,U1,12*
G04 #@! TO.N,Net-(C1-Pad1)*
X140300000Y-85100000D03*
G04 #@! TO.P,U1,11*
G04 #@! TO.N,+3V3*
X139800000Y-85100000D03*
G04 #@! TO.P,U1,10*
G04 #@! TO.N,DIO3*
X139300000Y-85100000D03*
G04 #@! TO.P,U1,9*
G04 #@! TO.N,DIO2*
X138800000Y-85100000D03*
G04 #@! TO.P,U1,8*
G04 #@! TO.N,DIO1*
X138300000Y-85100000D03*
G04 #@! TO.P,U1,7*
G04 #@! TO.N,BUSY*
X137800000Y-85100000D03*
D16*
G04 #@! TO.P,U1,6*
G04 #@! TO.N,Net-(U1-Pad6)*
X137100000Y-84400000D03*
G04 #@! TO.P,U1,5*
G04 #@! TO.N,GND*
X137100000Y-83900000D03*
G04 #@! TO.P,U1,4*
G04 #@! TO.N,Net-(U1-Pad4)*
X137100000Y-83400000D03*
G04 #@! TO.P,U1,3*
G04 #@! TO.N,NRESET*
X137100000Y-82900000D03*
G04 #@! TO.P,U1,2*
G04 #@! TO.N,Net-(C1-Pad1)*
X137100000Y-82400000D03*
G04 #@! TO.P,U1,1*
G04 #@! TO.N,Net-(C2-Pad1)*
X137100000Y-81900000D03*
G04 #@! TD*
D13*
G04 #@! TO.P,C1,1*
G04 #@! TO.N,Net-(C1-Pad1)*
X135750000Y-82300000D03*
G04 #@! TO.P,C1,2*
G04 #@! TO.N,GND*
X134650000Y-82300000D03*
G04 #@! TD*
G04 #@! TO.P,C2,2*
G04 #@! TO.N,GND*
X134850000Y-79600000D03*
G04 #@! TO.P,C2,1*
G04 #@! TO.N,Net-(C2-Pad1)*
X135950000Y-79600000D03*
G04 #@! TD*
G04 #@! TO.P,C4,1*
G04 #@! TO.N,Net-(C1-Pad1)*
X144770000Y-85430000D03*
G04 #@! TO.P,C4,2*
G04 #@! TO.N,GND*
X143670000Y-85430000D03*
G04 #@! TD*
G04 #@! TO.P,C5,2*
G04 #@! TO.N,GND*
X140550000Y-78500000D03*
G04 #@! TO.P,C5,1*
G04 #@! TO.N,Net-(C5-Pad1)*
X139450000Y-78500000D03*
G04 #@! TD*
G04 #@! TO.P,C7,2*
G04 #@! TO.N,GND*
X139450000Y-76400000D03*
G04 #@! TO.P,C7,1*
G04 #@! TO.N,Net-(C7-Pad1)*
X138350000Y-76400000D03*
G04 #@! TD*
D17*
G04 #@! TO.P,C8,1*
G04 #@! TO.N,Net-(C10-Pad2)*
X137000000Y-74150000D03*
G04 #@! TO.P,C8,2*
G04 #@! TO.N,Net-(C7-Pad1)*
X137000000Y-75250000D03*
G04 #@! TD*
G04 #@! TO.P,C10,2*
G04 #@! TO.N,Net-(C10-Pad2)*
X138300000Y-71850000D03*
G04 #@! TO.P,C10,1*
G04 #@! TO.N,Net-(C10-Pad1)*
X138300000Y-70750000D03*
G04 #@! TD*
D13*
G04 #@! TO.P,C9,1*
G04 #@! TO.N,Net-(C10-Pad2)*
X138350000Y-73000000D03*
G04 #@! TO.P,C9,2*
G04 #@! TO.N,GND*
X139450000Y-73000000D03*
G04 #@! TD*
G04 #@! TO.P,C3,2*
G04 #@! TO.N,GND*
X144770000Y-84440000D03*
G04 #@! TO.P,C3,1*
G04 #@! TO.N,+3V3*
X143670000Y-84440000D03*
G04 #@! TD*
D18*
G04 #@! TO.P,Y1,4*
G04 #@! TO.N,GND*
X133550000Y-86325000D03*
G04 #@! TO.P,Y1,3*
G04 #@! TO.N,Net-(U1-Pad4)*
X133550000Y-84925000D03*
G04 #@! TO.P,Y1,2*
G04 #@! TO.N,GND*
X134650000Y-84925000D03*
G04 #@! TO.P,Y1,1*
G04 #@! TO.N,Net-(U1-Pad6)*
X134650000Y-86325000D03*
G04 #@! TD*
D19*
G04 #@! TO.P,J1,2*
G04 #@! TO.N,GND*
X142550000Y-66100000D03*
X134050000Y-66100000D03*
G04 #@! TO.P,J1,1*
G04 #@! TO.N,Net-(C10-Pad1)*
X138300000Y-66100000D03*
G04 #@! TD*
D20*
G04 #@! TO.P,L2,1*
G04 #@! TO.N,Net-(C5-Pad1)*
X138050000Y-78475000D03*
G04 #@! TO.P,L2,2*
G04 #@! TO.N,Net-(C7-Pad1)*
X137150000Y-78475000D03*
G04 #@! TD*
D21*
G04 #@! TO.P,L3,2*
G04 #@! TO.N,Net-(C10-Pad2)*
X138300000Y-74250000D03*
G04 #@! TO.P,L3,1*
G04 #@! TO.N,Net-(C7-Pad1)*
X138300000Y-75150000D03*
G04 #@! TD*
D22*
G04 #@! TO.P,L1,2*
G04 #@! TO.N,Net-(L1-Pad2)*
X142660000Y-86990000D03*
G04 #@! TO.P,L1,1*
G04 #@! TO.N,Net-(C1-Pad1)*
X144560000Y-86990000D03*
G04 #@! TD*
D23*
G04 #@! TO.N,Net-(C1-Pad1)*
X135800000Y-81100000D03*
X142660000Y-88670000D03*
G04 #@! TO.N,GND*
X139050000Y-83150000D03*
X139900000Y-83150000D03*
X139050000Y-82300000D03*
X138200000Y-83150000D03*
X139050000Y-84000000D03*
X141300000Y-87000000D03*
X135900000Y-84800000D03*
X142000000Y-90000000D03*
X131600000Y-86300000D03*
X134000000Y-70000000D03*
X142500000Y-70000000D03*
X133000000Y-73500000D03*
X134000000Y-73500000D03*
X142500000Y-73500000D03*
X141500000Y-73500000D03*
X141500000Y-74500000D03*
X142500000Y-74500000D03*
X133000000Y-74500000D03*
X134000000Y-74500000D03*
X133000000Y-75500000D03*
X134000000Y-75500000D03*
X141500000Y-75500000D03*
X142500000Y-75500000D03*
G04 #@! TO.N,NRESET*
X132500000Y-82100000D03*
G04 #@! TD*
D24*
G04 #@! TO.N,Net-(L1-Pad2)*
X142660000Y-86690000D02*
X142660000Y-86990000D01*
X142060000Y-86090000D02*
X142660000Y-86690000D01*
X142060000Y-84285000D02*
X142060000Y-86090000D01*
X141675000Y-83900000D02*
X142060000Y-84285000D01*
X141000000Y-83900000D02*
X141675000Y-83900000D01*
G04 #@! TO.N,Net-(C1-Pad1)*
X135850000Y-82400000D02*
X137100000Y-82400000D01*
X135750000Y-82300000D02*
X135850000Y-82400000D01*
X135750000Y-81150000D02*
X135800000Y-81100000D01*
X135750000Y-82300000D02*
X135750000Y-81150000D01*
X144770000Y-86780000D02*
X144560000Y-86990000D01*
X144770000Y-85430000D02*
X144770000Y-86780000D01*
X140300000Y-85775000D02*
X140300000Y-85100000D01*
X140300000Y-87880000D02*
X140300000Y-85775000D01*
X141090000Y-88670000D02*
X140300000Y-87880000D01*
X143980000Y-88670000D02*
X142660000Y-88670000D01*
X144560000Y-86990000D02*
X144560000Y-88090000D01*
X144560000Y-88090000D02*
X143980000Y-88670000D01*
X142660000Y-88670000D02*
X141090000Y-88670000D01*
G04 #@! TO.N,Net-(C10-Pad2)*
X138350000Y-74200000D02*
X138300000Y-74250000D01*
X138350000Y-73000000D02*
X138350000Y-74200000D01*
X138350000Y-71900000D02*
X138300000Y-71850000D01*
X138350000Y-73000000D02*
X138350000Y-71900000D01*
X138150000Y-73000000D02*
X137000000Y-74150000D01*
X138350000Y-73000000D02*
X138150000Y-73000000D01*
G04 #@! TO.N,Net-(C7-Pad1)*
X138300000Y-76450000D02*
X138350000Y-76400000D01*
X138350000Y-75200000D02*
X138300000Y-75150000D01*
X138350000Y-76400000D02*
X138350000Y-75200000D01*
X137400000Y-76400000D02*
X138350000Y-76400000D01*
X137000000Y-75250000D02*
X137000000Y-76000000D01*
X137000000Y-76000000D02*
X137400000Y-76400000D01*
X137150000Y-77925000D02*
X137150000Y-78475000D01*
X137150000Y-77550000D02*
X137150000Y-77925000D01*
X138300000Y-76400000D02*
X137150000Y-77550000D01*
X138350000Y-76400000D02*
X138300000Y-76400000D01*
G04 #@! TO.N,Net-(C5-Pad1)*
X139425000Y-78475000D02*
X139450000Y-78500000D01*
X138050000Y-78475000D02*
X139425000Y-78475000D01*
X139400000Y-78500000D02*
X139450000Y-78500000D01*
X138800000Y-79100000D02*
X139400000Y-78500000D01*
X138800000Y-81200000D02*
X138800000Y-79100000D01*
G04 #@! TO.N,GND*
X139800000Y-81200000D02*
X139800000Y-80525000D01*
X139800000Y-80525000D02*
X139800000Y-80250000D01*
X139300000Y-81200000D02*
X139300000Y-80275000D01*
X138300000Y-81200000D02*
X138300000Y-80150000D01*
X137800000Y-81200000D02*
X137800000Y-80175000D01*
X137100000Y-83900000D02*
X136425000Y-83900000D01*
X141000000Y-84400000D02*
X141000000Y-86200000D01*
G04 #@! TO.N,NSS_CTS*
X142774356Y-81200000D02*
X140700000Y-81200000D01*
X146575600Y-80799956D02*
X143174400Y-80799956D01*
X147800000Y-82024356D02*
X146575600Y-80799956D01*
X140280000Y-99940000D02*
X146250000Y-99940000D01*
X137580000Y-97240000D02*
X140280000Y-99940000D01*
X147800000Y-98390000D02*
X147800000Y-82024356D01*
X143174400Y-80799956D02*
X142774356Y-81200000D01*
X137580000Y-97000000D02*
X137580000Y-97240000D01*
X146250000Y-99940000D02*
X147800000Y-98390000D01*
X140700000Y-81200000D02*
X140300000Y-81200000D01*
G04 #@! TO.N,SCK_RTS*
X141675000Y-81900000D02*
X141000000Y-81900000D01*
X142710767Y-81900000D02*
X141675000Y-81900000D01*
X147340000Y-98160000D02*
X147340000Y-82200767D01*
X146120000Y-99380000D02*
X147340000Y-98160000D01*
X142260000Y-99380000D02*
X146120000Y-99380000D01*
X140120000Y-97240000D02*
X142260000Y-99380000D01*
X140120000Y-97000000D02*
X140120000Y-97240000D01*
X143360800Y-81249967D02*
X142710767Y-81900000D01*
X147340000Y-82200767D02*
X146389200Y-81249967D01*
X146389200Y-81249967D02*
X143360800Y-81249967D01*
G04 #@! TO.N,MOSI_RX*
X142847178Y-82400000D02*
X141675000Y-82400000D01*
X142660000Y-97240000D02*
X144295020Y-98875020D01*
X141675000Y-82400000D02*
X141000000Y-82400000D01*
X146835021Y-82332199D02*
X146202800Y-81699978D01*
X142660000Y-97000000D02*
X142660000Y-97240000D01*
X144295020Y-98875020D02*
X145877247Y-98875020D01*
X145877247Y-98875020D02*
X146835021Y-97917246D01*
X146835021Y-97917246D02*
X146835021Y-82332199D01*
X146202800Y-81699978D02*
X143547200Y-81699978D01*
X143547200Y-81699978D02*
X142847178Y-82400000D01*
G04 #@! TO.N,MISO_TX*
X141000000Y-82900000D02*
X142983589Y-82900000D01*
X146385010Y-95574990D02*
X145200000Y-96760000D01*
X146016400Y-82149989D02*
X146385010Y-82518599D01*
X145200000Y-96760000D02*
X145200000Y-97000000D01*
X143733600Y-82149989D02*
X146016400Y-82149989D01*
X146385010Y-82518599D02*
X146385010Y-95574990D01*
X142983589Y-82900000D02*
X143733600Y-82149989D01*
G04 #@! TO.N,DIO3*
X139300000Y-85100000D02*
X139300000Y-91100000D01*
X139300000Y-91100000D02*
X142660000Y-94460000D01*
G04 #@! TO.N,DIO2*
X138800000Y-85100000D02*
X138800000Y-91390000D01*
X140120000Y-92710000D02*
X140120000Y-94460000D01*
X138800000Y-91390000D02*
X140120000Y-92710000D01*
G04 #@! TO.N,DIO1*
X138300000Y-93740000D02*
X137580000Y-94460000D01*
X138300000Y-85100000D02*
X138300000Y-93740000D01*
G04 #@! TO.N,BUSY*
X137800000Y-85100000D02*
X137800000Y-92420000D01*
X137800000Y-92420000D02*
X137550000Y-92670000D01*
X135040000Y-94220000D02*
X135040000Y-94460000D01*
X136590000Y-92670000D02*
X135040000Y-94220000D01*
X137550000Y-92670000D02*
X136590000Y-92670000D01*
G04 #@! TO.N,Net-(U1-Pad6)*
X137100000Y-84400000D02*
X136850000Y-84400000D01*
X135300000Y-86325000D02*
X134650000Y-86325000D01*
X135575000Y-86325000D02*
X135300000Y-86325000D01*
X137100000Y-84800000D02*
X135575000Y-86325000D01*
X137100000Y-84400000D02*
X137100000Y-84800000D01*
G04 #@! TO.N,Net-(U1-Pad4)*
X136425000Y-83400000D02*
X137100000Y-83400000D01*
X134375000Y-83400000D02*
X136425000Y-83400000D01*
X133550000Y-84225000D02*
X134375000Y-83400000D01*
X133550000Y-84925000D02*
X133550000Y-84225000D01*
G04 #@! TO.N,NRESET*
X137100000Y-82900000D02*
X136425000Y-82900000D01*
X136425000Y-82900000D02*
X133300000Y-82900000D01*
X133300000Y-82900000D02*
X132500000Y-82100000D01*
X132500000Y-82100000D02*
X132500000Y-82100000D01*
G04 #@! TO.N,Net-(C2-Pad1)*
X137100000Y-81500000D02*
X137100000Y-81900000D01*
X137100000Y-80700000D02*
X137100000Y-81500000D01*
X136000000Y-79600000D02*
X137100000Y-80700000D01*
X135950000Y-79600000D02*
X136000000Y-79600000D01*
G04 #@! TO.N,Net-(C10-Pad1)*
X138300000Y-70200000D02*
X138300000Y-66100000D01*
X138300000Y-70750000D02*
X138300000Y-70200000D01*
G04 #@! TO.N,+3V3*
X143620000Y-83400000D02*
X143670000Y-83450000D01*
X141000000Y-83400000D02*
X143620000Y-83400000D01*
X143670000Y-83450000D02*
X143670000Y-84440000D01*
X139800000Y-85100000D02*
X139800000Y-90830000D01*
X139800000Y-90830000D02*
X141460000Y-92490000D01*
X145200000Y-94220000D02*
X145200000Y-94460000D01*
X143470000Y-92490000D02*
X145200000Y-94220000D01*
X141460000Y-92490000D02*
X143470000Y-92490000D01*
X143670000Y-82850000D02*
X143670000Y-83450000D01*
X145200000Y-94460000D02*
X145200000Y-93110000D01*
X145200000Y-93110000D02*
X145870000Y-92440000D01*
X145870000Y-92440000D02*
X145870000Y-82810000D01*
X145870000Y-82810000D02*
X145660000Y-82600000D01*
X145660000Y-82600000D02*
X143920000Y-82600000D01*
X143920000Y-82600000D02*
X143670000Y-82850000D01*
G04 #@! TD*
D25*
G04 #@! TO.N,GND*
G36*
X132960896Y-63333418D02*
X132900000Y-63480435D01*
X132900000Y-65846000D01*
X133000000Y-65946000D01*
X133896000Y-65946000D01*
X133896000Y-65926000D01*
X134204000Y-65926000D01*
X134204000Y-65946000D01*
X135100000Y-65946000D01*
X135200000Y-65846000D01*
X135200000Y-63480435D01*
X135139104Y-63333418D01*
X135080686Y-63275000D01*
X141519314Y-63275000D01*
X141460896Y-63333418D01*
X141400000Y-63480435D01*
X141400000Y-65846000D01*
X141500000Y-65946000D01*
X142396000Y-65946000D01*
X142396000Y-65926000D01*
X142704000Y-65926000D01*
X142704000Y-65946000D01*
X143600000Y-65946000D01*
X143700000Y-65846000D01*
X143700000Y-65219200D01*
X144227099Y-65219200D01*
X144231729Y-65808613D01*
X144427030Y-66364748D01*
X144791943Y-66827638D01*
X145287120Y-67147370D01*
X145859166Y-67289467D01*
X146446398Y-67238607D01*
X146985496Y-67000274D01*
X147418328Y-66600168D01*
X147698223Y-66081432D01*
X147795000Y-65500000D01*
X147794779Y-65471805D01*
X147688881Y-64891965D01*
X147400873Y-64377689D01*
X146961809Y-63984431D01*
X146419034Y-63754596D01*
X145831076Y-63712966D01*
X145261332Y-63864031D01*
X144771238Y-64191501D01*
X144413641Y-64660066D01*
X144227099Y-65219200D01*
X143700000Y-65219200D01*
X143700000Y-63480435D01*
X143639104Y-63333418D01*
X143580686Y-63275000D01*
X147634166Y-63275000D01*
X148225000Y-63864141D01*
X148225000Y-79606104D01*
X147508588Y-80323633D01*
X139195000Y-80312723D01*
X139195000Y-79263614D01*
X139433326Y-79025289D01*
X139750000Y-79025289D01*
X139855349Y-79004334D01*
X139907858Y-78969248D01*
X139910896Y-78976582D01*
X140023418Y-79089104D01*
X140170435Y-79150000D01*
X140300000Y-79150000D01*
X140400000Y-79050000D01*
X140400000Y-78625000D01*
X140700000Y-78625000D01*
X140700000Y-79050000D01*
X140800000Y-79150000D01*
X140929565Y-79150000D01*
X141076582Y-79089104D01*
X141189104Y-78976582D01*
X141250000Y-78829565D01*
X141250000Y-78725000D01*
X141150000Y-78625000D01*
X140700000Y-78625000D01*
X140400000Y-78625000D01*
X140376000Y-78625000D01*
X140376000Y-78375000D01*
X140400000Y-78375000D01*
X140400000Y-77950000D01*
X140700000Y-77950000D01*
X140700000Y-78375000D01*
X141150000Y-78375000D01*
X141250000Y-78275000D01*
X141250000Y-78170435D01*
X141189104Y-78023418D01*
X141076582Y-77910896D01*
X140929565Y-77850000D01*
X140800000Y-77850000D01*
X140700000Y-77950000D01*
X140400000Y-77950000D01*
X140300000Y-77850000D01*
X140170435Y-77850000D01*
X140023418Y-77910896D01*
X139910896Y-78023418D01*
X139907858Y-78030752D01*
X139855349Y-77995666D01*
X139750000Y-77974711D01*
X139150000Y-77974711D01*
X139044651Y-77995666D01*
X138955341Y-78055341D01*
X138938864Y-78080000D01*
X138506393Y-78080000D01*
X138504334Y-78069651D01*
X138444659Y-77980341D01*
X138355349Y-77920666D01*
X138250000Y-77899711D01*
X137850000Y-77899711D01*
X137744651Y-77920666D01*
X137655341Y-77980341D01*
X137600000Y-78063165D01*
X137545000Y-77980851D01*
X137545000Y-77713614D01*
X138333325Y-76925289D01*
X138650000Y-76925289D01*
X138755349Y-76904334D01*
X138807858Y-76869248D01*
X138810896Y-76876582D01*
X138923418Y-76989104D01*
X139070435Y-77050000D01*
X139200000Y-77050000D01*
X139300000Y-76950000D01*
X139300000Y-76525000D01*
X139600000Y-76525000D01*
X139600000Y-76950000D01*
X139700000Y-77050000D01*
X139829565Y-77050000D01*
X139976582Y-76989104D01*
X140089104Y-76876582D01*
X140150000Y-76729565D01*
X140150000Y-76625000D01*
X140050000Y-76525000D01*
X139600000Y-76525000D01*
X139300000Y-76525000D01*
X139276000Y-76525000D01*
X139276000Y-76275000D01*
X139300000Y-76275000D01*
X139300000Y-75850000D01*
X139600000Y-75850000D01*
X139600000Y-76275000D01*
X140050000Y-76275000D01*
X140150000Y-76175000D01*
X140150000Y-76070435D01*
X140089104Y-75923418D01*
X139976582Y-75810896D01*
X139829565Y-75750000D01*
X139700000Y-75750000D01*
X139600000Y-75850000D01*
X139300000Y-75850000D01*
X139200000Y-75750000D01*
X139070435Y-75750000D01*
X138923418Y-75810896D01*
X138810896Y-75923418D01*
X138807858Y-75930752D01*
X138755349Y-75895666D01*
X138745000Y-75893607D01*
X138745000Y-75577840D01*
X138794659Y-75544659D01*
X138854334Y-75455349D01*
X138875289Y-75350000D01*
X138875289Y-74950000D01*
X138854334Y-74844651D01*
X138794659Y-74755341D01*
X138711835Y-74700000D01*
X138794659Y-74644659D01*
X138854334Y-74555349D01*
X138875289Y-74450000D01*
X138875289Y-74050000D01*
X138854334Y-73944651D01*
X138794659Y-73855341D01*
X138745000Y-73822160D01*
X138745000Y-73506393D01*
X138755349Y-73504334D01*
X138807858Y-73469248D01*
X138810896Y-73476582D01*
X138923418Y-73589104D01*
X139070435Y-73650000D01*
X139200000Y-73650000D01*
X139300000Y-73550000D01*
X139300000Y-73125000D01*
X139600000Y-73125000D01*
X139600000Y-73550000D01*
X139700000Y-73650000D01*
X139829565Y-73650000D01*
X139976582Y-73589104D01*
X140089104Y-73476582D01*
X140150000Y-73329565D01*
X140150000Y-73225000D01*
X140050000Y-73125000D01*
X139600000Y-73125000D01*
X139300000Y-73125000D01*
X139276000Y-73125000D01*
X139276000Y-72875000D01*
X139300000Y-72875000D01*
X139300000Y-72450000D01*
X139600000Y-72450000D01*
X139600000Y-72875000D01*
X140050000Y-72875000D01*
X140150000Y-72775000D01*
X140150000Y-72670435D01*
X140089104Y-72523418D01*
X139976582Y-72410896D01*
X139829565Y-72350000D01*
X139700000Y-72350000D01*
X139600000Y-72450000D01*
X139300000Y-72450000D01*
X139200000Y-72350000D01*
X139070435Y-72350000D01*
X138923418Y-72410896D01*
X138810896Y-72523418D01*
X138807858Y-72530752D01*
X138755349Y-72495666D01*
X138745000Y-72493607D01*
X138745000Y-72344149D01*
X138804334Y-72255349D01*
X138825289Y-72150000D01*
X138825289Y-71550000D01*
X138804334Y-71444651D01*
X138744659Y-71355341D01*
X138661835Y-71300000D01*
X138744659Y-71244659D01*
X138804334Y-71155349D01*
X138825289Y-71050000D01*
X138825289Y-70450000D01*
X138804334Y-70344651D01*
X138744659Y-70255341D01*
X138695000Y-70222160D01*
X138695000Y-68915289D01*
X139050000Y-68915289D01*
X139155349Y-68894334D01*
X139244659Y-68834659D01*
X139304334Y-68745349D01*
X139325289Y-68640000D01*
X139325289Y-66354000D01*
X141400000Y-66354000D01*
X141400000Y-68719565D01*
X141460896Y-68866582D01*
X141573418Y-68979104D01*
X141720435Y-69040000D01*
X142296000Y-69040000D01*
X142396000Y-68940000D01*
X142396000Y-66254000D01*
X142704000Y-66254000D01*
X142704000Y-68940000D01*
X142804000Y-69040000D01*
X143379565Y-69040000D01*
X143526582Y-68979104D01*
X143639104Y-68866582D01*
X143700000Y-68719565D01*
X143700000Y-66354000D01*
X143600000Y-66254000D01*
X142704000Y-66254000D01*
X142396000Y-66254000D01*
X141500000Y-66254000D01*
X141400000Y-66354000D01*
X139325289Y-66354000D01*
X139325289Y-63560000D01*
X139304334Y-63454651D01*
X139244659Y-63365341D01*
X139155349Y-63305666D01*
X139050000Y-63284711D01*
X137550000Y-63284711D01*
X137444651Y-63305666D01*
X137355341Y-63365341D01*
X137295666Y-63454651D01*
X137274711Y-63560000D01*
X137274711Y-68640000D01*
X137295666Y-68745349D01*
X137355341Y-68834659D01*
X137444651Y-68894334D01*
X137550000Y-68915289D01*
X137905000Y-68915289D01*
X137905000Y-70222160D01*
X137855341Y-70255341D01*
X137795666Y-70344651D01*
X137774711Y-70450000D01*
X137774711Y-71050000D01*
X137795666Y-71155349D01*
X137855341Y-71244659D01*
X137938165Y-71300000D01*
X137855341Y-71355341D01*
X137795666Y-71444651D01*
X137774711Y-71550000D01*
X137774711Y-72150000D01*
X137795666Y-72255349D01*
X137855341Y-72344659D01*
X137944651Y-72404334D01*
X137955001Y-72406393D01*
X137955000Y-72493607D01*
X137944651Y-72495666D01*
X137855341Y-72555341D01*
X137795666Y-72644651D01*
X137774711Y-72750000D01*
X137774711Y-72816675D01*
X137016675Y-73574711D01*
X136750000Y-73574711D01*
X136644651Y-73595666D01*
X136555341Y-73655341D01*
X136495666Y-73744651D01*
X136474711Y-73850000D01*
X136474711Y-74450000D01*
X136495666Y-74555349D01*
X136555341Y-74644659D01*
X136638165Y-74700000D01*
X136555341Y-74755341D01*
X136495666Y-74844651D01*
X136474711Y-74950000D01*
X136474711Y-75550000D01*
X136495666Y-75655349D01*
X136555341Y-75744659D01*
X136605001Y-75777841D01*
X136605001Y-75961095D01*
X136597262Y-76000000D01*
X136627919Y-76154120D01*
X136641871Y-76175000D01*
X136715222Y-76284779D01*
X136748200Y-76306814D01*
X137093185Y-76651800D01*
X137115221Y-76684779D01*
X137245879Y-76772081D01*
X137348827Y-76792559D01*
X136898202Y-77243184D01*
X136865221Y-77265221D01*
X136843186Y-77298200D01*
X136777919Y-77395880D01*
X136747262Y-77550000D01*
X136755000Y-77588901D01*
X136755000Y-77980851D01*
X136695666Y-78069651D01*
X136674711Y-78175000D01*
X136674711Y-78775000D01*
X136695666Y-78880349D01*
X136755341Y-78969659D01*
X136844651Y-79029334D01*
X136950000Y-79050289D01*
X137350000Y-79050289D01*
X137455349Y-79029334D01*
X137544659Y-78969659D01*
X137600000Y-78886835D01*
X137655341Y-78969659D01*
X137744651Y-79029334D01*
X137850000Y-79050289D01*
X138250000Y-79050289D01*
X138355349Y-79029334D01*
X138419898Y-78986204D01*
X138397262Y-79100000D01*
X138405001Y-79138906D01*
X138405000Y-80311686D01*
X137268809Y-80310195D01*
X136525289Y-79566675D01*
X136525289Y-79350000D01*
X136504334Y-79244651D01*
X136444659Y-79155341D01*
X136355349Y-79095666D01*
X136250000Y-79074711D01*
X135650000Y-79074711D01*
X135544651Y-79095666D01*
X135492142Y-79130752D01*
X135489104Y-79123418D01*
X135376582Y-79010896D01*
X135229565Y-78950000D01*
X135100000Y-78950000D01*
X135000000Y-79050000D01*
X135000000Y-79475000D01*
X135024000Y-79475000D01*
X135024000Y-79725000D01*
X135000000Y-79725000D01*
X135000000Y-80150000D01*
X135100000Y-80250000D01*
X135229565Y-80250000D01*
X135376582Y-80189104D01*
X135489104Y-80076582D01*
X135492142Y-80069248D01*
X135544651Y-80104334D01*
X135650000Y-80125289D01*
X135966675Y-80125289D01*
X136150113Y-80308727D01*
X130541513Y-80301366D01*
X130065772Y-79825000D01*
X134150000Y-79825000D01*
X134150000Y-79929565D01*
X134210896Y-80076582D01*
X134323418Y-80189104D01*
X134470435Y-80250000D01*
X134600000Y-80250000D01*
X134700000Y-80150000D01*
X134700000Y-79725000D01*
X134250000Y-79725000D01*
X134150000Y-79825000D01*
X130065772Y-79825000D01*
X129775000Y-79533847D01*
X129775000Y-79270435D01*
X134150000Y-79270435D01*
X134150000Y-79375000D01*
X134250000Y-79475000D01*
X134700000Y-79475000D01*
X134700000Y-79050000D01*
X134600000Y-78950000D01*
X134470435Y-78950000D01*
X134323418Y-79010896D01*
X134210896Y-79123418D01*
X134150000Y-79270435D01*
X129775000Y-79270435D01*
X129775000Y-66354000D01*
X132900000Y-66354000D01*
X132900000Y-68719565D01*
X132960896Y-68866582D01*
X133073418Y-68979104D01*
X133220435Y-69040000D01*
X133796000Y-69040000D01*
X133896000Y-68940000D01*
X133896000Y-66254000D01*
X134204000Y-66254000D01*
X134204000Y-68940000D01*
X134304000Y-69040000D01*
X134879565Y-69040000D01*
X135026582Y-68979104D01*
X135139104Y-68866582D01*
X135200000Y-68719565D01*
X135200000Y-66354000D01*
X135100000Y-66254000D01*
X134204000Y-66254000D01*
X133896000Y-66254000D01*
X133000000Y-66254000D01*
X132900000Y-66354000D01*
X129775000Y-66354000D01*
X129775000Y-63866422D01*
X130366422Y-63275000D01*
X133019314Y-63275000D01*
X132960896Y-63333418D01*
X132960896Y-63333418D01*
G37*
X132960896Y-63333418D02*
X132900000Y-63480435D01*
X132900000Y-65846000D01*
X133000000Y-65946000D01*
X133896000Y-65946000D01*
X133896000Y-65926000D01*
X134204000Y-65926000D01*
X134204000Y-65946000D01*
X135100000Y-65946000D01*
X135200000Y-65846000D01*
X135200000Y-63480435D01*
X135139104Y-63333418D01*
X135080686Y-63275000D01*
X141519314Y-63275000D01*
X141460896Y-63333418D01*
X141400000Y-63480435D01*
X141400000Y-65846000D01*
X141500000Y-65946000D01*
X142396000Y-65946000D01*
X142396000Y-65926000D01*
X142704000Y-65926000D01*
X142704000Y-65946000D01*
X143600000Y-65946000D01*
X143700000Y-65846000D01*
X143700000Y-65219200D01*
X144227099Y-65219200D01*
X144231729Y-65808613D01*
X144427030Y-66364748D01*
X144791943Y-66827638D01*
X145287120Y-67147370D01*
X145859166Y-67289467D01*
X146446398Y-67238607D01*
X146985496Y-67000274D01*
X147418328Y-66600168D01*
X147698223Y-66081432D01*
X147795000Y-65500000D01*
X147794779Y-65471805D01*
X147688881Y-64891965D01*
X147400873Y-64377689D01*
X146961809Y-63984431D01*
X146419034Y-63754596D01*
X145831076Y-63712966D01*
X145261332Y-63864031D01*
X144771238Y-64191501D01*
X144413641Y-64660066D01*
X144227099Y-65219200D01*
X143700000Y-65219200D01*
X143700000Y-63480435D01*
X143639104Y-63333418D01*
X143580686Y-63275000D01*
X147634166Y-63275000D01*
X148225000Y-63864141D01*
X148225000Y-79606104D01*
X147508588Y-80323633D01*
X139195000Y-80312723D01*
X139195000Y-79263614D01*
X139433326Y-79025289D01*
X139750000Y-79025289D01*
X139855349Y-79004334D01*
X139907858Y-78969248D01*
X139910896Y-78976582D01*
X140023418Y-79089104D01*
X140170435Y-79150000D01*
X140300000Y-79150000D01*
X140400000Y-79050000D01*
X140400000Y-78625000D01*
X140700000Y-78625000D01*
X140700000Y-79050000D01*
X140800000Y-79150000D01*
X140929565Y-79150000D01*
X141076582Y-79089104D01*
X141189104Y-78976582D01*
X141250000Y-78829565D01*
X141250000Y-78725000D01*
X141150000Y-78625000D01*
X140700000Y-78625000D01*
X140400000Y-78625000D01*
X140376000Y-78625000D01*
X140376000Y-78375000D01*
X140400000Y-78375000D01*
X140400000Y-77950000D01*
X140700000Y-77950000D01*
X140700000Y-78375000D01*
X141150000Y-78375000D01*
X141250000Y-78275000D01*
X141250000Y-78170435D01*
X141189104Y-78023418D01*
X141076582Y-77910896D01*
X140929565Y-77850000D01*
X140800000Y-77850000D01*
X140700000Y-77950000D01*
X140400000Y-77950000D01*
X140300000Y-77850000D01*
X140170435Y-77850000D01*
X140023418Y-77910896D01*
X139910896Y-78023418D01*
X139907858Y-78030752D01*
X139855349Y-77995666D01*
X139750000Y-77974711D01*
X139150000Y-77974711D01*
X139044651Y-77995666D01*
X138955341Y-78055341D01*
X138938864Y-78080000D01*
X138506393Y-78080000D01*
X138504334Y-78069651D01*
X138444659Y-77980341D01*
X138355349Y-77920666D01*
X138250000Y-77899711D01*
X137850000Y-77899711D01*
X137744651Y-77920666D01*
X137655341Y-77980341D01*
X137600000Y-78063165D01*
X137545000Y-77980851D01*
X137545000Y-77713614D01*
X138333325Y-76925289D01*
X138650000Y-76925289D01*
X138755349Y-76904334D01*
X138807858Y-76869248D01*
X138810896Y-76876582D01*
X138923418Y-76989104D01*
X139070435Y-77050000D01*
X139200000Y-77050000D01*
X139300000Y-76950000D01*
X139300000Y-76525000D01*
X139600000Y-76525000D01*
X139600000Y-76950000D01*
X139700000Y-77050000D01*
X139829565Y-77050000D01*
X139976582Y-76989104D01*
X140089104Y-76876582D01*
X140150000Y-76729565D01*
X140150000Y-76625000D01*
X140050000Y-76525000D01*
X139600000Y-76525000D01*
X139300000Y-76525000D01*
X139276000Y-76525000D01*
X139276000Y-76275000D01*
X139300000Y-76275000D01*
X139300000Y-75850000D01*
X139600000Y-75850000D01*
X139600000Y-76275000D01*
X140050000Y-76275000D01*
X140150000Y-76175000D01*
X140150000Y-76070435D01*
X140089104Y-75923418D01*
X139976582Y-75810896D01*
X139829565Y-75750000D01*
X139700000Y-75750000D01*
X139600000Y-75850000D01*
X139300000Y-75850000D01*
X139200000Y-75750000D01*
X139070435Y-75750000D01*
X138923418Y-75810896D01*
X138810896Y-75923418D01*
X138807858Y-75930752D01*
X138755349Y-75895666D01*
X138745000Y-75893607D01*
X138745000Y-75577840D01*
X138794659Y-75544659D01*
X138854334Y-75455349D01*
X138875289Y-75350000D01*
X138875289Y-74950000D01*
X138854334Y-74844651D01*
X138794659Y-74755341D01*
X138711835Y-74700000D01*
X138794659Y-74644659D01*
X138854334Y-74555349D01*
X138875289Y-74450000D01*
X138875289Y-74050000D01*
X138854334Y-73944651D01*
X138794659Y-73855341D01*
X138745000Y-73822160D01*
X138745000Y-73506393D01*
X138755349Y-73504334D01*
X138807858Y-73469248D01*
X138810896Y-73476582D01*
X138923418Y-73589104D01*
X139070435Y-73650000D01*
X139200000Y-73650000D01*
X139300000Y-73550000D01*
X139300000Y-73125000D01*
X139600000Y-73125000D01*
X139600000Y-73550000D01*
X139700000Y-73650000D01*
X139829565Y-73650000D01*
X139976582Y-73589104D01*
X140089104Y-73476582D01*
X140150000Y-73329565D01*
X140150000Y-73225000D01*
X140050000Y-73125000D01*
X139600000Y-73125000D01*
X139300000Y-73125000D01*
X139276000Y-73125000D01*
X139276000Y-72875000D01*
X139300000Y-72875000D01*
X139300000Y-72450000D01*
X139600000Y-72450000D01*
X139600000Y-72875000D01*
X140050000Y-72875000D01*
X140150000Y-72775000D01*
X140150000Y-72670435D01*
X140089104Y-72523418D01*
X139976582Y-72410896D01*
X139829565Y-72350000D01*
X139700000Y-72350000D01*
X139600000Y-72450000D01*
X139300000Y-72450000D01*
X139200000Y-72350000D01*
X139070435Y-72350000D01*
X138923418Y-72410896D01*
X138810896Y-72523418D01*
X138807858Y-72530752D01*
X138755349Y-72495666D01*
X138745000Y-72493607D01*
X138745000Y-72344149D01*
X138804334Y-72255349D01*
X138825289Y-72150000D01*
X138825289Y-71550000D01*
X138804334Y-71444651D01*
X138744659Y-71355341D01*
X138661835Y-71300000D01*
X138744659Y-71244659D01*
X138804334Y-71155349D01*
X138825289Y-71050000D01*
X138825289Y-70450000D01*
X138804334Y-70344651D01*
X138744659Y-70255341D01*
X138695000Y-70222160D01*
X138695000Y-68915289D01*
X139050000Y-68915289D01*
X139155349Y-68894334D01*
X139244659Y-68834659D01*
X139304334Y-68745349D01*
X139325289Y-68640000D01*
X139325289Y-66354000D01*
X141400000Y-66354000D01*
X141400000Y-68719565D01*
X141460896Y-68866582D01*
X141573418Y-68979104D01*
X141720435Y-69040000D01*
X142296000Y-69040000D01*
X142396000Y-68940000D01*
X142396000Y-66254000D01*
X142704000Y-66254000D01*
X142704000Y-68940000D01*
X142804000Y-69040000D01*
X143379565Y-69040000D01*
X143526582Y-68979104D01*
X143639104Y-68866582D01*
X143700000Y-68719565D01*
X143700000Y-66354000D01*
X143600000Y-66254000D01*
X142704000Y-66254000D01*
X142396000Y-66254000D01*
X141500000Y-66254000D01*
X141400000Y-66354000D01*
X139325289Y-66354000D01*
X139325289Y-63560000D01*
X139304334Y-63454651D01*
X139244659Y-63365341D01*
X139155349Y-63305666D01*
X139050000Y-63284711D01*
X137550000Y-63284711D01*
X137444651Y-63305666D01*
X137355341Y-63365341D01*
X137295666Y-63454651D01*
X137274711Y-63560000D01*
X137274711Y-68640000D01*
X137295666Y-68745349D01*
X137355341Y-68834659D01*
X137444651Y-68894334D01*
X137550000Y-68915289D01*
X137905000Y-68915289D01*
X137905000Y-70222160D01*
X137855341Y-70255341D01*
X137795666Y-70344651D01*
X137774711Y-70450000D01*
X137774711Y-71050000D01*
X137795666Y-71155349D01*
X137855341Y-71244659D01*
X137938165Y-71300000D01*
X137855341Y-71355341D01*
X137795666Y-71444651D01*
X137774711Y-71550000D01*
X137774711Y-72150000D01*
X137795666Y-72255349D01*
X137855341Y-72344659D01*
X137944651Y-72404334D01*
X137955001Y-72406393D01*
X137955000Y-72493607D01*
X137944651Y-72495666D01*
X137855341Y-72555341D01*
X137795666Y-72644651D01*
X137774711Y-72750000D01*
X137774711Y-72816675D01*
X137016675Y-73574711D01*
X136750000Y-73574711D01*
X136644651Y-73595666D01*
X136555341Y-73655341D01*
X136495666Y-73744651D01*
X136474711Y-73850000D01*
X136474711Y-74450000D01*
X136495666Y-74555349D01*
X136555341Y-74644659D01*
X136638165Y-74700000D01*
X136555341Y-74755341D01*
X136495666Y-74844651D01*
X136474711Y-74950000D01*
X136474711Y-75550000D01*
X136495666Y-75655349D01*
X136555341Y-75744659D01*
X136605001Y-75777841D01*
X136605001Y-75961095D01*
X136597262Y-76000000D01*
X136627919Y-76154120D01*
X136641871Y-76175000D01*
X136715222Y-76284779D01*
X136748200Y-76306814D01*
X137093185Y-76651800D01*
X137115221Y-76684779D01*
X137245879Y-76772081D01*
X137348827Y-76792559D01*
X136898202Y-77243184D01*
X136865221Y-77265221D01*
X136843186Y-77298200D01*
X136777919Y-77395880D01*
X136747262Y-77550000D01*
X136755000Y-77588901D01*
X136755000Y-77980851D01*
X136695666Y-78069651D01*
X136674711Y-78175000D01*
X136674711Y-78775000D01*
X136695666Y-78880349D01*
X136755341Y-78969659D01*
X136844651Y-79029334D01*
X136950000Y-79050289D01*
X137350000Y-79050289D01*
X137455349Y-79029334D01*
X137544659Y-78969659D01*
X137600000Y-78886835D01*
X137655341Y-78969659D01*
X137744651Y-79029334D01*
X137850000Y-79050289D01*
X138250000Y-79050289D01*
X138355349Y-79029334D01*
X138419898Y-78986204D01*
X138397262Y-79100000D01*
X138405001Y-79138906D01*
X138405000Y-80311686D01*
X137268809Y-80310195D01*
X136525289Y-79566675D01*
X136525289Y-79350000D01*
X136504334Y-79244651D01*
X136444659Y-79155341D01*
X136355349Y-79095666D01*
X136250000Y-79074711D01*
X135650000Y-79074711D01*
X135544651Y-79095666D01*
X135492142Y-79130752D01*
X135489104Y-79123418D01*
X135376582Y-79010896D01*
X135229565Y-78950000D01*
X135100000Y-78950000D01*
X135000000Y-79050000D01*
X135000000Y-79475000D01*
X135024000Y-79475000D01*
X135024000Y-79725000D01*
X135000000Y-79725000D01*
X135000000Y-80150000D01*
X135100000Y-80250000D01*
X135229565Y-80250000D01*
X135376582Y-80189104D01*
X135489104Y-80076582D01*
X135492142Y-80069248D01*
X135544651Y-80104334D01*
X135650000Y-80125289D01*
X135966675Y-80125289D01*
X136150113Y-80308727D01*
X130541513Y-80301366D01*
X130065772Y-79825000D01*
X134150000Y-79825000D01*
X134150000Y-79929565D01*
X134210896Y-80076582D01*
X134323418Y-80189104D01*
X134470435Y-80250000D01*
X134600000Y-80250000D01*
X134700000Y-80150000D01*
X134700000Y-79725000D01*
X134250000Y-79725000D01*
X134150000Y-79825000D01*
X130065772Y-79825000D01*
X129775000Y-79533847D01*
X129775000Y-79270435D01*
X134150000Y-79270435D01*
X134150000Y-79375000D01*
X134250000Y-79475000D01*
X134700000Y-79475000D01*
X134700000Y-79050000D01*
X134600000Y-78950000D01*
X134470435Y-78950000D01*
X134323418Y-79010896D01*
X134210896Y-79123418D01*
X134150000Y-79270435D01*
X129775000Y-79270435D01*
X129775000Y-66354000D01*
X132900000Y-66354000D01*
X132900000Y-68719565D01*
X132960896Y-68866582D01*
X133073418Y-68979104D01*
X133220435Y-69040000D01*
X133796000Y-69040000D01*
X133896000Y-68940000D01*
X133896000Y-66254000D01*
X134204000Y-66254000D01*
X134204000Y-68940000D01*
X134304000Y-69040000D01*
X134879565Y-69040000D01*
X135026582Y-68979104D01*
X135139104Y-68866582D01*
X135200000Y-68719565D01*
X135200000Y-66354000D01*
X135100000Y-66254000D01*
X134204000Y-66254000D01*
X133896000Y-66254000D01*
X133000000Y-66254000D01*
X132900000Y-66354000D01*
X129775000Y-66354000D01*
X129775000Y-63866422D01*
X130366422Y-63275000D01*
X133019314Y-63275000D01*
X132960896Y-63333418D01*
D10*
G36*
X145525001Y-82952903D02*
X145525000Y-89904290D01*
X144979290Y-90450000D01*
X141020710Y-90450000D01*
X140145000Y-89574290D01*
X140145000Y-88212902D01*
X140822025Y-88889928D01*
X140841270Y-88918730D01*
X140955388Y-88994982D01*
X141056025Y-89015000D01*
X141056029Y-89015000D01*
X141090000Y-89021757D01*
X141123971Y-89015000D01*
X142131820Y-89015000D01*
X142134389Y-89021202D01*
X142308798Y-89195611D01*
X142536674Y-89290000D01*
X142783326Y-89290000D01*
X143011202Y-89195611D01*
X143185611Y-89021202D01*
X143188180Y-89015000D01*
X143946029Y-89015000D01*
X143980000Y-89021757D01*
X144013971Y-89015000D01*
X144013975Y-89015000D01*
X144114612Y-88994982D01*
X144228730Y-88918730D01*
X144247977Y-88889925D01*
X144779928Y-88357975D01*
X144808730Y-88338730D01*
X144884982Y-88224612D01*
X144905000Y-88123975D01*
X144905000Y-88123971D01*
X144911757Y-88090000D01*
X144905000Y-88056029D01*
X144905000Y-87864310D01*
X144910000Y-87864310D01*
X144995840Y-87847235D01*
X145068611Y-87798611D01*
X145117235Y-87725840D01*
X145134310Y-87640000D01*
X145134310Y-86340000D01*
X145117235Y-86254160D01*
X145115000Y-86250815D01*
X145115000Y-85895359D01*
X145155840Y-85887235D01*
X145228611Y-85838611D01*
X145277235Y-85765840D01*
X145294310Y-85680000D01*
X145294310Y-85180000D01*
X145277235Y-85094160D01*
X145228611Y-85021389D01*
X145155840Y-84972765D01*
X145070000Y-84955690D01*
X144470000Y-84955690D01*
X144384160Y-84972765D01*
X144311389Y-85021389D01*
X144262765Y-85094160D01*
X144245690Y-85180000D01*
X144245690Y-85680000D01*
X144262765Y-85765840D01*
X144311389Y-85838611D01*
X144384160Y-85887235D01*
X144425000Y-85895359D01*
X144425001Y-86115690D01*
X144210000Y-86115690D01*
X144124160Y-86132765D01*
X144051389Y-86181389D01*
X144002765Y-86254160D01*
X143985690Y-86340000D01*
X143985690Y-87640000D01*
X144002765Y-87725840D01*
X144051389Y-87798611D01*
X144124160Y-87847235D01*
X144210000Y-87864310D01*
X144215001Y-87864310D01*
X144215001Y-87947096D01*
X143837098Y-88325000D01*
X143188180Y-88325000D01*
X143185611Y-88318798D01*
X143011202Y-88144389D01*
X142783326Y-88050000D01*
X142536674Y-88050000D01*
X142308798Y-88144389D01*
X142134389Y-88318798D01*
X142131820Y-88325000D01*
X141232903Y-88325000D01*
X140645000Y-87737098D01*
X140645000Y-86325710D01*
X141020710Y-85950000D01*
X141200000Y-85950000D01*
X141219134Y-85946194D01*
X141235355Y-85935355D01*
X141715001Y-85455709D01*
X141715001Y-86056024D01*
X141708243Y-86090000D01*
X141735018Y-86224611D01*
X141792025Y-86309927D01*
X141811271Y-86338730D01*
X141840073Y-86357975D01*
X142085690Y-86603592D01*
X142085690Y-87640000D01*
X142102765Y-87725840D01*
X142151389Y-87798611D01*
X142224160Y-87847235D01*
X142310000Y-87864310D01*
X143010000Y-87864310D01*
X143095840Y-87847235D01*
X143168611Y-87798611D01*
X143217235Y-87725840D01*
X143234310Y-87640000D01*
X143234310Y-86340000D01*
X143217235Y-86254160D01*
X143168611Y-86181389D01*
X143095840Y-86132765D01*
X143010000Y-86115690D01*
X142573592Y-86115690D01*
X142405000Y-85947098D01*
X142405000Y-85617500D01*
X143120000Y-85617500D01*
X143120000Y-85729728D01*
X143158060Y-85821614D01*
X143228386Y-85891940D01*
X143320272Y-85930000D01*
X143457500Y-85930000D01*
X143520000Y-85867500D01*
X143520000Y-85555000D01*
X143820000Y-85555000D01*
X143820000Y-85867500D01*
X143882500Y-85930000D01*
X144019728Y-85930000D01*
X144111614Y-85891940D01*
X144181940Y-85821614D01*
X144220000Y-85729728D01*
X144220000Y-85617500D01*
X144157500Y-85555000D01*
X143820000Y-85555000D01*
X143520000Y-85555000D01*
X143182500Y-85555000D01*
X143120000Y-85617500D01*
X142405000Y-85617500D01*
X142405000Y-85130272D01*
X143120000Y-85130272D01*
X143120000Y-85242500D01*
X143182500Y-85305000D01*
X143520000Y-85305000D01*
X143520000Y-84992500D01*
X143820000Y-84992500D01*
X143820000Y-85305000D01*
X144157500Y-85305000D01*
X144220000Y-85242500D01*
X144220000Y-85130272D01*
X144181940Y-85038386D01*
X144111614Y-84968060D01*
X144019728Y-84930000D01*
X143882500Y-84930000D01*
X143820000Y-84992500D01*
X143520000Y-84992500D01*
X143457500Y-84930000D01*
X143320272Y-84930000D01*
X143228386Y-84968060D01*
X143158060Y-85038386D01*
X143120000Y-85130272D01*
X142405000Y-85130272D01*
X142405000Y-84318969D01*
X142411757Y-84284999D01*
X142405000Y-84251029D01*
X142405000Y-84251025D01*
X142384982Y-84150388D01*
X142354093Y-84104160D01*
X142327975Y-84065071D01*
X142327971Y-84065067D01*
X142308729Y-84036270D01*
X142279932Y-84017028D01*
X142250000Y-83987096D01*
X142250000Y-83745000D01*
X143154641Y-83745000D01*
X143162765Y-83785840D01*
X143211389Y-83858611D01*
X143284160Y-83907235D01*
X143325000Y-83915359D01*
X143325001Y-83974641D01*
X143284160Y-83982765D01*
X143211389Y-84031389D01*
X143162765Y-84104160D01*
X143145690Y-84190000D01*
X143145690Y-84690000D01*
X143162765Y-84775840D01*
X143211389Y-84848611D01*
X143284160Y-84897235D01*
X143370000Y-84914310D01*
X143970000Y-84914310D01*
X144055840Y-84897235D01*
X144128611Y-84848611D01*
X144177235Y-84775840D01*
X144194310Y-84690000D01*
X144194310Y-84627500D01*
X144220000Y-84627500D01*
X144220000Y-84739728D01*
X144258060Y-84831614D01*
X144328386Y-84901940D01*
X144420272Y-84940000D01*
X144557500Y-84940000D01*
X144620000Y-84877500D01*
X144620000Y-84565000D01*
X144920000Y-84565000D01*
X144920000Y-84877500D01*
X144982500Y-84940000D01*
X145119728Y-84940000D01*
X145211614Y-84901940D01*
X145281940Y-84831614D01*
X145320000Y-84739728D01*
X145320000Y-84627500D01*
X145257500Y-84565000D01*
X144920000Y-84565000D01*
X144620000Y-84565000D01*
X144282500Y-84565000D01*
X144220000Y-84627500D01*
X144194310Y-84627500D01*
X144194310Y-84190000D01*
X144177235Y-84104160D01*
X144128611Y-84031389D01*
X144055840Y-83982765D01*
X144015000Y-83974641D01*
X144015000Y-83915359D01*
X144055840Y-83907235D01*
X144128611Y-83858611D01*
X144177235Y-83785840D01*
X144194310Y-83700000D01*
X144194310Y-83637500D01*
X144220000Y-83637500D01*
X144220000Y-83749728D01*
X144258060Y-83841614D01*
X144328386Y-83911940D01*
X144408201Y-83945000D01*
X144328386Y-83978060D01*
X144258060Y-84048386D01*
X144220000Y-84140272D01*
X144220000Y-84252500D01*
X144282500Y-84315000D01*
X144620000Y-84315000D01*
X144620000Y-84002500D01*
X144562500Y-83945000D01*
X144620000Y-83887500D01*
X144620000Y-83575000D01*
X144920000Y-83575000D01*
X144920000Y-83887500D01*
X144977500Y-83945000D01*
X144920000Y-84002500D01*
X144920000Y-84315000D01*
X145257500Y-84315000D01*
X145320000Y-84252500D01*
X145320000Y-84140272D01*
X145281940Y-84048386D01*
X145211614Y-83978060D01*
X145131799Y-83945000D01*
X145211614Y-83911940D01*
X145281940Y-83841614D01*
X145320000Y-83749728D01*
X145320000Y-83637500D01*
X145257500Y-83575000D01*
X144920000Y-83575000D01*
X144620000Y-83575000D01*
X144282500Y-83575000D01*
X144220000Y-83637500D01*
X144194310Y-83637500D01*
X144194310Y-83200000D01*
X144184419Y-83150272D01*
X144220000Y-83150272D01*
X144220000Y-83262500D01*
X144282500Y-83325000D01*
X144620000Y-83325000D01*
X144620000Y-83012500D01*
X144920000Y-83012500D01*
X144920000Y-83325000D01*
X145257500Y-83325000D01*
X145320000Y-83262500D01*
X145320000Y-83150272D01*
X145281940Y-83058386D01*
X145211614Y-82988060D01*
X145119728Y-82950000D01*
X144982500Y-82950000D01*
X144920000Y-83012500D01*
X144620000Y-83012500D01*
X144557500Y-82950000D01*
X144420272Y-82950000D01*
X144328386Y-82988060D01*
X144258060Y-83058386D01*
X144220000Y-83150272D01*
X144184419Y-83150272D01*
X144177235Y-83114160D01*
X144128611Y-83041389D01*
X144055840Y-82992765D01*
X144021891Y-82986012D01*
X144062903Y-82945000D01*
X145517098Y-82945000D01*
X145525001Y-82952903D01*
X145525001Y-82952903D01*
G37*
X145525001Y-82952903D02*
X145525000Y-89904290D01*
X144979290Y-90450000D01*
X141020710Y-90450000D01*
X140145000Y-89574290D01*
X140145000Y-88212902D01*
X140822025Y-88889928D01*
X140841270Y-88918730D01*
X140955388Y-88994982D01*
X141056025Y-89015000D01*
X141056029Y-89015000D01*
X141090000Y-89021757D01*
X141123971Y-89015000D01*
X142131820Y-89015000D01*
X142134389Y-89021202D01*
X142308798Y-89195611D01*
X142536674Y-89290000D01*
X142783326Y-89290000D01*
X143011202Y-89195611D01*
X143185611Y-89021202D01*
X143188180Y-89015000D01*
X143946029Y-89015000D01*
X143980000Y-89021757D01*
X144013971Y-89015000D01*
X144013975Y-89015000D01*
X144114612Y-88994982D01*
X144228730Y-88918730D01*
X144247977Y-88889925D01*
X144779928Y-88357975D01*
X144808730Y-88338730D01*
X144884982Y-88224612D01*
X144905000Y-88123975D01*
X144905000Y-88123971D01*
X144911757Y-88090000D01*
X144905000Y-88056029D01*
X144905000Y-87864310D01*
X144910000Y-87864310D01*
X144995840Y-87847235D01*
X145068611Y-87798611D01*
X145117235Y-87725840D01*
X145134310Y-87640000D01*
X145134310Y-86340000D01*
X145117235Y-86254160D01*
X145115000Y-86250815D01*
X145115000Y-85895359D01*
X145155840Y-85887235D01*
X145228611Y-85838611D01*
X145277235Y-85765840D01*
X145294310Y-85680000D01*
X145294310Y-85180000D01*
X145277235Y-85094160D01*
X145228611Y-85021389D01*
X145155840Y-84972765D01*
X145070000Y-84955690D01*
X144470000Y-84955690D01*
X144384160Y-84972765D01*
X144311389Y-85021389D01*
X144262765Y-85094160D01*
X144245690Y-85180000D01*
X144245690Y-85680000D01*
X144262765Y-85765840D01*
X144311389Y-85838611D01*
X144384160Y-85887235D01*
X144425000Y-85895359D01*
X144425001Y-86115690D01*
X144210000Y-86115690D01*
X144124160Y-86132765D01*
X144051389Y-86181389D01*
X144002765Y-86254160D01*
X143985690Y-86340000D01*
X143985690Y-87640000D01*
X144002765Y-87725840D01*
X144051389Y-87798611D01*
X144124160Y-87847235D01*
X144210000Y-87864310D01*
X144215001Y-87864310D01*
X144215001Y-87947096D01*
X143837098Y-88325000D01*
X143188180Y-88325000D01*
X143185611Y-88318798D01*
X143011202Y-88144389D01*
X142783326Y-88050000D01*
X142536674Y-88050000D01*
X142308798Y-88144389D01*
X142134389Y-88318798D01*
X142131820Y-88325000D01*
X141232903Y-88325000D01*
X140645000Y-87737098D01*
X140645000Y-86325710D01*
X141020710Y-85950000D01*
X141200000Y-85950000D01*
X141219134Y-85946194D01*
X141235355Y-85935355D01*
X141715001Y-85455709D01*
X141715001Y-86056024D01*
X141708243Y-86090000D01*
X141735018Y-86224611D01*
X141792025Y-86309927D01*
X141811271Y-86338730D01*
X141840073Y-86357975D01*
X142085690Y-86603592D01*
X142085690Y-87640000D01*
X142102765Y-87725840D01*
X142151389Y-87798611D01*
X142224160Y-87847235D01*
X142310000Y-87864310D01*
X143010000Y-87864310D01*
X143095840Y-87847235D01*
X143168611Y-87798611D01*
X143217235Y-87725840D01*
X143234310Y-87640000D01*
X143234310Y-86340000D01*
X143217235Y-86254160D01*
X143168611Y-86181389D01*
X143095840Y-86132765D01*
X143010000Y-86115690D01*
X142573592Y-86115690D01*
X142405000Y-85947098D01*
X142405000Y-85617500D01*
X143120000Y-85617500D01*
X143120000Y-85729728D01*
X143158060Y-85821614D01*
X143228386Y-85891940D01*
X143320272Y-85930000D01*
X143457500Y-85930000D01*
X143520000Y-85867500D01*
X143520000Y-85555000D01*
X143820000Y-85555000D01*
X143820000Y-85867500D01*
X143882500Y-85930000D01*
X144019728Y-85930000D01*
X144111614Y-85891940D01*
X144181940Y-85821614D01*
X144220000Y-85729728D01*
X144220000Y-85617500D01*
X144157500Y-85555000D01*
X143820000Y-85555000D01*
X143520000Y-85555000D01*
X143182500Y-85555000D01*
X143120000Y-85617500D01*
X142405000Y-85617500D01*
X142405000Y-85130272D01*
X143120000Y-85130272D01*
X143120000Y-85242500D01*
X143182500Y-85305000D01*
X143520000Y-85305000D01*
X143520000Y-84992500D01*
X143820000Y-84992500D01*
X143820000Y-85305000D01*
X144157500Y-85305000D01*
X144220000Y-85242500D01*
X144220000Y-85130272D01*
X144181940Y-85038386D01*
X144111614Y-84968060D01*
X144019728Y-84930000D01*
X143882500Y-84930000D01*
X143820000Y-84992500D01*
X143520000Y-84992500D01*
X143457500Y-84930000D01*
X143320272Y-84930000D01*
X143228386Y-84968060D01*
X143158060Y-85038386D01*
X143120000Y-85130272D01*
X142405000Y-85130272D01*
X142405000Y-84318969D01*
X142411757Y-84284999D01*
X142405000Y-84251029D01*
X142405000Y-84251025D01*
X142384982Y-84150388D01*
X142354093Y-84104160D01*
X142327975Y-84065071D01*
X142327971Y-84065067D01*
X142308729Y-84036270D01*
X142279932Y-84017028D01*
X142250000Y-83987096D01*
X142250000Y-83745000D01*
X143154641Y-83745000D01*
X143162765Y-83785840D01*
X143211389Y-83858611D01*
X143284160Y-83907235D01*
X143325000Y-83915359D01*
X143325001Y-83974641D01*
X143284160Y-83982765D01*
X143211389Y-84031389D01*
X143162765Y-84104160D01*
X143145690Y-84190000D01*
X143145690Y-84690000D01*
X143162765Y-84775840D01*
X143211389Y-84848611D01*
X143284160Y-84897235D01*
X143370000Y-84914310D01*
X143970000Y-84914310D01*
X144055840Y-84897235D01*
X144128611Y-84848611D01*
X144177235Y-84775840D01*
X144194310Y-84690000D01*
X144194310Y-84627500D01*
X144220000Y-84627500D01*
X144220000Y-84739728D01*
X144258060Y-84831614D01*
X144328386Y-84901940D01*
X144420272Y-84940000D01*
X144557500Y-84940000D01*
X144620000Y-84877500D01*
X144620000Y-84565000D01*
X144920000Y-84565000D01*
X144920000Y-84877500D01*
X144982500Y-84940000D01*
X145119728Y-84940000D01*
X145211614Y-84901940D01*
X145281940Y-84831614D01*
X145320000Y-84739728D01*
X145320000Y-84627500D01*
X145257500Y-84565000D01*
X144920000Y-84565000D01*
X144620000Y-84565000D01*
X144282500Y-84565000D01*
X144220000Y-84627500D01*
X144194310Y-84627500D01*
X144194310Y-84190000D01*
X144177235Y-84104160D01*
X144128611Y-84031389D01*
X144055840Y-83982765D01*
X144015000Y-83974641D01*
X144015000Y-83915359D01*
X144055840Y-83907235D01*
X144128611Y-83858611D01*
X144177235Y-83785840D01*
X144194310Y-83700000D01*
X144194310Y-83637500D01*
X144220000Y-83637500D01*
X144220000Y-83749728D01*
X144258060Y-83841614D01*
X144328386Y-83911940D01*
X144408201Y-83945000D01*
X144328386Y-83978060D01*
X144258060Y-84048386D01*
X144220000Y-84140272D01*
X144220000Y-84252500D01*
X144282500Y-84315000D01*
X144620000Y-84315000D01*
X144620000Y-84002500D01*
X144562500Y-83945000D01*
X144620000Y-83887500D01*
X144620000Y-83575000D01*
X144920000Y-83575000D01*
X144920000Y-83887500D01*
X144977500Y-83945000D01*
X144920000Y-84002500D01*
X144920000Y-84315000D01*
X145257500Y-84315000D01*
X145320000Y-84252500D01*
X145320000Y-84140272D01*
X145281940Y-84048386D01*
X145211614Y-83978060D01*
X145131799Y-83945000D01*
X145211614Y-83911940D01*
X145281940Y-83841614D01*
X145320000Y-83749728D01*
X145320000Y-83637500D01*
X145257500Y-83575000D01*
X144920000Y-83575000D01*
X144620000Y-83575000D01*
X144282500Y-83575000D01*
X144220000Y-83637500D01*
X144194310Y-83637500D01*
X144194310Y-83200000D01*
X144184419Y-83150272D01*
X144220000Y-83150272D01*
X144220000Y-83262500D01*
X144282500Y-83325000D01*
X144620000Y-83325000D01*
X144620000Y-83012500D01*
X144920000Y-83012500D01*
X144920000Y-83325000D01*
X145257500Y-83325000D01*
X145320000Y-83262500D01*
X145320000Y-83150272D01*
X145281940Y-83058386D01*
X145211614Y-82988060D01*
X145119728Y-82950000D01*
X144982500Y-82950000D01*
X144920000Y-83012500D01*
X144620000Y-83012500D01*
X144557500Y-82950000D01*
X144420272Y-82950000D01*
X144328386Y-82988060D01*
X144258060Y-83058386D01*
X144220000Y-83150272D01*
X144184419Y-83150272D01*
X144177235Y-83114160D01*
X144128611Y-83041389D01*
X144055840Y-82992765D01*
X144021891Y-82986012D01*
X144062903Y-82945000D01*
X145517098Y-82945000D01*
X145525001Y-82952903D01*
G36*
X135274389Y-80748798D02*
X135180000Y-80976674D01*
X135180000Y-81223326D01*
X135274389Y-81451202D01*
X135405001Y-81581814D01*
X135405000Y-81834641D01*
X135364160Y-81842765D01*
X135291389Y-81891389D01*
X135242765Y-81964160D01*
X135225690Y-82050000D01*
X135225690Y-82550000D01*
X135226685Y-82555000D01*
X135200000Y-82555000D01*
X135200000Y-82487500D01*
X135137500Y-82425000D01*
X134800000Y-82425000D01*
X134800000Y-82524000D01*
X134500000Y-82524000D01*
X134500000Y-82425000D01*
X134162500Y-82425000D01*
X134100000Y-82487500D01*
X134100000Y-82555000D01*
X133442903Y-82555000D01*
X133117431Y-82229528D01*
X133120000Y-82223326D01*
X133120000Y-82000272D01*
X134100000Y-82000272D01*
X134100000Y-82112500D01*
X134162500Y-82175000D01*
X134500000Y-82175000D01*
X134500000Y-81862500D01*
X134800000Y-81862500D01*
X134800000Y-82175000D01*
X135137500Y-82175000D01*
X135200000Y-82112500D01*
X135200000Y-82000272D01*
X135161940Y-81908386D01*
X135091614Y-81838060D01*
X134999728Y-81800000D01*
X134862500Y-81800000D01*
X134800000Y-81862500D01*
X134500000Y-81862500D01*
X134437500Y-81800000D01*
X134300272Y-81800000D01*
X134208386Y-81838060D01*
X134138060Y-81908386D01*
X134100000Y-82000272D01*
X133120000Y-82000272D01*
X133120000Y-81976674D01*
X133025611Y-81748798D01*
X132851202Y-81574389D01*
X132623326Y-81480000D01*
X132376674Y-81480000D01*
X132148798Y-81574389D01*
X131974389Y-81748798D01*
X131880000Y-81976674D01*
X131880000Y-82223326D01*
X131974389Y-82451202D01*
X132148798Y-82625611D01*
X132376674Y-82720000D01*
X132623326Y-82720000D01*
X132629528Y-82717431D01*
X133032025Y-83119928D01*
X133051270Y-83148730D01*
X133165388Y-83224982D01*
X133266025Y-83245000D01*
X133266029Y-83245000D01*
X133300000Y-83251757D01*
X133333971Y-83245000D01*
X134042096Y-83245000D01*
X133330073Y-83957025D01*
X133301271Y-83976270D01*
X133282026Y-84005072D01*
X133282025Y-84005073D01*
X133225018Y-84090389D01*
X133198243Y-84225000D01*
X133203353Y-84250690D01*
X133150000Y-84250690D01*
X133064160Y-84267765D01*
X132991389Y-84316389D01*
X132942765Y-84389160D01*
X132925690Y-84475000D01*
X132925690Y-85375000D01*
X132942765Y-85460840D01*
X132991389Y-85533611D01*
X133064160Y-85582235D01*
X133150000Y-85599310D01*
X133950000Y-85599310D01*
X134035840Y-85582235D01*
X134076508Y-85555062D01*
X134108386Y-85586940D01*
X134200272Y-85625000D01*
X134387500Y-85625000D01*
X134450000Y-85562500D01*
X134450000Y-85129000D01*
X134850000Y-85129000D01*
X134850000Y-85562500D01*
X134912500Y-85625000D01*
X135099728Y-85625000D01*
X135191614Y-85586940D01*
X135261940Y-85516614D01*
X135300000Y-85424728D01*
X135300000Y-85191500D01*
X135237500Y-85129000D01*
X134850000Y-85129000D01*
X134450000Y-85129000D01*
X134426000Y-85129000D01*
X134426000Y-84721000D01*
X134450000Y-84721000D01*
X134450000Y-84287500D01*
X134850000Y-84287500D01*
X134850000Y-84721000D01*
X135237500Y-84721000D01*
X135300000Y-84658500D01*
X135300000Y-84425272D01*
X135261940Y-84333386D01*
X135191614Y-84263060D01*
X135099728Y-84225000D01*
X134912500Y-84225000D01*
X134850000Y-84287500D01*
X134450000Y-84287500D01*
X134387500Y-84225000D01*
X134200272Y-84225000D01*
X134108386Y-84263060D01*
X134076508Y-84294938D01*
X134035840Y-84267765D01*
X134001891Y-84261012D01*
X134517904Y-83745000D01*
X136363314Y-83745000D01*
X136358412Y-85053685D01*
X135432098Y-85980000D01*
X135274310Y-85980000D01*
X135274310Y-85875000D01*
X135257235Y-85789160D01*
X135208611Y-85716389D01*
X135135840Y-85667765D01*
X135050000Y-85650690D01*
X134250000Y-85650690D01*
X134164160Y-85667765D01*
X134123492Y-85694938D01*
X134091614Y-85663060D01*
X133999728Y-85625000D01*
X133812500Y-85625000D01*
X133750000Y-85687500D01*
X133750000Y-86121000D01*
X133774000Y-86121000D01*
X133774000Y-86529000D01*
X133750000Y-86529000D01*
X133750000Y-86962500D01*
X133812500Y-87025000D01*
X133999728Y-87025000D01*
X134091614Y-86986940D01*
X134123492Y-86955062D01*
X134164160Y-86982235D01*
X134250000Y-86999310D01*
X135050000Y-86999310D01*
X135135840Y-86982235D01*
X135208611Y-86933611D01*
X135257235Y-86860840D01*
X135274310Y-86775000D01*
X135274310Y-86670000D01*
X135541029Y-86670000D01*
X135575000Y-86676757D01*
X135608971Y-86670000D01*
X135608975Y-86670000D01*
X135709612Y-86649982D01*
X135823730Y-86573730D01*
X135842977Y-86544925D01*
X136354743Y-86033159D01*
X136351762Y-86829161D01*
X135929345Y-87250000D01*
X130520710Y-87250000D01*
X129862210Y-86591500D01*
X132900000Y-86591500D01*
X132900000Y-86824728D01*
X132938060Y-86916614D01*
X133008386Y-86986940D01*
X133100272Y-87025000D01*
X133287500Y-87025000D01*
X133350000Y-86962500D01*
X133350000Y-86529000D01*
X132962500Y-86529000D01*
X132900000Y-86591500D01*
X129862210Y-86591500D01*
X129725000Y-86454290D01*
X129725000Y-85825272D01*
X132900000Y-85825272D01*
X132900000Y-86058500D01*
X132962500Y-86121000D01*
X133350000Y-86121000D01*
X133350000Y-85687500D01*
X133287500Y-85625000D01*
X133100272Y-85625000D01*
X133008386Y-85663060D01*
X132938060Y-85733386D01*
X132900000Y-85825272D01*
X129725000Y-85825272D01*
X129725000Y-81543646D01*
X130521033Y-80738944D01*
X135336393Y-80686794D01*
X135274389Y-80748798D01*
X135274389Y-80748798D01*
G37*
X135274389Y-80748798D02*
X135180000Y-80976674D01*
X135180000Y-81223326D01*
X135274389Y-81451202D01*
X135405001Y-81581814D01*
X135405000Y-81834641D01*
X135364160Y-81842765D01*
X135291389Y-81891389D01*
X135242765Y-81964160D01*
X135225690Y-82050000D01*
X135225690Y-82550000D01*
X135226685Y-82555000D01*
X135200000Y-82555000D01*
X135200000Y-82487500D01*
X135137500Y-82425000D01*
X134800000Y-82425000D01*
X134800000Y-82524000D01*
X134500000Y-82524000D01*
X134500000Y-82425000D01*
X134162500Y-82425000D01*
X134100000Y-82487500D01*
X134100000Y-82555000D01*
X133442903Y-82555000D01*
X133117431Y-82229528D01*
X133120000Y-82223326D01*
X133120000Y-82000272D01*
X134100000Y-82000272D01*
X134100000Y-82112500D01*
X134162500Y-82175000D01*
X134500000Y-82175000D01*
X134500000Y-81862500D01*
X134800000Y-81862500D01*
X134800000Y-82175000D01*
X135137500Y-82175000D01*
X135200000Y-82112500D01*
X135200000Y-82000272D01*
X135161940Y-81908386D01*
X135091614Y-81838060D01*
X134999728Y-81800000D01*
X134862500Y-81800000D01*
X134800000Y-81862500D01*
X134500000Y-81862500D01*
X134437500Y-81800000D01*
X134300272Y-81800000D01*
X134208386Y-81838060D01*
X134138060Y-81908386D01*
X134100000Y-82000272D01*
X133120000Y-82000272D01*
X133120000Y-81976674D01*
X133025611Y-81748798D01*
X132851202Y-81574389D01*
X132623326Y-81480000D01*
X132376674Y-81480000D01*
X132148798Y-81574389D01*
X131974389Y-81748798D01*
X131880000Y-81976674D01*
X131880000Y-82223326D01*
X131974389Y-82451202D01*
X132148798Y-82625611D01*
X132376674Y-82720000D01*
X132623326Y-82720000D01*
X132629528Y-82717431D01*
X133032025Y-83119928D01*
X133051270Y-83148730D01*
X133165388Y-83224982D01*
X133266025Y-83245000D01*
X133266029Y-83245000D01*
X133300000Y-83251757D01*
X133333971Y-83245000D01*
X134042096Y-83245000D01*
X133330073Y-83957025D01*
X133301271Y-83976270D01*
X133282026Y-84005072D01*
X133282025Y-84005073D01*
X133225018Y-84090389D01*
X133198243Y-84225000D01*
X133203353Y-84250690D01*
X133150000Y-84250690D01*
X133064160Y-84267765D01*
X132991389Y-84316389D01*
X132942765Y-84389160D01*
X132925690Y-84475000D01*
X132925690Y-85375000D01*
X132942765Y-85460840D01*
X132991389Y-85533611D01*
X133064160Y-85582235D01*
X133150000Y-85599310D01*
X133950000Y-85599310D01*
X134035840Y-85582235D01*
X134076508Y-85555062D01*
X134108386Y-85586940D01*
X134200272Y-85625000D01*
X134387500Y-85625000D01*
X134450000Y-85562500D01*
X134450000Y-85129000D01*
X134850000Y-85129000D01*
X134850000Y-85562500D01*
X134912500Y-85625000D01*
X135099728Y-85625000D01*
X135191614Y-85586940D01*
X135261940Y-85516614D01*
X135300000Y-85424728D01*
X135300000Y-85191500D01*
X135237500Y-85129000D01*
X134850000Y-85129000D01*
X134450000Y-85129000D01*
X134426000Y-85129000D01*
X134426000Y-84721000D01*
X134450000Y-84721000D01*
X134450000Y-84287500D01*
X134850000Y-84287500D01*
X134850000Y-84721000D01*
X135237500Y-84721000D01*
X135300000Y-84658500D01*
X135300000Y-84425272D01*
X135261940Y-84333386D01*
X135191614Y-84263060D01*
X135099728Y-84225000D01*
X134912500Y-84225000D01*
X134850000Y-84287500D01*
X134450000Y-84287500D01*
X134387500Y-84225000D01*
X134200272Y-84225000D01*
X134108386Y-84263060D01*
X134076508Y-84294938D01*
X134035840Y-84267765D01*
X134001891Y-84261012D01*
X134517904Y-83745000D01*
X136363314Y-83745000D01*
X136358412Y-85053685D01*
X135432098Y-85980000D01*
X135274310Y-85980000D01*
X135274310Y-85875000D01*
X135257235Y-85789160D01*
X135208611Y-85716389D01*
X135135840Y-85667765D01*
X135050000Y-85650690D01*
X134250000Y-85650690D01*
X134164160Y-85667765D01*
X134123492Y-85694938D01*
X134091614Y-85663060D01*
X133999728Y-85625000D01*
X133812500Y-85625000D01*
X133750000Y-85687500D01*
X133750000Y-86121000D01*
X133774000Y-86121000D01*
X133774000Y-86529000D01*
X133750000Y-86529000D01*
X133750000Y-86962500D01*
X133812500Y-87025000D01*
X133999728Y-87025000D01*
X134091614Y-86986940D01*
X134123492Y-86955062D01*
X134164160Y-86982235D01*
X134250000Y-86999310D01*
X135050000Y-86999310D01*
X135135840Y-86982235D01*
X135208611Y-86933611D01*
X135257235Y-86860840D01*
X135274310Y-86775000D01*
X135274310Y-86670000D01*
X135541029Y-86670000D01*
X135575000Y-86676757D01*
X135608971Y-86670000D01*
X135608975Y-86670000D01*
X135709612Y-86649982D01*
X135823730Y-86573730D01*
X135842977Y-86544925D01*
X136354743Y-86033159D01*
X136351762Y-86829161D01*
X135929345Y-87250000D01*
X130520710Y-87250000D01*
X129862210Y-86591500D01*
X132900000Y-86591500D01*
X132900000Y-86824728D01*
X132938060Y-86916614D01*
X133008386Y-86986940D01*
X133100272Y-87025000D01*
X133287500Y-87025000D01*
X133350000Y-86962500D01*
X133350000Y-86529000D01*
X132962500Y-86529000D01*
X132900000Y-86591500D01*
X129862210Y-86591500D01*
X129725000Y-86454290D01*
X129725000Y-85825272D01*
X132900000Y-85825272D01*
X132900000Y-86058500D01*
X132962500Y-86121000D01*
X133350000Y-86121000D01*
X133350000Y-85687500D01*
X133287500Y-85625000D01*
X133100272Y-85625000D01*
X133008386Y-85663060D01*
X132938060Y-85733386D01*
X132900000Y-85825272D01*
X129725000Y-85825272D01*
X129725000Y-81543646D01*
X130521033Y-80738944D01*
X135336393Y-80686794D01*
X135274389Y-80748798D01*
G04 #@! TD*
M02*
