G04 #@! TF.GenerationSoftware,KiCad,Pcbnew,(5.0.1)-3*
G04 #@! TF.CreationDate,2019-04-14T21:22:41-05:00*
G04 #@! TF.ProjectId,transceiver,7472616E736365697665722E6B696361,rev?*
G04 #@! TF.SameCoordinates,Original*
G04 #@! TF.FileFunction,Copper,L2,Bot,Signal*
G04 #@! TF.FilePolarity,Positive*
%FSLAX46Y46*%
G04 Gerber Fmt 4.6, Leading zero omitted, Abs format (unit mm)*
G04 Created by KiCad (PCBNEW (5.0.1)-3) date 4/14/2019 21:22:41*
%MOMM*%
%LPD*%
G01*
G04 APERTURE LIST*
G04 #@! TA.AperFunction,Conductor*
%ADD10C,0.100000*%
G04 #@! TD*
G04 #@! TA.AperFunction,ComponentPad*
%ADD11C,1.720000*%
G04 #@! TD*
G04 #@! TA.AperFunction,ComponentPad*
%ADD12O,1.720000X2.200000*%
G04 #@! TD*
G04 #@! TA.AperFunction,SMDPad,CuDef*
%ADD13R,1.500000X5.080000*%
G04 #@! TD*
G04 #@! TA.AperFunction,ViaPad*
%ADD14C,0.800000*%
G04 #@! TD*
G04 #@! TA.AperFunction,Conductor*
%ADD15C,0.250000*%
G04 #@! TD*
G04 APERTURE END LIST*
D10*
G04 #@! TO.N,NRESET*
G04 #@! TO.C,J2*
G36*
X132972147Y-93362071D02*
X133013889Y-93368262D01*
X133054822Y-93378516D01*
X133094554Y-93392732D01*
X133132701Y-93410774D01*
X133168895Y-93432468D01*
X133202789Y-93457606D01*
X133234056Y-93485944D01*
X133262394Y-93517211D01*
X133287532Y-93551105D01*
X133309226Y-93587299D01*
X133327268Y-93625446D01*
X133341484Y-93665178D01*
X133351738Y-93706111D01*
X133357929Y-93747853D01*
X133360000Y-93790000D01*
X133360000Y-95130000D01*
X133357929Y-95172147D01*
X133351738Y-95213889D01*
X133341484Y-95254822D01*
X133327268Y-95294554D01*
X133309226Y-95332701D01*
X133287532Y-95368895D01*
X133262394Y-95402789D01*
X133234056Y-95434056D01*
X133202789Y-95462394D01*
X133168895Y-95487532D01*
X133132701Y-95509226D01*
X133094554Y-95527268D01*
X133054822Y-95541484D01*
X133013889Y-95551738D01*
X132972147Y-95557929D01*
X132930000Y-95560000D01*
X132070000Y-95560000D01*
X132027853Y-95557929D01*
X131986111Y-95551738D01*
X131945178Y-95541484D01*
X131905446Y-95527268D01*
X131867299Y-95509226D01*
X131831105Y-95487532D01*
X131797211Y-95462394D01*
X131765944Y-95434056D01*
X131737606Y-95402789D01*
X131712468Y-95368895D01*
X131690774Y-95332701D01*
X131672732Y-95294554D01*
X131658516Y-95254822D01*
X131648262Y-95213889D01*
X131642071Y-95172147D01*
X131640000Y-95130000D01*
X131640000Y-93790000D01*
X131642071Y-93747853D01*
X131648262Y-93706111D01*
X131658516Y-93665178D01*
X131672732Y-93625446D01*
X131690774Y-93587299D01*
X131712468Y-93551105D01*
X131737606Y-93517211D01*
X131765944Y-93485944D01*
X131797211Y-93457606D01*
X131831105Y-93432468D01*
X131867299Y-93410774D01*
X131905446Y-93392732D01*
X131945178Y-93378516D01*
X131986111Y-93368262D01*
X132027853Y-93362071D01*
X132070000Y-93360000D01*
X132930000Y-93360000D01*
X132972147Y-93362071D01*
X132972147Y-93362071D01*
G37*
D11*
G04 #@! TD*
G04 #@! TO.P,J2,1*
G04 #@! TO.N,NRESET*
X132500000Y-94460000D03*
D12*
G04 #@! TO.P,J2,2*
G04 #@! TO.N,GND*
X132500000Y-97000000D03*
G04 #@! TO.P,J2,3*
G04 #@! TO.N,BUSY*
X135040000Y-94460000D03*
G04 #@! TO.P,J2,4*
G04 #@! TO.N,Net-(J2-Pad4)*
X135040000Y-97000000D03*
G04 #@! TO.P,J2,5*
G04 #@! TO.N,DIO1*
X137580000Y-94460000D03*
G04 #@! TO.P,J2,6*
G04 #@! TO.N,NSS_CTS*
X137580000Y-97000000D03*
G04 #@! TO.P,J2,7*
G04 #@! TO.N,DIO2*
X140120000Y-94460000D03*
G04 #@! TO.P,J2,8*
G04 #@! TO.N,SCK_RTS*
X140120000Y-97000000D03*
G04 #@! TO.P,J2,9*
G04 #@! TO.N,DIO3*
X142660000Y-94460000D03*
G04 #@! TO.P,J2,10*
G04 #@! TO.N,MOSI_RX*
X142660000Y-97000000D03*
G04 #@! TO.P,J2,11*
G04 #@! TO.N,+3V3*
X145200000Y-94460000D03*
G04 #@! TO.P,J2,12*
G04 #@! TO.N,MISO_TX*
X145200000Y-97000000D03*
G04 #@! TD*
D13*
G04 #@! TO.P,J1,2*
G04 #@! TO.N,GND*
X142550000Y-66100000D03*
X134050000Y-66100000D03*
G04 #@! TD*
D14*
G04 #@! TO.N,Net-(C1-Pad1)*
X135800000Y-81100000D03*
X142660000Y-88670000D03*
G04 #@! TO.N,GND*
X139050000Y-83150000D03*
X139900000Y-83150000D03*
X139050000Y-82300000D03*
X138200000Y-83150000D03*
X139050000Y-84000000D03*
X141300000Y-87000000D03*
X135900000Y-84800000D03*
X142000000Y-90000000D03*
X131600000Y-86300000D03*
X134000000Y-70000000D03*
X142500000Y-70000000D03*
X133000000Y-73500000D03*
X134000000Y-73500000D03*
X142500000Y-73500000D03*
X141500000Y-73500000D03*
X141500000Y-74500000D03*
X142500000Y-74500000D03*
X133000000Y-74500000D03*
X134000000Y-74500000D03*
X133000000Y-75500000D03*
X134000000Y-75500000D03*
X141500000Y-75500000D03*
X142500000Y-75500000D03*
G04 #@! TO.N,NRESET*
X132500000Y-82100000D03*
G04 #@! TD*
D15*
G04 #@! TO.N,Net-(C1-Pad1)*
X135800000Y-81665685D02*
X135800000Y-81100000D01*
X135790000Y-81675685D02*
X135800000Y-81665685D01*
X135790000Y-83590000D02*
X135790000Y-81675685D01*
X140470001Y-88270001D02*
X135790000Y-83590000D01*
X142260001Y-88270001D02*
X140470001Y-88270001D01*
X142660000Y-88670000D02*
X142260001Y-88270001D01*
G04 #@! TO.N,NRESET*
X132500000Y-82100000D02*
X132500000Y-86000000D01*
X132500000Y-86000000D02*
X134500000Y-88000000D01*
X134500000Y-92460000D02*
X132500000Y-94460000D01*
X134500000Y-88000000D02*
X134500000Y-92460000D01*
G04 #@! TD*
D10*
G04 #@! TO.N,GND*
G36*
X148125001Y-100625000D02*
X129875000Y-100625000D01*
X129875000Y-93790000D01*
X131338549Y-93790000D01*
X131338549Y-95130000D01*
X131352604Y-95272699D01*
X131394227Y-95409914D01*
X131461821Y-95536372D01*
X131552786Y-95647214D01*
X131663628Y-95738179D01*
X131790086Y-95805773D01*
X131927301Y-95847396D01*
X132070000Y-95861451D01*
X132930000Y-95861451D01*
X133072699Y-95847396D01*
X133209914Y-95805773D01*
X133336372Y-95738179D01*
X133447214Y-95647214D01*
X133538179Y-95536372D01*
X133605773Y-95409914D01*
X133647396Y-95272699D01*
X133661451Y-95130000D01*
X133661451Y-94163022D01*
X133880000Y-94163022D01*
X133880000Y-94756979D01*
X133896785Y-94927400D01*
X133963115Y-95146060D01*
X134070830Y-95347579D01*
X134215789Y-95524212D01*
X134392422Y-95669171D01*
X134506225Y-95730000D01*
X134392421Y-95790829D01*
X134215788Y-95935788D01*
X134070829Y-96112422D01*
X133963115Y-96313941D01*
X133896785Y-96532601D01*
X133880000Y-96703022D01*
X133880000Y-97296979D01*
X133896785Y-97467400D01*
X133963115Y-97686060D01*
X134070830Y-97887579D01*
X134215789Y-98064212D01*
X134392422Y-98209171D01*
X134593941Y-98316885D01*
X134812601Y-98383215D01*
X135040000Y-98405612D01*
X135267400Y-98383215D01*
X135486060Y-98316885D01*
X135687579Y-98209171D01*
X135864212Y-98064212D01*
X136009171Y-97887579D01*
X136116885Y-97686059D01*
X136183215Y-97467399D01*
X136200000Y-97296978D01*
X136200000Y-96703021D01*
X136183215Y-96532600D01*
X136116885Y-96313940D01*
X136009171Y-96112421D01*
X135864212Y-95935788D01*
X135687578Y-95790829D01*
X135573775Y-95730000D01*
X135687579Y-95669171D01*
X135864212Y-95524212D01*
X136009171Y-95347579D01*
X136116885Y-95146059D01*
X136183215Y-94927399D01*
X136200000Y-94756978D01*
X136200000Y-94163022D01*
X136420000Y-94163022D01*
X136420000Y-94756979D01*
X136436785Y-94927400D01*
X136503115Y-95146060D01*
X136610830Y-95347579D01*
X136755789Y-95524212D01*
X136932422Y-95669171D01*
X137046225Y-95730000D01*
X136932421Y-95790829D01*
X136755788Y-95935788D01*
X136610829Y-96112422D01*
X136503115Y-96313941D01*
X136436785Y-96532601D01*
X136420000Y-96703022D01*
X136420000Y-97296979D01*
X136436785Y-97467400D01*
X136503115Y-97686060D01*
X136610830Y-97887579D01*
X136755789Y-98064212D01*
X136932422Y-98209171D01*
X137133941Y-98316885D01*
X137352601Y-98383215D01*
X137580000Y-98405612D01*
X137807400Y-98383215D01*
X138026060Y-98316885D01*
X138227579Y-98209171D01*
X138404212Y-98064212D01*
X138549171Y-97887579D01*
X138656885Y-97686059D01*
X138723215Y-97467399D01*
X138740000Y-97296978D01*
X138740000Y-96703021D01*
X138723215Y-96532600D01*
X138656885Y-96313940D01*
X138549171Y-96112421D01*
X138404212Y-95935788D01*
X138227578Y-95790829D01*
X138113775Y-95730000D01*
X138227579Y-95669171D01*
X138404212Y-95524212D01*
X138549171Y-95347579D01*
X138656885Y-95146059D01*
X138723215Y-94927399D01*
X138740000Y-94756978D01*
X138740000Y-94163022D01*
X138960000Y-94163022D01*
X138960000Y-94756979D01*
X138976785Y-94927400D01*
X139043115Y-95146060D01*
X139150830Y-95347579D01*
X139295789Y-95524212D01*
X139472422Y-95669171D01*
X139586225Y-95730000D01*
X139472421Y-95790829D01*
X139295788Y-95935788D01*
X139150829Y-96112422D01*
X139043115Y-96313941D01*
X138976785Y-96532601D01*
X138960000Y-96703022D01*
X138960000Y-97296979D01*
X138976785Y-97467400D01*
X139043115Y-97686060D01*
X139150830Y-97887579D01*
X139295789Y-98064212D01*
X139472422Y-98209171D01*
X139673941Y-98316885D01*
X139892601Y-98383215D01*
X140120000Y-98405612D01*
X140347400Y-98383215D01*
X140566060Y-98316885D01*
X140767579Y-98209171D01*
X140944212Y-98064212D01*
X141089171Y-97887579D01*
X141196885Y-97686059D01*
X141263215Y-97467399D01*
X141280000Y-97296978D01*
X141280000Y-96703021D01*
X141263215Y-96532600D01*
X141196885Y-96313940D01*
X141089171Y-96112421D01*
X140944212Y-95935788D01*
X140767578Y-95790829D01*
X140653775Y-95730000D01*
X140767579Y-95669171D01*
X140944212Y-95524212D01*
X141089171Y-95347579D01*
X141196885Y-95146059D01*
X141263215Y-94927399D01*
X141280000Y-94756978D01*
X141280000Y-94163022D01*
X141500000Y-94163022D01*
X141500000Y-94756979D01*
X141516785Y-94927400D01*
X141583115Y-95146060D01*
X141690830Y-95347579D01*
X141835789Y-95524212D01*
X142012422Y-95669171D01*
X142126225Y-95730000D01*
X142012421Y-95790829D01*
X141835788Y-95935788D01*
X141690829Y-96112422D01*
X141583115Y-96313941D01*
X141516785Y-96532601D01*
X141500000Y-96703022D01*
X141500000Y-97296979D01*
X141516785Y-97467400D01*
X141583115Y-97686060D01*
X141690830Y-97887579D01*
X141835789Y-98064212D01*
X142012422Y-98209171D01*
X142213941Y-98316885D01*
X142432601Y-98383215D01*
X142660000Y-98405612D01*
X142887400Y-98383215D01*
X143106060Y-98316885D01*
X143307579Y-98209171D01*
X143484212Y-98064212D01*
X143629171Y-97887579D01*
X143736885Y-97686059D01*
X143803215Y-97467399D01*
X143820000Y-97296978D01*
X143820000Y-96703021D01*
X143803215Y-96532600D01*
X143736885Y-96313940D01*
X143629171Y-96112421D01*
X143484212Y-95935788D01*
X143307578Y-95790829D01*
X143193775Y-95730000D01*
X143307579Y-95669171D01*
X143484212Y-95524212D01*
X143629171Y-95347579D01*
X143736885Y-95146059D01*
X143803215Y-94927399D01*
X143820000Y-94756978D01*
X143820000Y-94163022D01*
X144040000Y-94163022D01*
X144040000Y-94756979D01*
X144056785Y-94927400D01*
X144123115Y-95146060D01*
X144230830Y-95347579D01*
X144375789Y-95524212D01*
X144552422Y-95669171D01*
X144666225Y-95730000D01*
X144552421Y-95790829D01*
X144375788Y-95935788D01*
X144230829Y-96112422D01*
X144123115Y-96313941D01*
X144056785Y-96532601D01*
X144040000Y-96703022D01*
X144040000Y-97296979D01*
X144056785Y-97467400D01*
X144123115Y-97686060D01*
X144230830Y-97887579D01*
X144375789Y-98064212D01*
X144552422Y-98209171D01*
X144753941Y-98316885D01*
X144972601Y-98383215D01*
X145200000Y-98405612D01*
X145427400Y-98383215D01*
X145646060Y-98316885D01*
X145847579Y-98209171D01*
X146024212Y-98064212D01*
X146169171Y-97887579D01*
X146276885Y-97686059D01*
X146343215Y-97467399D01*
X146360000Y-97296978D01*
X146360000Y-96703021D01*
X146343215Y-96532600D01*
X146276885Y-96313940D01*
X146169171Y-96112421D01*
X146024212Y-95935788D01*
X145847578Y-95790829D01*
X145733775Y-95730000D01*
X145847579Y-95669171D01*
X146024212Y-95524212D01*
X146169171Y-95347579D01*
X146276885Y-95146059D01*
X146343215Y-94927399D01*
X146360000Y-94756978D01*
X146360000Y-94163021D01*
X146343215Y-93992600D01*
X146276885Y-93773940D01*
X146169171Y-93572421D01*
X146024212Y-93395788D01*
X145847578Y-93250829D01*
X145646059Y-93143115D01*
X145427399Y-93076785D01*
X145200000Y-93054388D01*
X144972600Y-93076785D01*
X144753940Y-93143115D01*
X144552421Y-93250829D01*
X144375788Y-93395788D01*
X144230829Y-93572422D01*
X144123115Y-93773941D01*
X144056785Y-93992601D01*
X144040000Y-94163022D01*
X143820000Y-94163022D01*
X143820000Y-94163021D01*
X143803215Y-93992600D01*
X143736885Y-93773940D01*
X143629171Y-93572421D01*
X143484212Y-93395788D01*
X143307578Y-93250829D01*
X143106059Y-93143115D01*
X142887399Y-93076785D01*
X142660000Y-93054388D01*
X142432600Y-93076785D01*
X142213940Y-93143115D01*
X142012421Y-93250829D01*
X141835788Y-93395788D01*
X141690829Y-93572422D01*
X141583115Y-93773941D01*
X141516785Y-93992601D01*
X141500000Y-94163022D01*
X141280000Y-94163022D01*
X141280000Y-94163021D01*
X141263215Y-93992600D01*
X141196885Y-93773940D01*
X141089171Y-93572421D01*
X140944212Y-93395788D01*
X140767578Y-93250829D01*
X140566059Y-93143115D01*
X140347399Y-93076785D01*
X140120000Y-93054388D01*
X139892600Y-93076785D01*
X139673940Y-93143115D01*
X139472421Y-93250829D01*
X139295788Y-93395788D01*
X139150829Y-93572422D01*
X139043115Y-93773941D01*
X138976785Y-93992601D01*
X138960000Y-94163022D01*
X138740000Y-94163022D01*
X138740000Y-94163021D01*
X138723215Y-93992600D01*
X138656885Y-93773940D01*
X138549171Y-93572421D01*
X138404212Y-93395788D01*
X138227578Y-93250829D01*
X138026059Y-93143115D01*
X137807399Y-93076785D01*
X137580000Y-93054388D01*
X137352600Y-93076785D01*
X137133940Y-93143115D01*
X136932421Y-93250829D01*
X136755788Y-93395788D01*
X136610829Y-93572422D01*
X136503115Y-93773941D01*
X136436785Y-93992601D01*
X136420000Y-94163022D01*
X136200000Y-94163022D01*
X136200000Y-94163021D01*
X136183215Y-93992600D01*
X136116885Y-93773940D01*
X136009171Y-93572421D01*
X135864212Y-93395788D01*
X135687578Y-93250829D01*
X135486059Y-93143115D01*
X135267399Y-93076785D01*
X135040000Y-93054388D01*
X134812600Y-93076785D01*
X134593940Y-93143115D01*
X134392421Y-93250829D01*
X134215788Y-93395788D01*
X134070829Y-93572422D01*
X133963115Y-93773941D01*
X133896785Y-93992601D01*
X133880000Y-94163022D01*
X133661451Y-94163022D01*
X133661451Y-93899589D01*
X134785762Y-92775279D01*
X134801974Y-92761974D01*
X134855084Y-92697260D01*
X134894548Y-92623427D01*
X134918850Y-92543314D01*
X134925000Y-92480874D01*
X134925000Y-92480868D01*
X134927055Y-92460001D01*
X134925000Y-92439134D01*
X134925000Y-88020866D01*
X134927055Y-87999999D01*
X134925000Y-87979132D01*
X134925000Y-87979126D01*
X134918850Y-87916686D01*
X134918314Y-87914917D01*
X134898970Y-87851151D01*
X134894548Y-87836573D01*
X134855084Y-87762740D01*
X134801974Y-87698026D01*
X134785763Y-87684722D01*
X132925000Y-85823960D01*
X132925000Y-82657907D01*
X132946224Y-82643726D01*
X133043726Y-82546224D01*
X133120332Y-82431574D01*
X133173099Y-82304182D01*
X133200000Y-82168944D01*
X133200000Y-82031056D01*
X133173099Y-81895818D01*
X133120332Y-81768426D01*
X133043726Y-81653776D01*
X132946224Y-81556274D01*
X132831574Y-81479668D01*
X132704182Y-81426901D01*
X132568944Y-81400000D01*
X132431056Y-81400000D01*
X132295818Y-81426901D01*
X132168426Y-81479668D01*
X132053776Y-81556274D01*
X131956274Y-81653776D01*
X131879668Y-81768426D01*
X131826901Y-81895818D01*
X131800000Y-82031056D01*
X131800000Y-82168944D01*
X131826901Y-82304182D01*
X131879668Y-82431574D01*
X131956274Y-82546224D01*
X132053776Y-82643726D01*
X132075000Y-82657907D01*
X132075001Y-85979123D01*
X132072945Y-86000000D01*
X132081150Y-86083314D01*
X132105453Y-86163427D01*
X132144917Y-86237260D01*
X132198027Y-86301974D01*
X132214239Y-86315279D01*
X134075000Y-88176041D01*
X134075001Y-92283958D01*
X133232604Y-93126355D01*
X133209914Y-93114227D01*
X133072699Y-93072604D01*
X132930000Y-93058549D01*
X132070000Y-93058549D01*
X131927301Y-93072604D01*
X131790086Y-93114227D01*
X131663628Y-93181821D01*
X131552786Y-93272786D01*
X131461821Y-93383628D01*
X131394227Y-93510086D01*
X131352604Y-93647301D01*
X131338549Y-93790000D01*
X129875000Y-93790000D01*
X129875000Y-89026458D01*
X130105185Y-89026458D01*
X130146410Y-89393993D01*
X130258239Y-89746520D01*
X130436410Y-90070612D01*
X130674138Y-90353926D01*
X130962368Y-90585668D01*
X131290121Y-90757013D01*
X131644912Y-90861434D01*
X132013229Y-90894954D01*
X132381043Y-90856295D01*
X132734342Y-90746931D01*
X133059671Y-90571026D01*
X133344637Y-90335282D01*
X133578386Y-90048677D01*
X133752015Y-89722128D01*
X133858910Y-89368074D01*
X133895000Y-89000000D01*
X133894261Y-88947088D01*
X133847908Y-88580166D01*
X133731169Y-88229234D01*
X133548490Y-87907661D01*
X133306829Y-87627694D01*
X133015392Y-87399999D01*
X132685279Y-87233246D01*
X132329063Y-87133789D01*
X131960314Y-87105416D01*
X131593077Y-87149206D01*
X131241339Y-87263493D01*
X130918498Y-87443922D01*
X130636851Y-87683622D01*
X130407126Y-87973463D01*
X130238074Y-88302404D01*
X130136132Y-88657916D01*
X130105185Y-89026458D01*
X129875000Y-89026458D01*
X129875000Y-81031056D01*
X135100000Y-81031056D01*
X135100000Y-81168944D01*
X135126901Y-81304182D01*
X135179668Y-81431574D01*
X135256274Y-81546224D01*
X135353776Y-81643726D01*
X135365332Y-81651447D01*
X135362945Y-81675685D01*
X135365001Y-81696562D01*
X135365000Y-83569133D01*
X135362945Y-83590000D01*
X135365000Y-83610867D01*
X135365000Y-83610873D01*
X135371150Y-83673313D01*
X135395452Y-83753426D01*
X135434916Y-83827259D01*
X135488026Y-83891974D01*
X135504244Y-83905284D01*
X140154720Y-88555761D01*
X140168027Y-88571975D01*
X140232741Y-88625085D01*
X140306574Y-88664549D01*
X140362384Y-88681479D01*
X140386686Y-88688851D01*
X140394328Y-88689604D01*
X140449127Y-88695001D01*
X140449134Y-88695001D01*
X140470001Y-88697056D01*
X140490868Y-88695001D01*
X141960000Y-88695001D01*
X141960000Y-88738944D01*
X141986901Y-88874182D01*
X142039668Y-89001574D01*
X142116274Y-89116224D01*
X142213776Y-89213726D01*
X142328426Y-89290332D01*
X142455818Y-89343099D01*
X142591056Y-89370000D01*
X142728944Y-89370000D01*
X142864182Y-89343099D01*
X142991574Y-89290332D01*
X143106224Y-89213726D01*
X143203726Y-89116224D01*
X143280332Y-89001574D01*
X143333099Y-88874182D01*
X143360000Y-88738944D01*
X143360000Y-88601056D01*
X143333099Y-88465818D01*
X143280332Y-88338426D01*
X143203726Y-88223776D01*
X143106224Y-88126274D01*
X142991574Y-88049668D01*
X142864182Y-87996901D01*
X142728944Y-87970000D01*
X142591056Y-87970000D01*
X142567448Y-87974696D01*
X142561975Y-87968027D01*
X142497261Y-87914917D01*
X142423428Y-87875453D01*
X142343315Y-87851151D01*
X142280875Y-87845001D01*
X142280868Y-87845001D01*
X142260001Y-87842946D01*
X142239134Y-87845001D01*
X140646042Y-87845001D01*
X136215000Y-83413960D01*
X136215000Y-81761691D01*
X136218850Y-81748999D01*
X136225000Y-81686559D01*
X136225000Y-81686552D01*
X136227055Y-81665686D01*
X136226209Y-81657099D01*
X136246224Y-81643726D01*
X136343726Y-81546224D01*
X136420332Y-81431574D01*
X136473099Y-81304182D01*
X136500000Y-81168944D01*
X136500000Y-81031056D01*
X136473099Y-80895818D01*
X136420332Y-80768426D01*
X136343726Y-80653776D01*
X136246224Y-80556274D01*
X136131574Y-80479668D01*
X136004182Y-80426901D01*
X135868944Y-80400000D01*
X135731056Y-80400000D01*
X135595818Y-80426901D01*
X135468426Y-80479668D01*
X135353776Y-80556274D01*
X135256274Y-80653776D01*
X135179668Y-80768426D01*
X135126901Y-80895818D01*
X135100000Y-81031056D01*
X129875000Y-81031056D01*
X129875000Y-65526458D01*
X144105185Y-65526458D01*
X144146410Y-65893993D01*
X144258239Y-66246520D01*
X144436410Y-66570612D01*
X144674138Y-66853926D01*
X144962368Y-67085668D01*
X145290121Y-67257013D01*
X145644912Y-67361434D01*
X146013229Y-67394954D01*
X146381043Y-67356295D01*
X146734342Y-67246931D01*
X147059671Y-67071026D01*
X147344637Y-66835282D01*
X147578386Y-66548677D01*
X147752015Y-66222128D01*
X147858910Y-65868074D01*
X147895000Y-65500000D01*
X147894261Y-65447088D01*
X147847908Y-65080166D01*
X147731169Y-64729234D01*
X147548490Y-64407661D01*
X147306829Y-64127694D01*
X147015392Y-63899999D01*
X146685279Y-63733246D01*
X146329063Y-63633789D01*
X145960314Y-63605416D01*
X145593077Y-63649206D01*
X145241339Y-63763493D01*
X144918498Y-63943922D01*
X144636851Y-64183622D01*
X144407126Y-64473463D01*
X144238074Y-64802404D01*
X144136132Y-65157916D01*
X144105185Y-65526458D01*
X129875000Y-65526458D01*
X129875000Y-63375000D01*
X148125000Y-63375000D01*
X148125001Y-100625000D01*
X148125001Y-100625000D01*
G37*
X148125001Y-100625000D02*
X129875000Y-100625000D01*
X129875000Y-93790000D01*
X131338549Y-93790000D01*
X131338549Y-95130000D01*
X131352604Y-95272699D01*
X131394227Y-95409914D01*
X131461821Y-95536372D01*
X131552786Y-95647214D01*
X131663628Y-95738179D01*
X131790086Y-95805773D01*
X131927301Y-95847396D01*
X132070000Y-95861451D01*
X132930000Y-95861451D01*
X133072699Y-95847396D01*
X133209914Y-95805773D01*
X133336372Y-95738179D01*
X133447214Y-95647214D01*
X133538179Y-95536372D01*
X133605773Y-95409914D01*
X133647396Y-95272699D01*
X133661451Y-95130000D01*
X133661451Y-94163022D01*
X133880000Y-94163022D01*
X133880000Y-94756979D01*
X133896785Y-94927400D01*
X133963115Y-95146060D01*
X134070830Y-95347579D01*
X134215789Y-95524212D01*
X134392422Y-95669171D01*
X134506225Y-95730000D01*
X134392421Y-95790829D01*
X134215788Y-95935788D01*
X134070829Y-96112422D01*
X133963115Y-96313941D01*
X133896785Y-96532601D01*
X133880000Y-96703022D01*
X133880000Y-97296979D01*
X133896785Y-97467400D01*
X133963115Y-97686060D01*
X134070830Y-97887579D01*
X134215789Y-98064212D01*
X134392422Y-98209171D01*
X134593941Y-98316885D01*
X134812601Y-98383215D01*
X135040000Y-98405612D01*
X135267400Y-98383215D01*
X135486060Y-98316885D01*
X135687579Y-98209171D01*
X135864212Y-98064212D01*
X136009171Y-97887579D01*
X136116885Y-97686059D01*
X136183215Y-97467399D01*
X136200000Y-97296978D01*
X136200000Y-96703021D01*
X136183215Y-96532600D01*
X136116885Y-96313940D01*
X136009171Y-96112421D01*
X135864212Y-95935788D01*
X135687578Y-95790829D01*
X135573775Y-95730000D01*
X135687579Y-95669171D01*
X135864212Y-95524212D01*
X136009171Y-95347579D01*
X136116885Y-95146059D01*
X136183215Y-94927399D01*
X136200000Y-94756978D01*
X136200000Y-94163022D01*
X136420000Y-94163022D01*
X136420000Y-94756979D01*
X136436785Y-94927400D01*
X136503115Y-95146060D01*
X136610830Y-95347579D01*
X136755789Y-95524212D01*
X136932422Y-95669171D01*
X137046225Y-95730000D01*
X136932421Y-95790829D01*
X136755788Y-95935788D01*
X136610829Y-96112422D01*
X136503115Y-96313941D01*
X136436785Y-96532601D01*
X136420000Y-96703022D01*
X136420000Y-97296979D01*
X136436785Y-97467400D01*
X136503115Y-97686060D01*
X136610830Y-97887579D01*
X136755789Y-98064212D01*
X136932422Y-98209171D01*
X137133941Y-98316885D01*
X137352601Y-98383215D01*
X137580000Y-98405612D01*
X137807400Y-98383215D01*
X138026060Y-98316885D01*
X138227579Y-98209171D01*
X138404212Y-98064212D01*
X138549171Y-97887579D01*
X138656885Y-97686059D01*
X138723215Y-97467399D01*
X138740000Y-97296978D01*
X138740000Y-96703021D01*
X138723215Y-96532600D01*
X138656885Y-96313940D01*
X138549171Y-96112421D01*
X138404212Y-95935788D01*
X138227578Y-95790829D01*
X138113775Y-95730000D01*
X138227579Y-95669171D01*
X138404212Y-95524212D01*
X138549171Y-95347579D01*
X138656885Y-95146059D01*
X138723215Y-94927399D01*
X138740000Y-94756978D01*
X138740000Y-94163022D01*
X138960000Y-94163022D01*
X138960000Y-94756979D01*
X138976785Y-94927400D01*
X139043115Y-95146060D01*
X139150830Y-95347579D01*
X139295789Y-95524212D01*
X139472422Y-95669171D01*
X139586225Y-95730000D01*
X139472421Y-95790829D01*
X139295788Y-95935788D01*
X139150829Y-96112422D01*
X139043115Y-96313941D01*
X138976785Y-96532601D01*
X138960000Y-96703022D01*
X138960000Y-97296979D01*
X138976785Y-97467400D01*
X139043115Y-97686060D01*
X139150830Y-97887579D01*
X139295789Y-98064212D01*
X139472422Y-98209171D01*
X139673941Y-98316885D01*
X139892601Y-98383215D01*
X140120000Y-98405612D01*
X140347400Y-98383215D01*
X140566060Y-98316885D01*
X140767579Y-98209171D01*
X140944212Y-98064212D01*
X141089171Y-97887579D01*
X141196885Y-97686059D01*
X141263215Y-97467399D01*
X141280000Y-97296978D01*
X141280000Y-96703021D01*
X141263215Y-96532600D01*
X141196885Y-96313940D01*
X141089171Y-96112421D01*
X140944212Y-95935788D01*
X140767578Y-95790829D01*
X140653775Y-95730000D01*
X140767579Y-95669171D01*
X140944212Y-95524212D01*
X141089171Y-95347579D01*
X141196885Y-95146059D01*
X141263215Y-94927399D01*
X141280000Y-94756978D01*
X141280000Y-94163022D01*
X141500000Y-94163022D01*
X141500000Y-94756979D01*
X141516785Y-94927400D01*
X141583115Y-95146060D01*
X141690830Y-95347579D01*
X141835789Y-95524212D01*
X142012422Y-95669171D01*
X142126225Y-95730000D01*
X142012421Y-95790829D01*
X141835788Y-95935788D01*
X141690829Y-96112422D01*
X141583115Y-96313941D01*
X141516785Y-96532601D01*
X141500000Y-96703022D01*
X141500000Y-97296979D01*
X141516785Y-97467400D01*
X141583115Y-97686060D01*
X141690830Y-97887579D01*
X141835789Y-98064212D01*
X142012422Y-98209171D01*
X142213941Y-98316885D01*
X142432601Y-98383215D01*
X142660000Y-98405612D01*
X142887400Y-98383215D01*
X143106060Y-98316885D01*
X143307579Y-98209171D01*
X143484212Y-98064212D01*
X143629171Y-97887579D01*
X143736885Y-97686059D01*
X143803215Y-97467399D01*
X143820000Y-97296978D01*
X143820000Y-96703021D01*
X143803215Y-96532600D01*
X143736885Y-96313940D01*
X143629171Y-96112421D01*
X143484212Y-95935788D01*
X143307578Y-95790829D01*
X143193775Y-95730000D01*
X143307579Y-95669171D01*
X143484212Y-95524212D01*
X143629171Y-95347579D01*
X143736885Y-95146059D01*
X143803215Y-94927399D01*
X143820000Y-94756978D01*
X143820000Y-94163022D01*
X144040000Y-94163022D01*
X144040000Y-94756979D01*
X144056785Y-94927400D01*
X144123115Y-95146060D01*
X144230830Y-95347579D01*
X144375789Y-95524212D01*
X144552422Y-95669171D01*
X144666225Y-95730000D01*
X144552421Y-95790829D01*
X144375788Y-95935788D01*
X144230829Y-96112422D01*
X144123115Y-96313941D01*
X144056785Y-96532601D01*
X144040000Y-96703022D01*
X144040000Y-97296979D01*
X144056785Y-97467400D01*
X144123115Y-97686060D01*
X144230830Y-97887579D01*
X144375789Y-98064212D01*
X144552422Y-98209171D01*
X144753941Y-98316885D01*
X144972601Y-98383215D01*
X145200000Y-98405612D01*
X145427400Y-98383215D01*
X145646060Y-98316885D01*
X145847579Y-98209171D01*
X146024212Y-98064212D01*
X146169171Y-97887579D01*
X146276885Y-97686059D01*
X146343215Y-97467399D01*
X146360000Y-97296978D01*
X146360000Y-96703021D01*
X146343215Y-96532600D01*
X146276885Y-96313940D01*
X146169171Y-96112421D01*
X146024212Y-95935788D01*
X145847578Y-95790829D01*
X145733775Y-95730000D01*
X145847579Y-95669171D01*
X146024212Y-95524212D01*
X146169171Y-95347579D01*
X146276885Y-95146059D01*
X146343215Y-94927399D01*
X146360000Y-94756978D01*
X146360000Y-94163021D01*
X146343215Y-93992600D01*
X146276885Y-93773940D01*
X146169171Y-93572421D01*
X146024212Y-93395788D01*
X145847578Y-93250829D01*
X145646059Y-93143115D01*
X145427399Y-93076785D01*
X145200000Y-93054388D01*
X144972600Y-93076785D01*
X144753940Y-93143115D01*
X144552421Y-93250829D01*
X144375788Y-93395788D01*
X144230829Y-93572422D01*
X144123115Y-93773941D01*
X144056785Y-93992601D01*
X144040000Y-94163022D01*
X143820000Y-94163022D01*
X143820000Y-94163021D01*
X143803215Y-93992600D01*
X143736885Y-93773940D01*
X143629171Y-93572421D01*
X143484212Y-93395788D01*
X143307578Y-93250829D01*
X143106059Y-93143115D01*
X142887399Y-93076785D01*
X142660000Y-93054388D01*
X142432600Y-93076785D01*
X142213940Y-93143115D01*
X142012421Y-93250829D01*
X141835788Y-93395788D01*
X141690829Y-93572422D01*
X141583115Y-93773941D01*
X141516785Y-93992601D01*
X141500000Y-94163022D01*
X141280000Y-94163022D01*
X141280000Y-94163021D01*
X141263215Y-93992600D01*
X141196885Y-93773940D01*
X141089171Y-93572421D01*
X140944212Y-93395788D01*
X140767578Y-93250829D01*
X140566059Y-93143115D01*
X140347399Y-93076785D01*
X140120000Y-93054388D01*
X139892600Y-93076785D01*
X139673940Y-93143115D01*
X139472421Y-93250829D01*
X139295788Y-93395788D01*
X139150829Y-93572422D01*
X139043115Y-93773941D01*
X138976785Y-93992601D01*
X138960000Y-94163022D01*
X138740000Y-94163022D01*
X138740000Y-94163021D01*
X138723215Y-93992600D01*
X138656885Y-93773940D01*
X138549171Y-93572421D01*
X138404212Y-93395788D01*
X138227578Y-93250829D01*
X138026059Y-93143115D01*
X137807399Y-93076785D01*
X137580000Y-93054388D01*
X137352600Y-93076785D01*
X137133940Y-93143115D01*
X136932421Y-93250829D01*
X136755788Y-93395788D01*
X136610829Y-93572422D01*
X136503115Y-93773941D01*
X136436785Y-93992601D01*
X136420000Y-94163022D01*
X136200000Y-94163022D01*
X136200000Y-94163021D01*
X136183215Y-93992600D01*
X136116885Y-93773940D01*
X136009171Y-93572421D01*
X135864212Y-93395788D01*
X135687578Y-93250829D01*
X135486059Y-93143115D01*
X135267399Y-93076785D01*
X135040000Y-93054388D01*
X134812600Y-93076785D01*
X134593940Y-93143115D01*
X134392421Y-93250829D01*
X134215788Y-93395788D01*
X134070829Y-93572422D01*
X133963115Y-93773941D01*
X133896785Y-93992601D01*
X133880000Y-94163022D01*
X133661451Y-94163022D01*
X133661451Y-93899589D01*
X134785762Y-92775279D01*
X134801974Y-92761974D01*
X134855084Y-92697260D01*
X134894548Y-92623427D01*
X134918850Y-92543314D01*
X134925000Y-92480874D01*
X134925000Y-92480868D01*
X134927055Y-92460001D01*
X134925000Y-92439134D01*
X134925000Y-88020866D01*
X134927055Y-87999999D01*
X134925000Y-87979132D01*
X134925000Y-87979126D01*
X134918850Y-87916686D01*
X134918314Y-87914917D01*
X134898970Y-87851151D01*
X134894548Y-87836573D01*
X134855084Y-87762740D01*
X134801974Y-87698026D01*
X134785763Y-87684722D01*
X132925000Y-85823960D01*
X132925000Y-82657907D01*
X132946224Y-82643726D01*
X133043726Y-82546224D01*
X133120332Y-82431574D01*
X133173099Y-82304182D01*
X133200000Y-82168944D01*
X133200000Y-82031056D01*
X133173099Y-81895818D01*
X133120332Y-81768426D01*
X133043726Y-81653776D01*
X132946224Y-81556274D01*
X132831574Y-81479668D01*
X132704182Y-81426901D01*
X132568944Y-81400000D01*
X132431056Y-81400000D01*
X132295818Y-81426901D01*
X132168426Y-81479668D01*
X132053776Y-81556274D01*
X131956274Y-81653776D01*
X131879668Y-81768426D01*
X131826901Y-81895818D01*
X131800000Y-82031056D01*
X131800000Y-82168944D01*
X131826901Y-82304182D01*
X131879668Y-82431574D01*
X131956274Y-82546224D01*
X132053776Y-82643726D01*
X132075000Y-82657907D01*
X132075001Y-85979123D01*
X132072945Y-86000000D01*
X132081150Y-86083314D01*
X132105453Y-86163427D01*
X132144917Y-86237260D01*
X132198027Y-86301974D01*
X132214239Y-86315279D01*
X134075000Y-88176041D01*
X134075001Y-92283958D01*
X133232604Y-93126355D01*
X133209914Y-93114227D01*
X133072699Y-93072604D01*
X132930000Y-93058549D01*
X132070000Y-93058549D01*
X131927301Y-93072604D01*
X131790086Y-93114227D01*
X131663628Y-93181821D01*
X131552786Y-93272786D01*
X131461821Y-93383628D01*
X131394227Y-93510086D01*
X131352604Y-93647301D01*
X131338549Y-93790000D01*
X129875000Y-93790000D01*
X129875000Y-89026458D01*
X130105185Y-89026458D01*
X130146410Y-89393993D01*
X130258239Y-89746520D01*
X130436410Y-90070612D01*
X130674138Y-90353926D01*
X130962368Y-90585668D01*
X131290121Y-90757013D01*
X131644912Y-90861434D01*
X132013229Y-90894954D01*
X132381043Y-90856295D01*
X132734342Y-90746931D01*
X133059671Y-90571026D01*
X133344637Y-90335282D01*
X133578386Y-90048677D01*
X133752015Y-89722128D01*
X133858910Y-89368074D01*
X133895000Y-89000000D01*
X133894261Y-88947088D01*
X133847908Y-88580166D01*
X133731169Y-88229234D01*
X133548490Y-87907661D01*
X133306829Y-87627694D01*
X133015392Y-87399999D01*
X132685279Y-87233246D01*
X132329063Y-87133789D01*
X131960314Y-87105416D01*
X131593077Y-87149206D01*
X131241339Y-87263493D01*
X130918498Y-87443922D01*
X130636851Y-87683622D01*
X130407126Y-87973463D01*
X130238074Y-88302404D01*
X130136132Y-88657916D01*
X130105185Y-89026458D01*
X129875000Y-89026458D01*
X129875000Y-81031056D01*
X135100000Y-81031056D01*
X135100000Y-81168944D01*
X135126901Y-81304182D01*
X135179668Y-81431574D01*
X135256274Y-81546224D01*
X135353776Y-81643726D01*
X135365332Y-81651447D01*
X135362945Y-81675685D01*
X135365001Y-81696562D01*
X135365000Y-83569133D01*
X135362945Y-83590000D01*
X135365000Y-83610867D01*
X135365000Y-83610873D01*
X135371150Y-83673313D01*
X135395452Y-83753426D01*
X135434916Y-83827259D01*
X135488026Y-83891974D01*
X135504244Y-83905284D01*
X140154720Y-88555761D01*
X140168027Y-88571975D01*
X140232741Y-88625085D01*
X140306574Y-88664549D01*
X140362384Y-88681479D01*
X140386686Y-88688851D01*
X140394328Y-88689604D01*
X140449127Y-88695001D01*
X140449134Y-88695001D01*
X140470001Y-88697056D01*
X140490868Y-88695001D01*
X141960000Y-88695001D01*
X141960000Y-88738944D01*
X141986901Y-88874182D01*
X142039668Y-89001574D01*
X142116274Y-89116224D01*
X142213776Y-89213726D01*
X142328426Y-89290332D01*
X142455818Y-89343099D01*
X142591056Y-89370000D01*
X142728944Y-89370000D01*
X142864182Y-89343099D01*
X142991574Y-89290332D01*
X143106224Y-89213726D01*
X143203726Y-89116224D01*
X143280332Y-89001574D01*
X143333099Y-88874182D01*
X143360000Y-88738944D01*
X143360000Y-88601056D01*
X143333099Y-88465818D01*
X143280332Y-88338426D01*
X143203726Y-88223776D01*
X143106224Y-88126274D01*
X142991574Y-88049668D01*
X142864182Y-87996901D01*
X142728944Y-87970000D01*
X142591056Y-87970000D01*
X142567448Y-87974696D01*
X142561975Y-87968027D01*
X142497261Y-87914917D01*
X142423428Y-87875453D01*
X142343315Y-87851151D01*
X142280875Y-87845001D01*
X142280868Y-87845001D01*
X142260001Y-87842946D01*
X142239134Y-87845001D01*
X140646042Y-87845001D01*
X136215000Y-83413960D01*
X136215000Y-81761691D01*
X136218850Y-81748999D01*
X136225000Y-81686559D01*
X136225000Y-81686552D01*
X136227055Y-81665686D01*
X136226209Y-81657099D01*
X136246224Y-81643726D01*
X136343726Y-81546224D01*
X136420332Y-81431574D01*
X136473099Y-81304182D01*
X136500000Y-81168944D01*
X136500000Y-81031056D01*
X136473099Y-80895818D01*
X136420332Y-80768426D01*
X136343726Y-80653776D01*
X136246224Y-80556274D01*
X136131574Y-80479668D01*
X136004182Y-80426901D01*
X135868944Y-80400000D01*
X135731056Y-80400000D01*
X135595818Y-80426901D01*
X135468426Y-80479668D01*
X135353776Y-80556274D01*
X135256274Y-80653776D01*
X135179668Y-80768426D01*
X135126901Y-80895818D01*
X135100000Y-81031056D01*
X129875000Y-81031056D01*
X129875000Y-65526458D01*
X144105185Y-65526458D01*
X144146410Y-65893993D01*
X144258239Y-66246520D01*
X144436410Y-66570612D01*
X144674138Y-66853926D01*
X144962368Y-67085668D01*
X145290121Y-67257013D01*
X145644912Y-67361434D01*
X146013229Y-67394954D01*
X146381043Y-67356295D01*
X146734342Y-67246931D01*
X147059671Y-67071026D01*
X147344637Y-66835282D01*
X147578386Y-66548677D01*
X147752015Y-66222128D01*
X147858910Y-65868074D01*
X147895000Y-65500000D01*
X147894261Y-65447088D01*
X147847908Y-65080166D01*
X147731169Y-64729234D01*
X147548490Y-64407661D01*
X147306829Y-64127694D01*
X147015392Y-63899999D01*
X146685279Y-63733246D01*
X146329063Y-63633789D01*
X145960314Y-63605416D01*
X145593077Y-63649206D01*
X145241339Y-63763493D01*
X144918498Y-63943922D01*
X144636851Y-64183622D01*
X144407126Y-64473463D01*
X144238074Y-64802404D01*
X144136132Y-65157916D01*
X144105185Y-65526458D01*
X129875000Y-65526458D01*
X129875000Y-63375000D01*
X148125000Y-63375000D01*
X148125001Y-100625000D01*
G04 #@! TD*
M02*
