G04 #@! TF.GenerationSoftware,KiCad,Pcbnew,(5.0.1)-3*
G04 #@! TF.CreationDate,2019-04-14T21:22:41-05:00*
G04 #@! TF.ProjectId,transceiver,7472616E736365697665722E6B696361,rev?*
G04 #@! TF.SameCoordinates,Original*
G04 #@! TF.FileFunction,Soldermask,Top*
G04 #@! TF.FilePolarity,Negative*
%FSLAX46Y46*%
G04 Gerber Fmt 4.6, Leading zero omitted, Abs format (unit mm)*
G04 Created by KiCad (PCBNEW (5.0.1)-3) date 4/14/2019 21:22:41*
%MOMM*%
%LPD*%
G01*
G04 APERTURE LIST*
%ADD10C,0.100000*%
G04 APERTURE END LIST*
D10*
G36*
X137581565Y-95788925D02*
X137595179Y-95809299D01*
X137612506Y-95826626D01*
X137632881Y-95840240D01*
X137655520Y-95849618D01*
X137679553Y-95854398D01*
X137758586Y-95862182D01*
X137885629Y-95900720D01*
X137930314Y-95914275D01*
X138088569Y-95998864D01*
X138227291Y-96112709D01*
X138311478Y-96215292D01*
X138341133Y-96251427D01*
X138341134Y-96251429D01*
X138425726Y-96409688D01*
X138443090Y-96466930D01*
X138477818Y-96581413D01*
X138491000Y-96715254D01*
X138491000Y-97284746D01*
X138477818Y-97418587D01*
X138425726Y-97590311D01*
X138425725Y-97590314D01*
X138341136Y-97748569D01*
X138227291Y-97887291D01*
X138124708Y-97971478D01*
X138088573Y-98001133D01*
X138088571Y-98001134D01*
X137930312Y-98085726D01*
X137873070Y-98103090D01*
X137758587Y-98137818D01*
X137580000Y-98155407D01*
X137401414Y-98137818D01*
X137286931Y-98103090D01*
X137229689Y-98085726D01*
X137071430Y-98001134D01*
X137071428Y-98001133D01*
X137035293Y-97971478D01*
X136932710Y-97887291D01*
X136848523Y-97784708D01*
X136818868Y-97748573D01*
X136809191Y-97730469D01*
X136734274Y-97590312D01*
X136716910Y-97533070D01*
X136682182Y-97418587D01*
X136669000Y-97284746D01*
X136669000Y-96715255D01*
X136682182Y-96581414D01*
X136734274Y-96409690D01*
X136734275Y-96409686D01*
X136818864Y-96251431D01*
X136932709Y-96112709D01*
X137035292Y-96028522D01*
X137071427Y-95998867D01*
X137089529Y-95989191D01*
X137229688Y-95914274D01*
X137286930Y-95896910D01*
X137401413Y-95862182D01*
X137480447Y-95854398D01*
X137504481Y-95849617D01*
X137527120Y-95840240D01*
X137547494Y-95826626D01*
X137564821Y-95809299D01*
X137578435Y-95788924D01*
X137580000Y-95785146D01*
X137581565Y-95788925D01*
X137581565Y-95788925D01*
G37*
G36*
X135041565Y-95788925D02*
X135055179Y-95809299D01*
X135072506Y-95826626D01*
X135092881Y-95840240D01*
X135115520Y-95849618D01*
X135139553Y-95854398D01*
X135218586Y-95862182D01*
X135345629Y-95900720D01*
X135390314Y-95914275D01*
X135548569Y-95998864D01*
X135687291Y-96112709D01*
X135771478Y-96215292D01*
X135801133Y-96251427D01*
X135801134Y-96251429D01*
X135885726Y-96409688D01*
X135903090Y-96466930D01*
X135937818Y-96581413D01*
X135951000Y-96715254D01*
X135951000Y-97284746D01*
X135937818Y-97418587D01*
X135885726Y-97590311D01*
X135885725Y-97590314D01*
X135801136Y-97748569D01*
X135687291Y-97887291D01*
X135584708Y-97971478D01*
X135548573Y-98001133D01*
X135548571Y-98001134D01*
X135390312Y-98085726D01*
X135333070Y-98103090D01*
X135218587Y-98137818D01*
X135040000Y-98155407D01*
X134861414Y-98137818D01*
X134746931Y-98103090D01*
X134689689Y-98085726D01*
X134531430Y-98001134D01*
X134531428Y-98001133D01*
X134495293Y-97971478D01*
X134392710Y-97887291D01*
X134308523Y-97784708D01*
X134278868Y-97748573D01*
X134269191Y-97730469D01*
X134194274Y-97590312D01*
X134176910Y-97533070D01*
X134142182Y-97418587D01*
X134129000Y-97284746D01*
X134129000Y-96715255D01*
X134142182Y-96581414D01*
X134194274Y-96409690D01*
X134194275Y-96409686D01*
X134278864Y-96251431D01*
X134392709Y-96112709D01*
X134495292Y-96028522D01*
X134531427Y-95998867D01*
X134549529Y-95989191D01*
X134689688Y-95914274D01*
X134746930Y-95896910D01*
X134861413Y-95862182D01*
X134940447Y-95854398D01*
X134964481Y-95849617D01*
X134987120Y-95840240D01*
X135007494Y-95826626D01*
X135024821Y-95809299D01*
X135038435Y-95788924D01*
X135040000Y-95785146D01*
X135041565Y-95788925D01*
X135041565Y-95788925D01*
G37*
G36*
X133094551Y-93317144D02*
X133168164Y-93339474D01*
X133236004Y-93375736D01*
X133295465Y-93424535D01*
X133344264Y-93483996D01*
X133380526Y-93551836D01*
X133402856Y-93625449D01*
X133411000Y-93708140D01*
X133411000Y-95211860D01*
X133402856Y-95294551D01*
X133380526Y-95368164D01*
X133344264Y-95436004D01*
X133295465Y-95495465D01*
X133236004Y-95544264D01*
X133168164Y-95580526D01*
X133094551Y-95602856D01*
X133011860Y-95611000D01*
X132672722Y-95611000D01*
X132648336Y-95613402D01*
X132624887Y-95620515D01*
X132603276Y-95632066D01*
X132584334Y-95647612D01*
X132568788Y-95666554D01*
X132557237Y-95688165D01*
X132550124Y-95711614D01*
X132547722Y-95736000D01*
X132550124Y-95760386D01*
X132557237Y-95783835D01*
X132568788Y-95805446D01*
X132584334Y-95824388D01*
X132603276Y-95839934D01*
X132624887Y-95851485D01*
X132660468Y-95860398D01*
X132678586Y-95862182D01*
X132805629Y-95900720D01*
X132850314Y-95914275D01*
X133008569Y-95998864D01*
X133147291Y-96112709D01*
X133231478Y-96215292D01*
X133261133Y-96251427D01*
X133261134Y-96251429D01*
X133345726Y-96409688D01*
X133363090Y-96466930D01*
X133397818Y-96581413D01*
X133411000Y-96715254D01*
X133411000Y-97284746D01*
X133397818Y-97418587D01*
X133345726Y-97590311D01*
X133345725Y-97590314D01*
X133261136Y-97748569D01*
X133147291Y-97887291D01*
X133044708Y-97971478D01*
X133008573Y-98001133D01*
X133008571Y-98001134D01*
X132850312Y-98085726D01*
X132793070Y-98103090D01*
X132678587Y-98137818D01*
X132500000Y-98155407D01*
X132321414Y-98137818D01*
X132206931Y-98103090D01*
X132149689Y-98085726D01*
X131991430Y-98001134D01*
X131991428Y-98001133D01*
X131955293Y-97971478D01*
X131852710Y-97887291D01*
X131768523Y-97784708D01*
X131738868Y-97748573D01*
X131729191Y-97730469D01*
X131654274Y-97590312D01*
X131636910Y-97533070D01*
X131602182Y-97418587D01*
X131589000Y-97284746D01*
X131589000Y-96715255D01*
X131602182Y-96581414D01*
X131654274Y-96409690D01*
X131654275Y-96409686D01*
X131738864Y-96251431D01*
X131852709Y-96112709D01*
X131955292Y-96028522D01*
X131991427Y-95998867D01*
X132009529Y-95989191D01*
X132149688Y-95914274D01*
X132206930Y-95896910D01*
X132321413Y-95862182D01*
X132339531Y-95860398D01*
X132363563Y-95855618D01*
X132386202Y-95846240D01*
X132406576Y-95832626D01*
X132423903Y-95815299D01*
X132437517Y-95794925D01*
X132446895Y-95772286D01*
X132451675Y-95748252D01*
X132451675Y-95723748D01*
X132446895Y-95699714D01*
X132437517Y-95677075D01*
X132423903Y-95656701D01*
X132406576Y-95639374D01*
X132386202Y-95625760D01*
X132363563Y-95616382D01*
X132327277Y-95611000D01*
X131988140Y-95611000D01*
X131905449Y-95602856D01*
X131831836Y-95580526D01*
X131763996Y-95544264D01*
X131704535Y-95495465D01*
X131655736Y-95436004D01*
X131619474Y-95368164D01*
X131597144Y-95294551D01*
X131589000Y-95211860D01*
X131589000Y-93708140D01*
X131597144Y-93625449D01*
X131619474Y-93551836D01*
X131655736Y-93483996D01*
X131704535Y-93424535D01*
X131763996Y-93375736D01*
X131831836Y-93339474D01*
X131905449Y-93317144D01*
X131988140Y-93309000D01*
X133011860Y-93309000D01*
X133094551Y-93317144D01*
X133094551Y-93317144D01*
G37*
G36*
X145201565Y-95788925D02*
X145215179Y-95809299D01*
X145232506Y-95826626D01*
X145252881Y-95840240D01*
X145275520Y-95849618D01*
X145299553Y-95854398D01*
X145378586Y-95862182D01*
X145505629Y-95900720D01*
X145550314Y-95914275D01*
X145708569Y-95998864D01*
X145847291Y-96112709D01*
X145931478Y-96215292D01*
X145961133Y-96251427D01*
X145961134Y-96251429D01*
X146045726Y-96409688D01*
X146063090Y-96466930D01*
X146097818Y-96581413D01*
X146111000Y-96715254D01*
X146111000Y-97284746D01*
X146097818Y-97418587D01*
X146045726Y-97590311D01*
X146045725Y-97590314D01*
X145961136Y-97748569D01*
X145847291Y-97887291D01*
X145744708Y-97971478D01*
X145708573Y-98001133D01*
X145708571Y-98001134D01*
X145550312Y-98085726D01*
X145493070Y-98103090D01*
X145378587Y-98137818D01*
X145200000Y-98155407D01*
X145021414Y-98137818D01*
X144906931Y-98103090D01*
X144849689Y-98085726D01*
X144691430Y-98001134D01*
X144691428Y-98001133D01*
X144655293Y-97971478D01*
X144552710Y-97887291D01*
X144468523Y-97784708D01*
X144438868Y-97748573D01*
X144429191Y-97730469D01*
X144354274Y-97590312D01*
X144336910Y-97533070D01*
X144302182Y-97418587D01*
X144289000Y-97284746D01*
X144289000Y-96715255D01*
X144302182Y-96581414D01*
X144354274Y-96409690D01*
X144354275Y-96409686D01*
X144438864Y-96251431D01*
X144552709Y-96112709D01*
X144655292Y-96028522D01*
X144691427Y-95998867D01*
X144709529Y-95989191D01*
X144849688Y-95914274D01*
X144906930Y-95896910D01*
X145021413Y-95862182D01*
X145100447Y-95854398D01*
X145124481Y-95849617D01*
X145147120Y-95840240D01*
X145167494Y-95826626D01*
X145184821Y-95809299D01*
X145198435Y-95788924D01*
X145200000Y-95785146D01*
X145201565Y-95788925D01*
X145201565Y-95788925D01*
G37*
G36*
X140121565Y-95788925D02*
X140135179Y-95809299D01*
X140152506Y-95826626D01*
X140172881Y-95840240D01*
X140195520Y-95849618D01*
X140219553Y-95854398D01*
X140298586Y-95862182D01*
X140425629Y-95900720D01*
X140470314Y-95914275D01*
X140628569Y-95998864D01*
X140767291Y-96112709D01*
X140851478Y-96215292D01*
X140881133Y-96251427D01*
X140881134Y-96251429D01*
X140965726Y-96409688D01*
X140983090Y-96466930D01*
X141017818Y-96581413D01*
X141031000Y-96715254D01*
X141031000Y-97284746D01*
X141017818Y-97418587D01*
X140965726Y-97590311D01*
X140965725Y-97590314D01*
X140881136Y-97748569D01*
X140767291Y-97887291D01*
X140664708Y-97971478D01*
X140628573Y-98001133D01*
X140628571Y-98001134D01*
X140470312Y-98085726D01*
X140413070Y-98103090D01*
X140298587Y-98137818D01*
X140120000Y-98155407D01*
X139941414Y-98137818D01*
X139826931Y-98103090D01*
X139769689Y-98085726D01*
X139611430Y-98001134D01*
X139611428Y-98001133D01*
X139575293Y-97971478D01*
X139472710Y-97887291D01*
X139388523Y-97784708D01*
X139358868Y-97748573D01*
X139349191Y-97730469D01*
X139274274Y-97590312D01*
X139256910Y-97533070D01*
X139222182Y-97418587D01*
X139209000Y-97284746D01*
X139209000Y-96715255D01*
X139222182Y-96581414D01*
X139274274Y-96409690D01*
X139274275Y-96409686D01*
X139358864Y-96251431D01*
X139472709Y-96112709D01*
X139575292Y-96028522D01*
X139611427Y-95998867D01*
X139629529Y-95989191D01*
X139769688Y-95914274D01*
X139826930Y-95896910D01*
X139941413Y-95862182D01*
X140020447Y-95854398D01*
X140044481Y-95849617D01*
X140067120Y-95840240D01*
X140087494Y-95826626D01*
X140104821Y-95809299D01*
X140118435Y-95788924D01*
X140120000Y-95785146D01*
X140121565Y-95788925D01*
X140121565Y-95788925D01*
G37*
G36*
X142661565Y-95788925D02*
X142675179Y-95809299D01*
X142692506Y-95826626D01*
X142712881Y-95840240D01*
X142735520Y-95849618D01*
X142759553Y-95854398D01*
X142838586Y-95862182D01*
X142965629Y-95900720D01*
X143010314Y-95914275D01*
X143168569Y-95998864D01*
X143307291Y-96112709D01*
X143391478Y-96215292D01*
X143421133Y-96251427D01*
X143421134Y-96251429D01*
X143505726Y-96409688D01*
X143523090Y-96466930D01*
X143557818Y-96581413D01*
X143571000Y-96715254D01*
X143571000Y-97284746D01*
X143557818Y-97418587D01*
X143505726Y-97590311D01*
X143505725Y-97590314D01*
X143421136Y-97748569D01*
X143307291Y-97887291D01*
X143204708Y-97971478D01*
X143168573Y-98001133D01*
X143168571Y-98001134D01*
X143010312Y-98085726D01*
X142953070Y-98103090D01*
X142838587Y-98137818D01*
X142660000Y-98155407D01*
X142481414Y-98137818D01*
X142366931Y-98103090D01*
X142309689Y-98085726D01*
X142151430Y-98001134D01*
X142151428Y-98001133D01*
X142115293Y-97971478D01*
X142012710Y-97887291D01*
X141928523Y-97784708D01*
X141898868Y-97748573D01*
X141889191Y-97730469D01*
X141814274Y-97590312D01*
X141796910Y-97533070D01*
X141762182Y-97418587D01*
X141749000Y-97284746D01*
X141749000Y-96715255D01*
X141762182Y-96581414D01*
X141814274Y-96409690D01*
X141814275Y-96409686D01*
X141898864Y-96251431D01*
X142012709Y-96112709D01*
X142115292Y-96028522D01*
X142151427Y-95998867D01*
X142169529Y-95989191D01*
X142309688Y-95914274D01*
X142366930Y-95896910D01*
X142481413Y-95862182D01*
X142560447Y-95854398D01*
X142584481Y-95849617D01*
X142607120Y-95840240D01*
X142627494Y-95826626D01*
X142644821Y-95809299D01*
X142658435Y-95788924D01*
X142660000Y-95785146D01*
X142661565Y-95788925D01*
X142661565Y-95788925D01*
G37*
G36*
X140298586Y-93322182D02*
X140425629Y-93360720D01*
X140470314Y-93374275D01*
X140628569Y-93458864D01*
X140767291Y-93572709D01*
X140851478Y-93675292D01*
X140881133Y-93711427D01*
X140881134Y-93711429D01*
X140965726Y-93869688D01*
X140983090Y-93926930D01*
X141017818Y-94041413D01*
X141031000Y-94175254D01*
X141031000Y-94744746D01*
X141017818Y-94878587D01*
X140965726Y-95050311D01*
X140965725Y-95050314D01*
X140881136Y-95208569D01*
X140767291Y-95347291D01*
X140664708Y-95431478D01*
X140628573Y-95461133D01*
X140628571Y-95461134D01*
X140470312Y-95545726D01*
X140413070Y-95563090D01*
X140298587Y-95597818D01*
X140219553Y-95605602D01*
X140195519Y-95610383D01*
X140172880Y-95619760D01*
X140152506Y-95633374D01*
X140135179Y-95650701D01*
X140121565Y-95671076D01*
X140120000Y-95674854D01*
X140118435Y-95671075D01*
X140104821Y-95650701D01*
X140087494Y-95633374D01*
X140067119Y-95619760D01*
X140044480Y-95610382D01*
X140020447Y-95605602D01*
X140016222Y-95605186D01*
X139941414Y-95597818D01*
X139826931Y-95563090D01*
X139769689Y-95545726D01*
X139611430Y-95461134D01*
X139611428Y-95461133D01*
X139575293Y-95431478D01*
X139472710Y-95347291D01*
X139361566Y-95211860D01*
X139358868Y-95208573D01*
X139330499Y-95155500D01*
X139274274Y-95050312D01*
X139256910Y-94993070D01*
X139222182Y-94878587D01*
X139209000Y-94744746D01*
X139209000Y-94175255D01*
X139222182Y-94041414D01*
X139274274Y-93869690D01*
X139274275Y-93869686D01*
X139358864Y-93711431D01*
X139472709Y-93572709D01*
X139575292Y-93488522D01*
X139611427Y-93458867D01*
X139642210Y-93442413D01*
X139769688Y-93374274D01*
X139826930Y-93356910D01*
X139941413Y-93322182D01*
X140120000Y-93304593D01*
X140298586Y-93322182D01*
X140298586Y-93322182D01*
G37*
G36*
X142838586Y-93322182D02*
X142965629Y-93360720D01*
X143010314Y-93374275D01*
X143168569Y-93458864D01*
X143307291Y-93572709D01*
X143391478Y-93675292D01*
X143421133Y-93711427D01*
X143421134Y-93711429D01*
X143505726Y-93869688D01*
X143523090Y-93926930D01*
X143557818Y-94041413D01*
X143571000Y-94175254D01*
X143571000Y-94744746D01*
X143557818Y-94878587D01*
X143505726Y-95050311D01*
X143505725Y-95050314D01*
X143421136Y-95208569D01*
X143307291Y-95347291D01*
X143204708Y-95431478D01*
X143168573Y-95461133D01*
X143168571Y-95461134D01*
X143010312Y-95545726D01*
X142953070Y-95563090D01*
X142838587Y-95597818D01*
X142759553Y-95605602D01*
X142735519Y-95610383D01*
X142712880Y-95619760D01*
X142692506Y-95633374D01*
X142675179Y-95650701D01*
X142661565Y-95671076D01*
X142660000Y-95674854D01*
X142658435Y-95671075D01*
X142644821Y-95650701D01*
X142627494Y-95633374D01*
X142607119Y-95619760D01*
X142584480Y-95610382D01*
X142560447Y-95605602D01*
X142556222Y-95605186D01*
X142481414Y-95597818D01*
X142366931Y-95563090D01*
X142309689Y-95545726D01*
X142151430Y-95461134D01*
X142151428Y-95461133D01*
X142115293Y-95431478D01*
X142012710Y-95347291D01*
X141901566Y-95211860D01*
X141898868Y-95208573D01*
X141870499Y-95155500D01*
X141814274Y-95050312D01*
X141796910Y-94993070D01*
X141762182Y-94878587D01*
X141749000Y-94744746D01*
X141749000Y-94175255D01*
X141762182Y-94041414D01*
X141814274Y-93869690D01*
X141814275Y-93869686D01*
X141898864Y-93711431D01*
X142012709Y-93572709D01*
X142115292Y-93488522D01*
X142151427Y-93458867D01*
X142182210Y-93442413D01*
X142309688Y-93374274D01*
X142366930Y-93356910D01*
X142481413Y-93322182D01*
X142660000Y-93304593D01*
X142838586Y-93322182D01*
X142838586Y-93322182D01*
G37*
G36*
X145378586Y-93322182D02*
X145505629Y-93360720D01*
X145550314Y-93374275D01*
X145708569Y-93458864D01*
X145847291Y-93572709D01*
X145931478Y-93675292D01*
X145961133Y-93711427D01*
X145961134Y-93711429D01*
X146045726Y-93869688D01*
X146063090Y-93926930D01*
X146097818Y-94041413D01*
X146111000Y-94175254D01*
X146111000Y-94744746D01*
X146097818Y-94878587D01*
X146045726Y-95050311D01*
X146045725Y-95050314D01*
X145961136Y-95208569D01*
X145847291Y-95347291D01*
X145744708Y-95431478D01*
X145708573Y-95461133D01*
X145708571Y-95461134D01*
X145550312Y-95545726D01*
X145493070Y-95563090D01*
X145378587Y-95597818D01*
X145299553Y-95605602D01*
X145275519Y-95610383D01*
X145252880Y-95619760D01*
X145232506Y-95633374D01*
X145215179Y-95650701D01*
X145201565Y-95671076D01*
X145200000Y-95674854D01*
X145198435Y-95671075D01*
X145184821Y-95650701D01*
X145167494Y-95633374D01*
X145147119Y-95619760D01*
X145124480Y-95610382D01*
X145100447Y-95605602D01*
X145096222Y-95605186D01*
X145021414Y-95597818D01*
X144906931Y-95563090D01*
X144849689Y-95545726D01*
X144691430Y-95461134D01*
X144691428Y-95461133D01*
X144655293Y-95431478D01*
X144552710Y-95347291D01*
X144441566Y-95211860D01*
X144438868Y-95208573D01*
X144410499Y-95155500D01*
X144354274Y-95050312D01*
X144336910Y-94993070D01*
X144302182Y-94878587D01*
X144289000Y-94744746D01*
X144289000Y-94175255D01*
X144302182Y-94041414D01*
X144354274Y-93869690D01*
X144354275Y-93869686D01*
X144438864Y-93711431D01*
X144552709Y-93572709D01*
X144655292Y-93488522D01*
X144691427Y-93458867D01*
X144722210Y-93442413D01*
X144849688Y-93374274D01*
X144906930Y-93356910D01*
X145021413Y-93322182D01*
X145200000Y-93304593D01*
X145378586Y-93322182D01*
X145378586Y-93322182D01*
G37*
G36*
X137758586Y-93322182D02*
X137885629Y-93360720D01*
X137930314Y-93374275D01*
X138088569Y-93458864D01*
X138227291Y-93572709D01*
X138311478Y-93675292D01*
X138341133Y-93711427D01*
X138341134Y-93711429D01*
X138425726Y-93869688D01*
X138443090Y-93926930D01*
X138477818Y-94041413D01*
X138491000Y-94175254D01*
X138491000Y-94744746D01*
X138477818Y-94878587D01*
X138425726Y-95050311D01*
X138425725Y-95050314D01*
X138341136Y-95208569D01*
X138227291Y-95347291D01*
X138124708Y-95431478D01*
X138088573Y-95461133D01*
X138088571Y-95461134D01*
X137930312Y-95545726D01*
X137873070Y-95563090D01*
X137758587Y-95597818D01*
X137679553Y-95605602D01*
X137655519Y-95610383D01*
X137632880Y-95619760D01*
X137612506Y-95633374D01*
X137595179Y-95650701D01*
X137581565Y-95671076D01*
X137580000Y-95674854D01*
X137578435Y-95671075D01*
X137564821Y-95650701D01*
X137547494Y-95633374D01*
X137527119Y-95619760D01*
X137504480Y-95610382D01*
X137480447Y-95605602D01*
X137476222Y-95605186D01*
X137401414Y-95597818D01*
X137286931Y-95563090D01*
X137229689Y-95545726D01*
X137071430Y-95461134D01*
X137071428Y-95461133D01*
X137035293Y-95431478D01*
X136932710Y-95347291D01*
X136821566Y-95211860D01*
X136818868Y-95208573D01*
X136790499Y-95155500D01*
X136734274Y-95050312D01*
X136716910Y-94993070D01*
X136682182Y-94878587D01*
X136669000Y-94744746D01*
X136669000Y-94175255D01*
X136682182Y-94041414D01*
X136734274Y-93869690D01*
X136734275Y-93869686D01*
X136818864Y-93711431D01*
X136932709Y-93572709D01*
X137035292Y-93488522D01*
X137071427Y-93458867D01*
X137102210Y-93442413D01*
X137229688Y-93374274D01*
X137286930Y-93356910D01*
X137401413Y-93322182D01*
X137580000Y-93304593D01*
X137758586Y-93322182D01*
X137758586Y-93322182D01*
G37*
G36*
X135218586Y-93322182D02*
X135345629Y-93360720D01*
X135390314Y-93374275D01*
X135548569Y-93458864D01*
X135687291Y-93572709D01*
X135771478Y-93675292D01*
X135801133Y-93711427D01*
X135801134Y-93711429D01*
X135885726Y-93869688D01*
X135903090Y-93926930D01*
X135937818Y-94041413D01*
X135951000Y-94175254D01*
X135951000Y-94744746D01*
X135937818Y-94878587D01*
X135885726Y-95050311D01*
X135885725Y-95050314D01*
X135801136Y-95208569D01*
X135687291Y-95347291D01*
X135584708Y-95431478D01*
X135548573Y-95461133D01*
X135548571Y-95461134D01*
X135390312Y-95545726D01*
X135333070Y-95563090D01*
X135218587Y-95597818D01*
X135139553Y-95605602D01*
X135115519Y-95610383D01*
X135092880Y-95619760D01*
X135072506Y-95633374D01*
X135055179Y-95650701D01*
X135041565Y-95671076D01*
X135040000Y-95674854D01*
X135038435Y-95671075D01*
X135024821Y-95650701D01*
X135007494Y-95633374D01*
X134987119Y-95619760D01*
X134964480Y-95610382D01*
X134940447Y-95605602D01*
X134936222Y-95605186D01*
X134861414Y-95597818D01*
X134746931Y-95563090D01*
X134689689Y-95545726D01*
X134531430Y-95461134D01*
X134531428Y-95461133D01*
X134495293Y-95431478D01*
X134392710Y-95347291D01*
X134281566Y-95211860D01*
X134278868Y-95208573D01*
X134250499Y-95155500D01*
X134194274Y-95050312D01*
X134176910Y-94993070D01*
X134142182Y-94878587D01*
X134129000Y-94744746D01*
X134129000Y-94175255D01*
X134142182Y-94041414D01*
X134194274Y-93869690D01*
X134194275Y-93869686D01*
X134278864Y-93711431D01*
X134392709Y-93572709D01*
X134495292Y-93488522D01*
X134531427Y-93458867D01*
X134562210Y-93442413D01*
X134689688Y-93374274D01*
X134746930Y-93356910D01*
X134861413Y-93322182D01*
X135040000Y-93304593D01*
X135218586Y-93322182D01*
X135218586Y-93322182D01*
G37*
G36*
X144961000Y-87691000D02*
X144159000Y-87691000D01*
X144159000Y-86289000D01*
X144961000Y-86289000D01*
X144961000Y-87691000D01*
X144961000Y-87691000D01*
G37*
G36*
X143061000Y-87691000D02*
X142259000Y-87691000D01*
X142259000Y-86289000D01*
X143061000Y-86289000D01*
X143061000Y-87691000D01*
X143061000Y-87691000D01*
G37*
G36*
X135101000Y-86826000D02*
X133099000Y-86826000D01*
X133099000Y-85824000D01*
X135101000Y-85824000D01*
X135101000Y-86826000D01*
X135101000Y-86826000D01*
G37*
G36*
X145121000Y-85731000D02*
X144419000Y-85731000D01*
X144419000Y-85129000D01*
X145121000Y-85129000D01*
X145121000Y-85731000D01*
X145121000Y-85731000D01*
G37*
G36*
X144021000Y-85731000D02*
X143319000Y-85731000D01*
X143319000Y-85129000D01*
X144021000Y-85129000D01*
X144021000Y-85731000D01*
X144021000Y-85731000D01*
G37*
G36*
X140501000Y-81574000D02*
X140503402Y-81598386D01*
X140510515Y-81621835D01*
X140522066Y-81643446D01*
X140537612Y-81662388D01*
X140556554Y-81677934D01*
X140578165Y-81689485D01*
X140601614Y-81696598D01*
X140626000Y-81699000D01*
X141476000Y-81699000D01*
X141476000Y-84601000D01*
X140626000Y-84601000D01*
X140601614Y-84603402D01*
X140578165Y-84610515D01*
X140556554Y-84622066D01*
X140537612Y-84637612D01*
X140522066Y-84656554D01*
X140510515Y-84678165D01*
X140503402Y-84701614D01*
X140501000Y-84726000D01*
X140501000Y-85576000D01*
X137599000Y-85576000D01*
X137599000Y-84726000D01*
X137596598Y-84701614D01*
X137589485Y-84678165D01*
X137577934Y-84656554D01*
X137562388Y-84637612D01*
X137543446Y-84622066D01*
X137521835Y-84610515D01*
X137498386Y-84603402D01*
X137474000Y-84601000D01*
X136624000Y-84601000D01*
X136624000Y-81699000D01*
X137474000Y-81699000D01*
X137498386Y-81696598D01*
X137521835Y-81689485D01*
X137543446Y-81677934D01*
X137562388Y-81662388D01*
X137577934Y-81643446D01*
X137589485Y-81621835D01*
X137596598Y-81598386D01*
X137599000Y-81574000D01*
X137599000Y-80724000D01*
X140501000Y-80724000D01*
X140501000Y-81574000D01*
X140501000Y-81574000D01*
G37*
G36*
X135101000Y-85426000D02*
X133099000Y-85426000D01*
X133099000Y-84424000D01*
X135101000Y-84424000D01*
X135101000Y-85426000D01*
X135101000Y-85426000D01*
G37*
G36*
X144021000Y-84741000D02*
X143319000Y-84741000D01*
X143319000Y-84139000D01*
X144021000Y-84139000D01*
X144021000Y-84741000D01*
X144021000Y-84741000D01*
G37*
G36*
X145121000Y-84741000D02*
X144419000Y-84741000D01*
X144419000Y-84139000D01*
X145121000Y-84139000D01*
X145121000Y-84741000D01*
X145121000Y-84741000D01*
G37*
G36*
X144021000Y-83751000D02*
X143319000Y-83751000D01*
X143319000Y-83149000D01*
X144021000Y-83149000D01*
X144021000Y-83751000D01*
X144021000Y-83751000D01*
G37*
G36*
X145121000Y-83751000D02*
X144419000Y-83751000D01*
X144419000Y-83149000D01*
X145121000Y-83149000D01*
X145121000Y-83751000D01*
X145121000Y-83751000D01*
G37*
G36*
X136101000Y-82601000D02*
X135399000Y-82601000D01*
X135399000Y-81999000D01*
X136101000Y-81999000D01*
X136101000Y-82601000D01*
X136101000Y-82601000D01*
G37*
G36*
X135001000Y-82601000D02*
X134299000Y-82601000D01*
X134299000Y-81999000D01*
X135001000Y-81999000D01*
X135001000Y-82601000D01*
X135001000Y-82601000D01*
G37*
G36*
X135201000Y-79901000D02*
X134499000Y-79901000D01*
X134499000Y-79299000D01*
X135201000Y-79299000D01*
X135201000Y-79901000D01*
X135201000Y-79901000D01*
G37*
G36*
X136301000Y-79901000D02*
X135599000Y-79901000D01*
X135599000Y-79299000D01*
X136301000Y-79299000D01*
X136301000Y-79901000D01*
X136301000Y-79901000D01*
G37*
G36*
X138301000Y-78826000D02*
X137799000Y-78826000D01*
X137799000Y-78124000D01*
X138301000Y-78124000D01*
X138301000Y-78826000D01*
X138301000Y-78826000D01*
G37*
G36*
X137401000Y-78826000D02*
X136899000Y-78826000D01*
X136899000Y-78124000D01*
X137401000Y-78124000D01*
X137401000Y-78826000D01*
X137401000Y-78826000D01*
G37*
G36*
X140901000Y-78801000D02*
X140199000Y-78801000D01*
X140199000Y-78199000D01*
X140901000Y-78199000D01*
X140901000Y-78801000D01*
X140901000Y-78801000D01*
G37*
G36*
X139801000Y-78801000D02*
X139099000Y-78801000D01*
X139099000Y-78199000D01*
X139801000Y-78199000D01*
X139801000Y-78801000D01*
X139801000Y-78801000D01*
G37*
G36*
X139801000Y-76701000D02*
X139099000Y-76701000D01*
X139099000Y-76099000D01*
X139801000Y-76099000D01*
X139801000Y-76701000D01*
X139801000Y-76701000D01*
G37*
G36*
X138701000Y-76701000D02*
X137999000Y-76701000D01*
X137999000Y-76099000D01*
X138701000Y-76099000D01*
X138701000Y-76701000D01*
X138701000Y-76701000D01*
G37*
G36*
X137301000Y-75601000D02*
X136699000Y-75601000D01*
X136699000Y-74899000D01*
X137301000Y-74899000D01*
X137301000Y-75601000D01*
X137301000Y-75601000D01*
G37*
G36*
X138651000Y-75401000D02*
X137949000Y-75401000D01*
X137949000Y-74899000D01*
X138651000Y-74899000D01*
X138651000Y-75401000D01*
X138651000Y-75401000D01*
G37*
G36*
X138651000Y-74501000D02*
X137949000Y-74501000D01*
X137949000Y-73999000D01*
X138651000Y-73999000D01*
X138651000Y-74501000D01*
X138651000Y-74501000D01*
G37*
G36*
X137301000Y-74501000D02*
X136699000Y-74501000D01*
X136699000Y-73799000D01*
X137301000Y-73799000D01*
X137301000Y-74501000D01*
X137301000Y-74501000D01*
G37*
G36*
X139801000Y-73301000D02*
X139099000Y-73301000D01*
X139099000Y-72699000D01*
X139801000Y-72699000D01*
X139801000Y-73301000D01*
X139801000Y-73301000D01*
G37*
G36*
X138701000Y-73301000D02*
X137999000Y-73301000D01*
X137999000Y-72699000D01*
X138701000Y-72699000D01*
X138701000Y-73301000D01*
X138701000Y-73301000D01*
G37*
G36*
X138601000Y-72201000D02*
X137999000Y-72201000D01*
X137999000Y-71499000D01*
X138601000Y-71499000D01*
X138601000Y-72201000D01*
X138601000Y-72201000D01*
G37*
G36*
X138601000Y-71101000D02*
X137999000Y-71101000D01*
X137999000Y-70399000D01*
X138601000Y-70399000D01*
X138601000Y-71101000D01*
X138601000Y-71101000D01*
G37*
G36*
X143351000Y-68691000D02*
X141749000Y-68691000D01*
X141749000Y-63509000D01*
X143351000Y-63509000D01*
X143351000Y-68691000D01*
X143351000Y-68691000D01*
G37*
G36*
X134851000Y-68691000D02*
X133249000Y-68691000D01*
X133249000Y-63509000D01*
X134851000Y-63509000D01*
X134851000Y-68691000D01*
X134851000Y-68691000D01*
G37*
G36*
X139101000Y-68691000D02*
X137499000Y-68691000D01*
X137499000Y-63509000D01*
X139101000Y-63509000D01*
X139101000Y-68691000D01*
X139101000Y-68691000D01*
G37*
M02*
