M48
INCH,TZ
T1C0.0157
T2C0.0394
%
G90
G05
T1
X5.1811Y-3.3976
X5.2165Y-3.2323
X5.2362Y-2.8937
X5.2362Y-2.9331
X5.2362Y-2.9724
X5.2756Y-2.7559
X5.2756Y-2.8937
X5.2756Y-2.9331
X5.2756Y-2.9724
X5.3465Y-3.1929
X5.3504Y-3.3386
X5.4409Y-3.2736
X5.4744Y-3.2402
X5.4744Y-3.2736
X5.4744Y-3.3071
X5.5079Y-3.2736
X5.563Y-3.4252
X5.5709Y-2.8937
X5.5709Y-2.9331
X5.5709Y-2.9724
X5.5906Y-3.5433
X5.6102Y-2.7559
X5.6102Y-2.8937
X5.6102Y-2.9331
X5.6102Y-2.9724
X5.6165Y-3.4909
T2
X5.2165Y-3.7189
X5.2165Y-3.8189
X5.3165Y-3.7189
X5.3165Y-3.8189
X5.4165Y-3.7189
X5.4165Y-3.8189
X5.5165Y-3.7189
X5.5165Y-3.8189
X5.6165Y-3.7189
X5.6165Y-3.8189
X5.7165Y-3.7189
X5.7165Y-3.8189
T0
M30
