M48
; DRILL file {KiCad (5.1.5)-3} date 9/8/2020 23:30:14
; FORMAT={-:-/ absolute / inch / decimal}
; #@! TF.CreationDate,2020-09-08T23:30:14-05:00
; #@! TF.GenerationSoftware,Kicad,Pcbnew,(5.1.5)-3
; #@! TF.FileFunction,Plated,1,2,PTH
FMAT,2
INCH
T1C0.0157
T2C0.0394
%
G90
G05
T1
X5.0Y-2.4
X5.0Y-2.45
X5.0Y-2.5
X5.05Y-2.4
X5.05Y-2.45
X5.05Y-2.5
X5.1Y-2.4
X5.1Y-2.45
X5.1Y-2.5
X5.1587Y-4.2157
X5.19Y-4.14
X5.42Y-4.29
X5.423Y-3.314
X5.48Y-3.39
X5.545Y-2.9125
X5.55Y-2.75
X5.56Y-4.29
X5.5741Y-3.707
X5.6292Y-3.7037
X5.6591Y-3.7413
X5.765Y-3.4877
X5.765Y-3.6925
X5.7665Y-2.8157
X5.7795Y-4.176
X5.7827Y-3.8689
X5.783Y-3.402
X5.8394Y-3.5967
X5.8398Y-3.6453
X5.8713Y-4.176
X5.905Y-2.6725
X5.905Y-3.1675
X5.938Y-3.1
X5.9528Y-4.0626
X5.9597Y-3.405
X6.011Y-2.948
X6.0819Y-3.4036
X6.09Y-3.1
X6.0984Y-4.2874
X6.0989Y-3.8367
X6.135Y-3.1675
X6.1669Y-2.4173
X6.1785Y-3.605
X6.1929Y-4.2854
X6.3228Y-4.0118
X6.3255Y-3.834
X6.3701Y-3.4567
X6.4168Y-3.6447
T2
X5.0157Y-2.9858
X5.0157Y-3.0858
X5.0157Y-3.1858
X5.0157Y-3.2858
X5.0157Y-3.3858
X5.0157Y-3.4858
X5.0157Y-3.5858
X5.0157Y-3.6858
X5.0157Y-3.7858
X5.0157Y-3.8858
X5.0157Y-3.9858
X5.0157Y-4.0858
X5.0157Y-4.1858
X5.0157Y-4.2858
X5.4744Y-2.4179
X5.5744Y-2.4179
X5.6744Y-2.4179
X5.7744Y-2.4179
T0
M30
