G04 #@! TF.GenerationSoftware,KiCad,Pcbnew,(5.1.5)-3*
G04 #@! TF.CreationDate,2020-09-08T23:30:12-05:00*
G04 #@! TF.ProjectId,video-transceiver,76696465-6f2d-4747-9261-6e7363656976,rev?*
G04 #@! TF.SameCoordinates,Original*
G04 #@! TF.FileFunction,Copper,L2,Bot*
G04 #@! TF.FilePolarity,Positive*
%FSLAX46Y46*%
G04 Gerber Fmt 4.6, Leading zero omitted, Abs format (unit mm)*
G04 Created by KiCad (PCBNEW (5.1.5)-3) date 2020-09-08 23:30:12*
%MOMM*%
%LPD*%
G04 APERTURE LIST*
%ADD10R,1.700000X1.700000*%
%ADD11O,1.700000X1.700000*%
%ADD12C,0.800000*%
%ADD13C,0.250000*%
%ADD14C,0.254000*%
G04 APERTURE END LIST*
D10*
X139048500Y-61413500D03*
D11*
X141588500Y-61413500D03*
X144128500Y-61413500D03*
X146668500Y-61413500D03*
D10*
X127400000Y-75840000D03*
D11*
X127400000Y-78380000D03*
X127400000Y-80920000D03*
X127400000Y-83460000D03*
X127400000Y-86000000D03*
X127400000Y-88540000D03*
X127400000Y-91080000D03*
X127400000Y-93620000D03*
X127400000Y-96160000D03*
X127400000Y-98700000D03*
X127400000Y-101240000D03*
X127400000Y-103780000D03*
X127400000Y-106320000D03*
X127400000Y-108860000D03*
D12*
X139192000Y-86106000D03*
X149987000Y-67881500D03*
X140843000Y-73977500D03*
X156933900Y-91567000D03*
X162986720Y-92575380D03*
X151376380Y-86487000D03*
X154480260Y-86451440D03*
X161800000Y-87800000D03*
X140970000Y-69850000D03*
X137668000Y-108966000D03*
X141224000Y-108966000D03*
X131826000Y-105156000D03*
X160600000Y-101900000D03*
X154900000Y-108900000D03*
X157300000Y-108850000D03*
X127000000Y-60960000D03*
X128270000Y-60960000D03*
X127000000Y-62230000D03*
X128270000Y-62230000D03*
X127000000Y-63500000D03*
X128270000Y-63500000D03*
X129540000Y-63500000D03*
X129540000Y-62230000D03*
X129540000Y-60960000D03*
X143740000Y-95030000D03*
X156640000Y-61400000D03*
X137744200Y-84175600D03*
X146431000Y-88588788D03*
X146888200Y-86410800D03*
X148330000Y-92590000D03*
X148320000Y-91354990D03*
X146880000Y-98270000D03*
X146800000Y-106070000D03*
X149130000Y-106070000D03*
X149987000Y-80454500D03*
X155829000Y-80454500D03*
X154912060Y-97452180D03*
X141582140Y-94157800D03*
X146431000Y-93788778D03*
X160667700Y-97383600D03*
X131030000Y-107080000D03*
X151200000Y-103190000D03*
X152680000Y-74880000D03*
X146470000Y-71520000D03*
X150825200Y-78740000D03*
X154686000Y-78740000D03*
X142981680Y-94073980D03*
D13*
X150552685Y-80454500D02*
X155829000Y-80454500D01*
X149987000Y-80454500D02*
X150552685Y-80454500D01*
X141582140Y-94723485D02*
X142715715Y-95857060D01*
X141582140Y-94157800D02*
X141582140Y-94723485D01*
X153316940Y-95857060D02*
X154912060Y-97452180D01*
X142715715Y-95857060D02*
X153316940Y-95857060D01*
X160667700Y-97383600D02*
X156847540Y-97383600D01*
X153252718Y-93788778D02*
X146431000Y-93788778D01*
X156847540Y-97383600D02*
X153252718Y-93788778D01*
X160667700Y-80492700D02*
X160667700Y-97383600D01*
X141588500Y-61413500D02*
X160667700Y-80492700D01*
X149193002Y-107080000D02*
X151200000Y-105073002D01*
X151200000Y-103755685D02*
X151200000Y-103190000D01*
X151200000Y-105073002D02*
X151200000Y-103755685D01*
X131030000Y-107080000D02*
X149193002Y-107080000D01*
X149830000Y-74880000D02*
X146470000Y-71520000D01*
X152680000Y-74880000D02*
X149830000Y-74880000D01*
X154686000Y-78740000D02*
X150825200Y-78740000D01*
X150825200Y-78740000D02*
X148739860Y-78740000D01*
X142981680Y-84498180D02*
X142981680Y-94073980D01*
X148739860Y-78740000D02*
X142981680Y-84498180D01*
D14*
G36*
X164548001Y-58793607D02*
G01*
X164548000Y-109862394D01*
X164062394Y-110348000D01*
X125497606Y-110348000D01*
X125052000Y-109902394D01*
X125052000Y-106204076D01*
X126223000Y-106204076D01*
X126223000Y-106435924D01*
X126268231Y-106663318D01*
X126356956Y-106877519D01*
X126485764Y-107070294D01*
X126649706Y-107234236D01*
X126842481Y-107363044D01*
X127056682Y-107451769D01*
X127284076Y-107497000D01*
X127515924Y-107497000D01*
X127743318Y-107451769D01*
X127957519Y-107363044D01*
X128150294Y-107234236D01*
X128314236Y-107070294D01*
X128355594Y-107008397D01*
X130303000Y-107008397D01*
X130303000Y-107151603D01*
X130330938Y-107292058D01*
X130385741Y-107424364D01*
X130465302Y-107543436D01*
X130566564Y-107644698D01*
X130685636Y-107724259D01*
X130817942Y-107779062D01*
X130958397Y-107807000D01*
X131101603Y-107807000D01*
X131242058Y-107779062D01*
X131374364Y-107724259D01*
X131493436Y-107644698D01*
X131594698Y-107543436D01*
X131602339Y-107532000D01*
X149170797Y-107532000D01*
X149193002Y-107534187D01*
X149215207Y-107532000D01*
X149281609Y-107525460D01*
X149366812Y-107499614D01*
X149445335Y-107457643D01*
X149514161Y-107401159D01*
X149528325Y-107383900D01*
X151503906Y-105408320D01*
X151521159Y-105394161D01*
X151577643Y-105325335D01*
X151619614Y-105246812D01*
X151619614Y-105246811D01*
X151645460Y-105161610D01*
X151654187Y-105073002D01*
X151652000Y-105050797D01*
X151652000Y-103762339D01*
X151663436Y-103754698D01*
X151764698Y-103653436D01*
X151844259Y-103534364D01*
X151899062Y-103402058D01*
X151927000Y-103261603D01*
X151927000Y-103118397D01*
X151899062Y-102977942D01*
X151844259Y-102845636D01*
X151764698Y-102726564D01*
X151663436Y-102625302D01*
X151544364Y-102545741D01*
X151412058Y-102490938D01*
X151271603Y-102463000D01*
X151128397Y-102463000D01*
X150987942Y-102490938D01*
X150855636Y-102545741D01*
X150736564Y-102625302D01*
X150635302Y-102726564D01*
X150555741Y-102845636D01*
X150500938Y-102977942D01*
X150473000Y-103118397D01*
X150473000Y-103261603D01*
X150500938Y-103402058D01*
X150555741Y-103534364D01*
X150635302Y-103653436D01*
X150736564Y-103754698D01*
X150748000Y-103762339D01*
X150748000Y-103777889D01*
X150748001Y-103777899D01*
X150748000Y-104885778D01*
X149005779Y-106628000D01*
X131602339Y-106628000D01*
X131594698Y-106616564D01*
X131493436Y-106515302D01*
X131374364Y-106435741D01*
X131242058Y-106380938D01*
X131101603Y-106353000D01*
X130958397Y-106353000D01*
X130817942Y-106380938D01*
X130685636Y-106435741D01*
X130566564Y-106515302D01*
X130465302Y-106616564D01*
X130385741Y-106735636D01*
X130330938Y-106867942D01*
X130303000Y-107008397D01*
X128355594Y-107008397D01*
X128443044Y-106877519D01*
X128531769Y-106663318D01*
X128577000Y-106435924D01*
X128577000Y-106204076D01*
X128531769Y-105976682D01*
X128443044Y-105762481D01*
X128314236Y-105569706D01*
X128150294Y-105405764D01*
X127957519Y-105276956D01*
X127743318Y-105188231D01*
X127515924Y-105143000D01*
X127284076Y-105143000D01*
X127056682Y-105188231D01*
X126842481Y-105276956D01*
X126649706Y-105405764D01*
X126485764Y-105569706D01*
X126356956Y-105762481D01*
X126268231Y-105976682D01*
X126223000Y-106204076D01*
X125052000Y-106204076D01*
X125052000Y-103664076D01*
X126223000Y-103664076D01*
X126223000Y-103895924D01*
X126268231Y-104123318D01*
X126356956Y-104337519D01*
X126485764Y-104530294D01*
X126649706Y-104694236D01*
X126842481Y-104823044D01*
X127056682Y-104911769D01*
X127284076Y-104957000D01*
X127515924Y-104957000D01*
X127743318Y-104911769D01*
X127957519Y-104823044D01*
X128150294Y-104694236D01*
X128314236Y-104530294D01*
X128443044Y-104337519D01*
X128531769Y-104123318D01*
X128577000Y-103895924D01*
X128577000Y-103664076D01*
X128531769Y-103436682D01*
X128443044Y-103222481D01*
X128314236Y-103029706D01*
X128150294Y-102865764D01*
X127957519Y-102736956D01*
X127743318Y-102648231D01*
X127515924Y-102603000D01*
X127284076Y-102603000D01*
X127056682Y-102648231D01*
X126842481Y-102736956D01*
X126649706Y-102865764D01*
X126485764Y-103029706D01*
X126356956Y-103222481D01*
X126268231Y-103436682D01*
X126223000Y-103664076D01*
X125052000Y-103664076D01*
X125052000Y-101124076D01*
X126223000Y-101124076D01*
X126223000Y-101355924D01*
X126268231Y-101583318D01*
X126356956Y-101797519D01*
X126485764Y-101990294D01*
X126649706Y-102154236D01*
X126842481Y-102283044D01*
X127056682Y-102371769D01*
X127284076Y-102417000D01*
X127515924Y-102417000D01*
X127743318Y-102371769D01*
X127957519Y-102283044D01*
X128150294Y-102154236D01*
X128314236Y-101990294D01*
X128443044Y-101797519D01*
X128531769Y-101583318D01*
X128577000Y-101355924D01*
X128577000Y-101124076D01*
X128531769Y-100896682D01*
X128443044Y-100682481D01*
X128314236Y-100489706D01*
X128150294Y-100325764D01*
X127957519Y-100196956D01*
X127743318Y-100108231D01*
X127515924Y-100063000D01*
X127284076Y-100063000D01*
X127056682Y-100108231D01*
X126842481Y-100196956D01*
X126649706Y-100325764D01*
X126485764Y-100489706D01*
X126356956Y-100682481D01*
X126268231Y-100896682D01*
X126223000Y-101124076D01*
X125052000Y-101124076D01*
X125052000Y-98584076D01*
X126223000Y-98584076D01*
X126223000Y-98815924D01*
X126268231Y-99043318D01*
X126356956Y-99257519D01*
X126485764Y-99450294D01*
X126649706Y-99614236D01*
X126842481Y-99743044D01*
X127056682Y-99831769D01*
X127284076Y-99877000D01*
X127515924Y-99877000D01*
X127743318Y-99831769D01*
X127957519Y-99743044D01*
X128150294Y-99614236D01*
X128314236Y-99450294D01*
X128443044Y-99257519D01*
X128531769Y-99043318D01*
X128577000Y-98815924D01*
X128577000Y-98584076D01*
X128531769Y-98356682D01*
X128443044Y-98142481D01*
X128314236Y-97949706D01*
X128150294Y-97785764D01*
X127957519Y-97656956D01*
X127743318Y-97568231D01*
X127515924Y-97523000D01*
X127284076Y-97523000D01*
X127056682Y-97568231D01*
X126842481Y-97656956D01*
X126649706Y-97785764D01*
X126485764Y-97949706D01*
X126356956Y-98142481D01*
X126268231Y-98356682D01*
X126223000Y-98584076D01*
X125052000Y-98584076D01*
X125052000Y-96044076D01*
X126223000Y-96044076D01*
X126223000Y-96275924D01*
X126268231Y-96503318D01*
X126356956Y-96717519D01*
X126485764Y-96910294D01*
X126649706Y-97074236D01*
X126842481Y-97203044D01*
X127056682Y-97291769D01*
X127284076Y-97337000D01*
X127515924Y-97337000D01*
X127743318Y-97291769D01*
X127957519Y-97203044D01*
X128150294Y-97074236D01*
X128314236Y-96910294D01*
X128443044Y-96717519D01*
X128531769Y-96503318D01*
X128577000Y-96275924D01*
X128577000Y-96044076D01*
X128531769Y-95816682D01*
X128443044Y-95602481D01*
X128314236Y-95409706D01*
X128150294Y-95245764D01*
X127957519Y-95116956D01*
X127743318Y-95028231D01*
X127515924Y-94983000D01*
X127284076Y-94983000D01*
X127056682Y-95028231D01*
X126842481Y-95116956D01*
X126649706Y-95245764D01*
X126485764Y-95409706D01*
X126356956Y-95602481D01*
X126268231Y-95816682D01*
X126223000Y-96044076D01*
X125052000Y-96044076D01*
X125052000Y-93504076D01*
X126223000Y-93504076D01*
X126223000Y-93735924D01*
X126268231Y-93963318D01*
X126356956Y-94177519D01*
X126485764Y-94370294D01*
X126649706Y-94534236D01*
X126842481Y-94663044D01*
X127056682Y-94751769D01*
X127284076Y-94797000D01*
X127515924Y-94797000D01*
X127743318Y-94751769D01*
X127957519Y-94663044D01*
X128150294Y-94534236D01*
X128314236Y-94370294D01*
X128443044Y-94177519D01*
X128480870Y-94086197D01*
X140855140Y-94086197D01*
X140855140Y-94229403D01*
X140883078Y-94369858D01*
X140937881Y-94502164D01*
X141017442Y-94621236D01*
X141118704Y-94722498D01*
X141128500Y-94729044D01*
X141136680Y-94812092D01*
X141162526Y-94897294D01*
X141162527Y-94897295D01*
X141204498Y-94975818D01*
X141260982Y-95044644D01*
X141278236Y-95058804D01*
X142380400Y-96160970D01*
X142394556Y-96178219D01*
X142463382Y-96234703D01*
X142540502Y-96275924D01*
X142541905Y-96276674D01*
X142627107Y-96302520D01*
X142715714Y-96311247D01*
X142737919Y-96309060D01*
X153129717Y-96309060D01*
X154187743Y-97367088D01*
X154185060Y-97380577D01*
X154185060Y-97523783D01*
X154212998Y-97664238D01*
X154267801Y-97796544D01*
X154347362Y-97915616D01*
X154448624Y-98016878D01*
X154567696Y-98096439D01*
X154700002Y-98151242D01*
X154840457Y-98179180D01*
X154983663Y-98179180D01*
X155124118Y-98151242D01*
X155256424Y-98096439D01*
X155375496Y-98016878D01*
X155476758Y-97915616D01*
X155556319Y-97796544D01*
X155611122Y-97664238D01*
X155639060Y-97523783D01*
X155639060Y-97380577D01*
X155611122Y-97240122D01*
X155556319Y-97107816D01*
X155476758Y-96988744D01*
X155375496Y-96887482D01*
X155256424Y-96807921D01*
X155124118Y-96753118D01*
X154983663Y-96725180D01*
X154840457Y-96725180D01*
X154826968Y-96727863D01*
X153652263Y-95553160D01*
X153638099Y-95535901D01*
X153569273Y-95479417D01*
X153490750Y-95437446D01*
X153405547Y-95411600D01*
X153339145Y-95405060D01*
X153316940Y-95402873D01*
X153294735Y-95405060D01*
X142902940Y-95405060D01*
X142132976Y-94635098D01*
X142146838Y-94621236D01*
X142226399Y-94502164D01*
X142281202Y-94369858D01*
X142292925Y-94310922D01*
X142337421Y-94418344D01*
X142416982Y-94537416D01*
X142518244Y-94638678D01*
X142637316Y-94718239D01*
X142769622Y-94773042D01*
X142910077Y-94800980D01*
X143053283Y-94800980D01*
X143193738Y-94773042D01*
X143326044Y-94718239D01*
X143445116Y-94638678D01*
X143546378Y-94537416D01*
X143625939Y-94418344D01*
X143680742Y-94286038D01*
X143708680Y-94145583D01*
X143708680Y-94002377D01*
X143680742Y-93861922D01*
X143625939Y-93729616D01*
X143546378Y-93610544D01*
X143445116Y-93509282D01*
X143433680Y-93501641D01*
X143433680Y-84685403D01*
X147736187Y-80382897D01*
X149260000Y-80382897D01*
X149260000Y-80526103D01*
X149287938Y-80666558D01*
X149342741Y-80798864D01*
X149422302Y-80917936D01*
X149523564Y-81019198D01*
X149642636Y-81098759D01*
X149774942Y-81153562D01*
X149915397Y-81181500D01*
X150058603Y-81181500D01*
X150199058Y-81153562D01*
X150331364Y-81098759D01*
X150450436Y-81019198D01*
X150551698Y-80917936D01*
X150559339Y-80906500D01*
X155256661Y-80906500D01*
X155264302Y-80917936D01*
X155365564Y-81019198D01*
X155484636Y-81098759D01*
X155616942Y-81153562D01*
X155757397Y-81181500D01*
X155900603Y-81181500D01*
X156041058Y-81153562D01*
X156173364Y-81098759D01*
X156292436Y-81019198D01*
X156393698Y-80917936D01*
X156473259Y-80798864D01*
X156528062Y-80666558D01*
X156556000Y-80526103D01*
X156556000Y-80382897D01*
X156528062Y-80242442D01*
X156473259Y-80110136D01*
X156393698Y-79991064D01*
X156292436Y-79889802D01*
X156173364Y-79810241D01*
X156041058Y-79755438D01*
X155900603Y-79727500D01*
X155757397Y-79727500D01*
X155616942Y-79755438D01*
X155484636Y-79810241D01*
X155365564Y-79889802D01*
X155264302Y-79991064D01*
X155256661Y-80002500D01*
X150559339Y-80002500D01*
X150551698Y-79991064D01*
X150450436Y-79889802D01*
X150331364Y-79810241D01*
X150199058Y-79755438D01*
X150058603Y-79727500D01*
X149915397Y-79727500D01*
X149774942Y-79755438D01*
X149642636Y-79810241D01*
X149523564Y-79889802D01*
X149422302Y-79991064D01*
X149342741Y-80110136D01*
X149287938Y-80242442D01*
X149260000Y-80382897D01*
X147736187Y-80382897D01*
X148927085Y-79192000D01*
X150252861Y-79192000D01*
X150260502Y-79203436D01*
X150361764Y-79304698D01*
X150480836Y-79384259D01*
X150613142Y-79439062D01*
X150753597Y-79467000D01*
X150896803Y-79467000D01*
X151037258Y-79439062D01*
X151169564Y-79384259D01*
X151288636Y-79304698D01*
X151389898Y-79203436D01*
X151397539Y-79192000D01*
X154113661Y-79192000D01*
X154121302Y-79203436D01*
X154222564Y-79304698D01*
X154341636Y-79384259D01*
X154473942Y-79439062D01*
X154614397Y-79467000D01*
X154757603Y-79467000D01*
X154898058Y-79439062D01*
X155030364Y-79384259D01*
X155149436Y-79304698D01*
X155250698Y-79203436D01*
X155330259Y-79084364D01*
X155385062Y-78952058D01*
X155413000Y-78811603D01*
X155413000Y-78668397D01*
X155385062Y-78527942D01*
X155330259Y-78395636D01*
X155250698Y-78276564D01*
X155149436Y-78175302D01*
X155030364Y-78095741D01*
X154898058Y-78040938D01*
X154757603Y-78013000D01*
X154614397Y-78013000D01*
X154473942Y-78040938D01*
X154341636Y-78095741D01*
X154222564Y-78175302D01*
X154121302Y-78276564D01*
X154113661Y-78288000D01*
X151397539Y-78288000D01*
X151389898Y-78276564D01*
X151288636Y-78175302D01*
X151169564Y-78095741D01*
X151037258Y-78040938D01*
X150896803Y-78013000D01*
X150753597Y-78013000D01*
X150613142Y-78040938D01*
X150480836Y-78095741D01*
X150361764Y-78175302D01*
X150260502Y-78276564D01*
X150252861Y-78288000D01*
X148762064Y-78288000D01*
X148739859Y-78285813D01*
X148651252Y-78294540D01*
X148631422Y-78300556D01*
X148566050Y-78320386D01*
X148487527Y-78362357D01*
X148418701Y-78418841D01*
X148404546Y-78436089D01*
X142677780Y-84162857D01*
X142660521Y-84177021D01*
X142604038Y-84245847D01*
X142562066Y-84324371D01*
X142536220Y-84409573D01*
X142527493Y-84498180D01*
X142529680Y-84520385D01*
X142529681Y-93501640D01*
X142518244Y-93509282D01*
X142416982Y-93610544D01*
X142337421Y-93729616D01*
X142282618Y-93861922D01*
X142270895Y-93920858D01*
X142226399Y-93813436D01*
X142146838Y-93694364D01*
X142045576Y-93593102D01*
X141926504Y-93513541D01*
X141794198Y-93458738D01*
X141653743Y-93430800D01*
X141510537Y-93430800D01*
X141370082Y-93458738D01*
X141237776Y-93513541D01*
X141118704Y-93593102D01*
X141017442Y-93694364D01*
X140937881Y-93813436D01*
X140883078Y-93945742D01*
X140855140Y-94086197D01*
X128480870Y-94086197D01*
X128531769Y-93963318D01*
X128577000Y-93735924D01*
X128577000Y-93504076D01*
X128531769Y-93276682D01*
X128443044Y-93062481D01*
X128314236Y-92869706D01*
X128150294Y-92705764D01*
X127957519Y-92576956D01*
X127743318Y-92488231D01*
X127515924Y-92443000D01*
X127284076Y-92443000D01*
X127056682Y-92488231D01*
X126842481Y-92576956D01*
X126649706Y-92705764D01*
X126485764Y-92869706D01*
X126356956Y-93062481D01*
X126268231Y-93276682D01*
X126223000Y-93504076D01*
X125052000Y-93504076D01*
X125052000Y-90964076D01*
X126223000Y-90964076D01*
X126223000Y-91195924D01*
X126268231Y-91423318D01*
X126356956Y-91637519D01*
X126485764Y-91830294D01*
X126649706Y-91994236D01*
X126842481Y-92123044D01*
X127056682Y-92211769D01*
X127284076Y-92257000D01*
X127515924Y-92257000D01*
X127743318Y-92211769D01*
X127957519Y-92123044D01*
X128150294Y-91994236D01*
X128314236Y-91830294D01*
X128443044Y-91637519D01*
X128531769Y-91423318D01*
X128577000Y-91195924D01*
X128577000Y-90964076D01*
X128531769Y-90736682D01*
X128443044Y-90522481D01*
X128314236Y-90329706D01*
X128150294Y-90165764D01*
X127957519Y-90036956D01*
X127743318Y-89948231D01*
X127515924Y-89903000D01*
X127284076Y-89903000D01*
X127056682Y-89948231D01*
X126842481Y-90036956D01*
X126649706Y-90165764D01*
X126485764Y-90329706D01*
X126356956Y-90522481D01*
X126268231Y-90736682D01*
X126223000Y-90964076D01*
X125052000Y-90964076D01*
X125052000Y-88424076D01*
X126223000Y-88424076D01*
X126223000Y-88655924D01*
X126268231Y-88883318D01*
X126356956Y-89097519D01*
X126485764Y-89290294D01*
X126649706Y-89454236D01*
X126842481Y-89583044D01*
X127056682Y-89671769D01*
X127284076Y-89717000D01*
X127515924Y-89717000D01*
X127743318Y-89671769D01*
X127957519Y-89583044D01*
X128150294Y-89454236D01*
X128314236Y-89290294D01*
X128443044Y-89097519D01*
X128531769Y-88883318D01*
X128577000Y-88655924D01*
X128577000Y-88424076D01*
X128531769Y-88196682D01*
X128443044Y-87982481D01*
X128314236Y-87789706D01*
X128150294Y-87625764D01*
X127957519Y-87496956D01*
X127743318Y-87408231D01*
X127515924Y-87363000D01*
X127284076Y-87363000D01*
X127056682Y-87408231D01*
X126842481Y-87496956D01*
X126649706Y-87625764D01*
X126485764Y-87789706D01*
X126356956Y-87982481D01*
X126268231Y-88196682D01*
X126223000Y-88424076D01*
X125052000Y-88424076D01*
X125052000Y-85884076D01*
X126223000Y-85884076D01*
X126223000Y-86115924D01*
X126268231Y-86343318D01*
X126356956Y-86557519D01*
X126485764Y-86750294D01*
X126649706Y-86914236D01*
X126842481Y-87043044D01*
X127056682Y-87131769D01*
X127284076Y-87177000D01*
X127515924Y-87177000D01*
X127743318Y-87131769D01*
X127957519Y-87043044D01*
X128150294Y-86914236D01*
X128314236Y-86750294D01*
X128443044Y-86557519D01*
X128531769Y-86343318D01*
X128577000Y-86115924D01*
X128577000Y-85884076D01*
X128531769Y-85656682D01*
X128443044Y-85442481D01*
X128314236Y-85249706D01*
X128150294Y-85085764D01*
X127957519Y-84956956D01*
X127743318Y-84868231D01*
X127515924Y-84823000D01*
X127284076Y-84823000D01*
X127056682Y-84868231D01*
X126842481Y-84956956D01*
X126649706Y-85085764D01*
X126485764Y-85249706D01*
X126356956Y-85442481D01*
X126268231Y-85656682D01*
X126223000Y-85884076D01*
X125052000Y-85884076D01*
X125052000Y-83344076D01*
X126223000Y-83344076D01*
X126223000Y-83575924D01*
X126268231Y-83803318D01*
X126356956Y-84017519D01*
X126485764Y-84210294D01*
X126649706Y-84374236D01*
X126842481Y-84503044D01*
X127056682Y-84591769D01*
X127284076Y-84637000D01*
X127515924Y-84637000D01*
X127743318Y-84591769D01*
X127957519Y-84503044D01*
X128150294Y-84374236D01*
X128314236Y-84210294D01*
X128443044Y-84017519D01*
X128531769Y-83803318D01*
X128577000Y-83575924D01*
X128577000Y-83344076D01*
X128531769Y-83116682D01*
X128443044Y-82902481D01*
X128314236Y-82709706D01*
X128150294Y-82545764D01*
X127957519Y-82416956D01*
X127743318Y-82328231D01*
X127515924Y-82283000D01*
X127284076Y-82283000D01*
X127056682Y-82328231D01*
X126842481Y-82416956D01*
X126649706Y-82545764D01*
X126485764Y-82709706D01*
X126356956Y-82902481D01*
X126268231Y-83116682D01*
X126223000Y-83344076D01*
X125052000Y-83344076D01*
X125052000Y-80804076D01*
X126223000Y-80804076D01*
X126223000Y-81035924D01*
X126268231Y-81263318D01*
X126356956Y-81477519D01*
X126485764Y-81670294D01*
X126649706Y-81834236D01*
X126842481Y-81963044D01*
X127056682Y-82051769D01*
X127284076Y-82097000D01*
X127515924Y-82097000D01*
X127743318Y-82051769D01*
X127957519Y-81963044D01*
X128150294Y-81834236D01*
X128314236Y-81670294D01*
X128443044Y-81477519D01*
X128531769Y-81263318D01*
X128577000Y-81035924D01*
X128577000Y-80804076D01*
X128531769Y-80576682D01*
X128443044Y-80362481D01*
X128314236Y-80169706D01*
X128150294Y-80005764D01*
X127957519Y-79876956D01*
X127743318Y-79788231D01*
X127515924Y-79743000D01*
X127284076Y-79743000D01*
X127056682Y-79788231D01*
X126842481Y-79876956D01*
X126649706Y-80005764D01*
X126485764Y-80169706D01*
X126356956Y-80362481D01*
X126268231Y-80576682D01*
X126223000Y-80804076D01*
X125052000Y-80804076D01*
X125052000Y-78264076D01*
X126223000Y-78264076D01*
X126223000Y-78495924D01*
X126268231Y-78723318D01*
X126356956Y-78937519D01*
X126485764Y-79130294D01*
X126649706Y-79294236D01*
X126842481Y-79423044D01*
X127056682Y-79511769D01*
X127284076Y-79557000D01*
X127515924Y-79557000D01*
X127743318Y-79511769D01*
X127957519Y-79423044D01*
X128150294Y-79294236D01*
X128314236Y-79130294D01*
X128443044Y-78937519D01*
X128531769Y-78723318D01*
X128577000Y-78495924D01*
X128577000Y-78264076D01*
X128531769Y-78036682D01*
X128443044Y-77822481D01*
X128314236Y-77629706D01*
X128150294Y-77465764D01*
X127957519Y-77336956D01*
X127743318Y-77248231D01*
X127515924Y-77203000D01*
X127284076Y-77203000D01*
X127056682Y-77248231D01*
X126842481Y-77336956D01*
X126649706Y-77465764D01*
X126485764Y-77629706D01*
X126356956Y-77822481D01*
X126268231Y-78036682D01*
X126223000Y-78264076D01*
X125052000Y-78264076D01*
X125052000Y-74990000D01*
X126221418Y-74990000D01*
X126221418Y-76690000D01*
X126227732Y-76754103D01*
X126246430Y-76815743D01*
X126276794Y-76872550D01*
X126317657Y-76922343D01*
X126367450Y-76963206D01*
X126424257Y-76993570D01*
X126485897Y-77012268D01*
X126550000Y-77018582D01*
X128250000Y-77018582D01*
X128314103Y-77012268D01*
X128375743Y-76993570D01*
X128432550Y-76963206D01*
X128482343Y-76922343D01*
X128523206Y-76872550D01*
X128553570Y-76815743D01*
X128572268Y-76754103D01*
X128578582Y-76690000D01*
X128578582Y-74990000D01*
X128572268Y-74925897D01*
X128553570Y-74864257D01*
X128523206Y-74807450D01*
X128482343Y-74757657D01*
X128432550Y-74716794D01*
X128375743Y-74686430D01*
X128314103Y-74667732D01*
X128250000Y-74661418D01*
X126550000Y-74661418D01*
X126485897Y-74667732D01*
X126424257Y-74686430D01*
X126367450Y-74716794D01*
X126317657Y-74757657D01*
X126276794Y-74807450D01*
X126246430Y-74864257D01*
X126227732Y-74925897D01*
X126221418Y-74990000D01*
X125052000Y-74990000D01*
X125052000Y-71448397D01*
X145743000Y-71448397D01*
X145743000Y-71591603D01*
X145770938Y-71732058D01*
X145825741Y-71864364D01*
X145905302Y-71983436D01*
X146006564Y-72084698D01*
X146125636Y-72164259D01*
X146257942Y-72219062D01*
X146398397Y-72247000D01*
X146541603Y-72247000D01*
X146555093Y-72244317D01*
X149494681Y-75183905D01*
X149508841Y-75201159D01*
X149577667Y-75257643D01*
X149656190Y-75299614D01*
X149741392Y-75325460D01*
X149830000Y-75334187D01*
X149852205Y-75332000D01*
X152107661Y-75332000D01*
X152115302Y-75343436D01*
X152216564Y-75444698D01*
X152335636Y-75524259D01*
X152467942Y-75579062D01*
X152608397Y-75607000D01*
X152751603Y-75607000D01*
X152892058Y-75579062D01*
X153024364Y-75524259D01*
X153143436Y-75444698D01*
X153244698Y-75343436D01*
X153324259Y-75224364D01*
X153379062Y-75092058D01*
X153407000Y-74951603D01*
X153407000Y-74808397D01*
X153379062Y-74667942D01*
X153324259Y-74535636D01*
X153244698Y-74416564D01*
X153143436Y-74315302D01*
X153024364Y-74235741D01*
X152892058Y-74180938D01*
X152751603Y-74153000D01*
X152608397Y-74153000D01*
X152467942Y-74180938D01*
X152335636Y-74235741D01*
X152216564Y-74315302D01*
X152115302Y-74416564D01*
X152107661Y-74428000D01*
X150017224Y-74428000D01*
X147194317Y-71605093D01*
X147197000Y-71591603D01*
X147197000Y-71448397D01*
X147169062Y-71307942D01*
X147114259Y-71175636D01*
X147034698Y-71056564D01*
X146933436Y-70955302D01*
X146814364Y-70875741D01*
X146682058Y-70820938D01*
X146541603Y-70793000D01*
X146398397Y-70793000D01*
X146257942Y-70820938D01*
X146125636Y-70875741D01*
X146006564Y-70955302D01*
X145905302Y-71056564D01*
X145825741Y-71175636D01*
X145770938Y-71307942D01*
X145743000Y-71448397D01*
X125052000Y-71448397D01*
X125052000Y-60563500D01*
X137869918Y-60563500D01*
X137869918Y-62263500D01*
X137876232Y-62327603D01*
X137894930Y-62389243D01*
X137925294Y-62446050D01*
X137966157Y-62495843D01*
X138015950Y-62536706D01*
X138072757Y-62567070D01*
X138134397Y-62585768D01*
X138198500Y-62592082D01*
X139898500Y-62592082D01*
X139962603Y-62585768D01*
X140024243Y-62567070D01*
X140081050Y-62536706D01*
X140130843Y-62495843D01*
X140171706Y-62446050D01*
X140202070Y-62389243D01*
X140220768Y-62327603D01*
X140227082Y-62263500D01*
X140227082Y-61297576D01*
X140411500Y-61297576D01*
X140411500Y-61529424D01*
X140456731Y-61756818D01*
X140545456Y-61971019D01*
X140674264Y-62163794D01*
X140838206Y-62327736D01*
X141030981Y-62456544D01*
X141245182Y-62545269D01*
X141472576Y-62590500D01*
X141704424Y-62590500D01*
X141931818Y-62545269D01*
X142037338Y-62501561D01*
X160215700Y-80679925D01*
X160215701Y-96811260D01*
X160204264Y-96818902D01*
X160103002Y-96920164D01*
X160095361Y-96931600D01*
X157034764Y-96931600D01*
X153588041Y-93484878D01*
X153573877Y-93467619D01*
X153505051Y-93411135D01*
X153426528Y-93369164D01*
X153341325Y-93343318D01*
X153274923Y-93336778D01*
X153252718Y-93334591D01*
X153230513Y-93336778D01*
X147003339Y-93336778D01*
X146995698Y-93325342D01*
X146894436Y-93224080D01*
X146775364Y-93144519D01*
X146643058Y-93089716D01*
X146502603Y-93061778D01*
X146359397Y-93061778D01*
X146218942Y-93089716D01*
X146086636Y-93144519D01*
X145967564Y-93224080D01*
X145866302Y-93325342D01*
X145786741Y-93444414D01*
X145731938Y-93576720D01*
X145704000Y-93717175D01*
X145704000Y-93860381D01*
X145731938Y-94000836D01*
X145786741Y-94133142D01*
X145866302Y-94252214D01*
X145967564Y-94353476D01*
X146086636Y-94433037D01*
X146218942Y-94487840D01*
X146359397Y-94515778D01*
X146502603Y-94515778D01*
X146643058Y-94487840D01*
X146775364Y-94433037D01*
X146894436Y-94353476D01*
X146995698Y-94252214D01*
X147003339Y-94240778D01*
X153065495Y-94240778D01*
X156512221Y-97687505D01*
X156526381Y-97704759D01*
X156595207Y-97761243D01*
X156641083Y-97785764D01*
X156673730Y-97803214D01*
X156758932Y-97829060D01*
X156847539Y-97837787D01*
X156869744Y-97835600D01*
X160095361Y-97835600D01*
X160103002Y-97847036D01*
X160204264Y-97948298D01*
X160323336Y-98027859D01*
X160455642Y-98082662D01*
X160596097Y-98110600D01*
X160739303Y-98110600D01*
X160879758Y-98082662D01*
X161012064Y-98027859D01*
X161131136Y-97948298D01*
X161232398Y-97847036D01*
X161311959Y-97727964D01*
X161366762Y-97595658D01*
X161394700Y-97455203D01*
X161394700Y-97311997D01*
X161366762Y-97171542D01*
X161311959Y-97039236D01*
X161232398Y-96920164D01*
X161131136Y-96818902D01*
X161119700Y-96811261D01*
X161119700Y-80514904D01*
X161121887Y-80492699D01*
X161113160Y-80404092D01*
X161100537Y-80362481D01*
X161087314Y-80318890D01*
X161045343Y-80240367D01*
X160988859Y-80171541D01*
X160971612Y-80157387D01*
X142676561Y-61862338D01*
X142720269Y-61756818D01*
X142765500Y-61529424D01*
X142765500Y-61297576D01*
X142951500Y-61297576D01*
X142951500Y-61529424D01*
X142996731Y-61756818D01*
X143085456Y-61971019D01*
X143214264Y-62163794D01*
X143378206Y-62327736D01*
X143570981Y-62456544D01*
X143785182Y-62545269D01*
X144012576Y-62590500D01*
X144244424Y-62590500D01*
X144471818Y-62545269D01*
X144686019Y-62456544D01*
X144878794Y-62327736D01*
X145042736Y-62163794D01*
X145171544Y-61971019D01*
X145260269Y-61756818D01*
X145305500Y-61529424D01*
X145305500Y-61297576D01*
X145491500Y-61297576D01*
X145491500Y-61529424D01*
X145536731Y-61756818D01*
X145625456Y-61971019D01*
X145754264Y-62163794D01*
X145918206Y-62327736D01*
X146110981Y-62456544D01*
X146325182Y-62545269D01*
X146552576Y-62590500D01*
X146784424Y-62590500D01*
X147011818Y-62545269D01*
X147226019Y-62456544D01*
X147418794Y-62327736D01*
X147582736Y-62163794D01*
X147711544Y-61971019D01*
X147800269Y-61756818D01*
X147845500Y-61529424D01*
X147845500Y-61297576D01*
X147800269Y-61070182D01*
X147711544Y-60855981D01*
X147582736Y-60663206D01*
X147418794Y-60499264D01*
X147226019Y-60370456D01*
X147011818Y-60281731D01*
X146784424Y-60236500D01*
X146552576Y-60236500D01*
X146325182Y-60281731D01*
X146110981Y-60370456D01*
X145918206Y-60499264D01*
X145754264Y-60663206D01*
X145625456Y-60855981D01*
X145536731Y-61070182D01*
X145491500Y-61297576D01*
X145305500Y-61297576D01*
X145260269Y-61070182D01*
X145171544Y-60855981D01*
X145042736Y-60663206D01*
X144878794Y-60499264D01*
X144686019Y-60370456D01*
X144471818Y-60281731D01*
X144244424Y-60236500D01*
X144012576Y-60236500D01*
X143785182Y-60281731D01*
X143570981Y-60370456D01*
X143378206Y-60499264D01*
X143214264Y-60663206D01*
X143085456Y-60855981D01*
X142996731Y-61070182D01*
X142951500Y-61297576D01*
X142765500Y-61297576D01*
X142720269Y-61070182D01*
X142631544Y-60855981D01*
X142502736Y-60663206D01*
X142338794Y-60499264D01*
X142146019Y-60370456D01*
X141931818Y-60281731D01*
X141704424Y-60236500D01*
X141472576Y-60236500D01*
X141245182Y-60281731D01*
X141030981Y-60370456D01*
X140838206Y-60499264D01*
X140674264Y-60663206D01*
X140545456Y-60855981D01*
X140456731Y-61070182D01*
X140411500Y-61297576D01*
X140227082Y-61297576D01*
X140227082Y-60563500D01*
X140220768Y-60499397D01*
X140202070Y-60437757D01*
X140171706Y-60380950D01*
X140130843Y-60331157D01*
X140081050Y-60290294D01*
X140024243Y-60259930D01*
X139962603Y-60241232D01*
X139898500Y-60234918D01*
X138198500Y-60234918D01*
X138134397Y-60241232D01*
X138072757Y-60259930D01*
X138015950Y-60290294D01*
X137966157Y-60331157D01*
X137925294Y-60380950D01*
X137894930Y-60437757D01*
X137876232Y-60499397D01*
X137869918Y-60563500D01*
X125052000Y-60563500D01*
X125052000Y-58753606D01*
X125553606Y-58252000D01*
X164006394Y-58252000D01*
X164548001Y-58793607D01*
G37*
X164548001Y-58793607D02*
X164548000Y-109862394D01*
X164062394Y-110348000D01*
X125497606Y-110348000D01*
X125052000Y-109902394D01*
X125052000Y-106204076D01*
X126223000Y-106204076D01*
X126223000Y-106435924D01*
X126268231Y-106663318D01*
X126356956Y-106877519D01*
X126485764Y-107070294D01*
X126649706Y-107234236D01*
X126842481Y-107363044D01*
X127056682Y-107451769D01*
X127284076Y-107497000D01*
X127515924Y-107497000D01*
X127743318Y-107451769D01*
X127957519Y-107363044D01*
X128150294Y-107234236D01*
X128314236Y-107070294D01*
X128355594Y-107008397D01*
X130303000Y-107008397D01*
X130303000Y-107151603D01*
X130330938Y-107292058D01*
X130385741Y-107424364D01*
X130465302Y-107543436D01*
X130566564Y-107644698D01*
X130685636Y-107724259D01*
X130817942Y-107779062D01*
X130958397Y-107807000D01*
X131101603Y-107807000D01*
X131242058Y-107779062D01*
X131374364Y-107724259D01*
X131493436Y-107644698D01*
X131594698Y-107543436D01*
X131602339Y-107532000D01*
X149170797Y-107532000D01*
X149193002Y-107534187D01*
X149215207Y-107532000D01*
X149281609Y-107525460D01*
X149366812Y-107499614D01*
X149445335Y-107457643D01*
X149514161Y-107401159D01*
X149528325Y-107383900D01*
X151503906Y-105408320D01*
X151521159Y-105394161D01*
X151577643Y-105325335D01*
X151619614Y-105246812D01*
X151619614Y-105246811D01*
X151645460Y-105161610D01*
X151654187Y-105073002D01*
X151652000Y-105050797D01*
X151652000Y-103762339D01*
X151663436Y-103754698D01*
X151764698Y-103653436D01*
X151844259Y-103534364D01*
X151899062Y-103402058D01*
X151927000Y-103261603D01*
X151927000Y-103118397D01*
X151899062Y-102977942D01*
X151844259Y-102845636D01*
X151764698Y-102726564D01*
X151663436Y-102625302D01*
X151544364Y-102545741D01*
X151412058Y-102490938D01*
X151271603Y-102463000D01*
X151128397Y-102463000D01*
X150987942Y-102490938D01*
X150855636Y-102545741D01*
X150736564Y-102625302D01*
X150635302Y-102726564D01*
X150555741Y-102845636D01*
X150500938Y-102977942D01*
X150473000Y-103118397D01*
X150473000Y-103261603D01*
X150500938Y-103402058D01*
X150555741Y-103534364D01*
X150635302Y-103653436D01*
X150736564Y-103754698D01*
X150748000Y-103762339D01*
X150748000Y-103777889D01*
X150748001Y-103777899D01*
X150748000Y-104885778D01*
X149005779Y-106628000D01*
X131602339Y-106628000D01*
X131594698Y-106616564D01*
X131493436Y-106515302D01*
X131374364Y-106435741D01*
X131242058Y-106380938D01*
X131101603Y-106353000D01*
X130958397Y-106353000D01*
X130817942Y-106380938D01*
X130685636Y-106435741D01*
X130566564Y-106515302D01*
X130465302Y-106616564D01*
X130385741Y-106735636D01*
X130330938Y-106867942D01*
X130303000Y-107008397D01*
X128355594Y-107008397D01*
X128443044Y-106877519D01*
X128531769Y-106663318D01*
X128577000Y-106435924D01*
X128577000Y-106204076D01*
X128531769Y-105976682D01*
X128443044Y-105762481D01*
X128314236Y-105569706D01*
X128150294Y-105405764D01*
X127957519Y-105276956D01*
X127743318Y-105188231D01*
X127515924Y-105143000D01*
X127284076Y-105143000D01*
X127056682Y-105188231D01*
X126842481Y-105276956D01*
X126649706Y-105405764D01*
X126485764Y-105569706D01*
X126356956Y-105762481D01*
X126268231Y-105976682D01*
X126223000Y-106204076D01*
X125052000Y-106204076D01*
X125052000Y-103664076D01*
X126223000Y-103664076D01*
X126223000Y-103895924D01*
X126268231Y-104123318D01*
X126356956Y-104337519D01*
X126485764Y-104530294D01*
X126649706Y-104694236D01*
X126842481Y-104823044D01*
X127056682Y-104911769D01*
X127284076Y-104957000D01*
X127515924Y-104957000D01*
X127743318Y-104911769D01*
X127957519Y-104823044D01*
X128150294Y-104694236D01*
X128314236Y-104530294D01*
X128443044Y-104337519D01*
X128531769Y-104123318D01*
X128577000Y-103895924D01*
X128577000Y-103664076D01*
X128531769Y-103436682D01*
X128443044Y-103222481D01*
X128314236Y-103029706D01*
X128150294Y-102865764D01*
X127957519Y-102736956D01*
X127743318Y-102648231D01*
X127515924Y-102603000D01*
X127284076Y-102603000D01*
X127056682Y-102648231D01*
X126842481Y-102736956D01*
X126649706Y-102865764D01*
X126485764Y-103029706D01*
X126356956Y-103222481D01*
X126268231Y-103436682D01*
X126223000Y-103664076D01*
X125052000Y-103664076D01*
X125052000Y-101124076D01*
X126223000Y-101124076D01*
X126223000Y-101355924D01*
X126268231Y-101583318D01*
X126356956Y-101797519D01*
X126485764Y-101990294D01*
X126649706Y-102154236D01*
X126842481Y-102283044D01*
X127056682Y-102371769D01*
X127284076Y-102417000D01*
X127515924Y-102417000D01*
X127743318Y-102371769D01*
X127957519Y-102283044D01*
X128150294Y-102154236D01*
X128314236Y-101990294D01*
X128443044Y-101797519D01*
X128531769Y-101583318D01*
X128577000Y-101355924D01*
X128577000Y-101124076D01*
X128531769Y-100896682D01*
X128443044Y-100682481D01*
X128314236Y-100489706D01*
X128150294Y-100325764D01*
X127957519Y-100196956D01*
X127743318Y-100108231D01*
X127515924Y-100063000D01*
X127284076Y-100063000D01*
X127056682Y-100108231D01*
X126842481Y-100196956D01*
X126649706Y-100325764D01*
X126485764Y-100489706D01*
X126356956Y-100682481D01*
X126268231Y-100896682D01*
X126223000Y-101124076D01*
X125052000Y-101124076D01*
X125052000Y-98584076D01*
X126223000Y-98584076D01*
X126223000Y-98815924D01*
X126268231Y-99043318D01*
X126356956Y-99257519D01*
X126485764Y-99450294D01*
X126649706Y-99614236D01*
X126842481Y-99743044D01*
X127056682Y-99831769D01*
X127284076Y-99877000D01*
X127515924Y-99877000D01*
X127743318Y-99831769D01*
X127957519Y-99743044D01*
X128150294Y-99614236D01*
X128314236Y-99450294D01*
X128443044Y-99257519D01*
X128531769Y-99043318D01*
X128577000Y-98815924D01*
X128577000Y-98584076D01*
X128531769Y-98356682D01*
X128443044Y-98142481D01*
X128314236Y-97949706D01*
X128150294Y-97785764D01*
X127957519Y-97656956D01*
X127743318Y-97568231D01*
X127515924Y-97523000D01*
X127284076Y-97523000D01*
X127056682Y-97568231D01*
X126842481Y-97656956D01*
X126649706Y-97785764D01*
X126485764Y-97949706D01*
X126356956Y-98142481D01*
X126268231Y-98356682D01*
X126223000Y-98584076D01*
X125052000Y-98584076D01*
X125052000Y-96044076D01*
X126223000Y-96044076D01*
X126223000Y-96275924D01*
X126268231Y-96503318D01*
X126356956Y-96717519D01*
X126485764Y-96910294D01*
X126649706Y-97074236D01*
X126842481Y-97203044D01*
X127056682Y-97291769D01*
X127284076Y-97337000D01*
X127515924Y-97337000D01*
X127743318Y-97291769D01*
X127957519Y-97203044D01*
X128150294Y-97074236D01*
X128314236Y-96910294D01*
X128443044Y-96717519D01*
X128531769Y-96503318D01*
X128577000Y-96275924D01*
X128577000Y-96044076D01*
X128531769Y-95816682D01*
X128443044Y-95602481D01*
X128314236Y-95409706D01*
X128150294Y-95245764D01*
X127957519Y-95116956D01*
X127743318Y-95028231D01*
X127515924Y-94983000D01*
X127284076Y-94983000D01*
X127056682Y-95028231D01*
X126842481Y-95116956D01*
X126649706Y-95245764D01*
X126485764Y-95409706D01*
X126356956Y-95602481D01*
X126268231Y-95816682D01*
X126223000Y-96044076D01*
X125052000Y-96044076D01*
X125052000Y-93504076D01*
X126223000Y-93504076D01*
X126223000Y-93735924D01*
X126268231Y-93963318D01*
X126356956Y-94177519D01*
X126485764Y-94370294D01*
X126649706Y-94534236D01*
X126842481Y-94663044D01*
X127056682Y-94751769D01*
X127284076Y-94797000D01*
X127515924Y-94797000D01*
X127743318Y-94751769D01*
X127957519Y-94663044D01*
X128150294Y-94534236D01*
X128314236Y-94370294D01*
X128443044Y-94177519D01*
X128480870Y-94086197D01*
X140855140Y-94086197D01*
X140855140Y-94229403D01*
X140883078Y-94369858D01*
X140937881Y-94502164D01*
X141017442Y-94621236D01*
X141118704Y-94722498D01*
X141128500Y-94729044D01*
X141136680Y-94812092D01*
X141162526Y-94897294D01*
X141162527Y-94897295D01*
X141204498Y-94975818D01*
X141260982Y-95044644D01*
X141278236Y-95058804D01*
X142380400Y-96160970D01*
X142394556Y-96178219D01*
X142463382Y-96234703D01*
X142540502Y-96275924D01*
X142541905Y-96276674D01*
X142627107Y-96302520D01*
X142715714Y-96311247D01*
X142737919Y-96309060D01*
X153129717Y-96309060D01*
X154187743Y-97367088D01*
X154185060Y-97380577D01*
X154185060Y-97523783D01*
X154212998Y-97664238D01*
X154267801Y-97796544D01*
X154347362Y-97915616D01*
X154448624Y-98016878D01*
X154567696Y-98096439D01*
X154700002Y-98151242D01*
X154840457Y-98179180D01*
X154983663Y-98179180D01*
X155124118Y-98151242D01*
X155256424Y-98096439D01*
X155375496Y-98016878D01*
X155476758Y-97915616D01*
X155556319Y-97796544D01*
X155611122Y-97664238D01*
X155639060Y-97523783D01*
X155639060Y-97380577D01*
X155611122Y-97240122D01*
X155556319Y-97107816D01*
X155476758Y-96988744D01*
X155375496Y-96887482D01*
X155256424Y-96807921D01*
X155124118Y-96753118D01*
X154983663Y-96725180D01*
X154840457Y-96725180D01*
X154826968Y-96727863D01*
X153652263Y-95553160D01*
X153638099Y-95535901D01*
X153569273Y-95479417D01*
X153490750Y-95437446D01*
X153405547Y-95411600D01*
X153339145Y-95405060D01*
X153316940Y-95402873D01*
X153294735Y-95405060D01*
X142902940Y-95405060D01*
X142132976Y-94635098D01*
X142146838Y-94621236D01*
X142226399Y-94502164D01*
X142281202Y-94369858D01*
X142292925Y-94310922D01*
X142337421Y-94418344D01*
X142416982Y-94537416D01*
X142518244Y-94638678D01*
X142637316Y-94718239D01*
X142769622Y-94773042D01*
X142910077Y-94800980D01*
X143053283Y-94800980D01*
X143193738Y-94773042D01*
X143326044Y-94718239D01*
X143445116Y-94638678D01*
X143546378Y-94537416D01*
X143625939Y-94418344D01*
X143680742Y-94286038D01*
X143708680Y-94145583D01*
X143708680Y-94002377D01*
X143680742Y-93861922D01*
X143625939Y-93729616D01*
X143546378Y-93610544D01*
X143445116Y-93509282D01*
X143433680Y-93501641D01*
X143433680Y-84685403D01*
X147736187Y-80382897D01*
X149260000Y-80382897D01*
X149260000Y-80526103D01*
X149287938Y-80666558D01*
X149342741Y-80798864D01*
X149422302Y-80917936D01*
X149523564Y-81019198D01*
X149642636Y-81098759D01*
X149774942Y-81153562D01*
X149915397Y-81181500D01*
X150058603Y-81181500D01*
X150199058Y-81153562D01*
X150331364Y-81098759D01*
X150450436Y-81019198D01*
X150551698Y-80917936D01*
X150559339Y-80906500D01*
X155256661Y-80906500D01*
X155264302Y-80917936D01*
X155365564Y-81019198D01*
X155484636Y-81098759D01*
X155616942Y-81153562D01*
X155757397Y-81181500D01*
X155900603Y-81181500D01*
X156041058Y-81153562D01*
X156173364Y-81098759D01*
X156292436Y-81019198D01*
X156393698Y-80917936D01*
X156473259Y-80798864D01*
X156528062Y-80666558D01*
X156556000Y-80526103D01*
X156556000Y-80382897D01*
X156528062Y-80242442D01*
X156473259Y-80110136D01*
X156393698Y-79991064D01*
X156292436Y-79889802D01*
X156173364Y-79810241D01*
X156041058Y-79755438D01*
X155900603Y-79727500D01*
X155757397Y-79727500D01*
X155616942Y-79755438D01*
X155484636Y-79810241D01*
X155365564Y-79889802D01*
X155264302Y-79991064D01*
X155256661Y-80002500D01*
X150559339Y-80002500D01*
X150551698Y-79991064D01*
X150450436Y-79889802D01*
X150331364Y-79810241D01*
X150199058Y-79755438D01*
X150058603Y-79727500D01*
X149915397Y-79727500D01*
X149774942Y-79755438D01*
X149642636Y-79810241D01*
X149523564Y-79889802D01*
X149422302Y-79991064D01*
X149342741Y-80110136D01*
X149287938Y-80242442D01*
X149260000Y-80382897D01*
X147736187Y-80382897D01*
X148927085Y-79192000D01*
X150252861Y-79192000D01*
X150260502Y-79203436D01*
X150361764Y-79304698D01*
X150480836Y-79384259D01*
X150613142Y-79439062D01*
X150753597Y-79467000D01*
X150896803Y-79467000D01*
X151037258Y-79439062D01*
X151169564Y-79384259D01*
X151288636Y-79304698D01*
X151389898Y-79203436D01*
X151397539Y-79192000D01*
X154113661Y-79192000D01*
X154121302Y-79203436D01*
X154222564Y-79304698D01*
X154341636Y-79384259D01*
X154473942Y-79439062D01*
X154614397Y-79467000D01*
X154757603Y-79467000D01*
X154898058Y-79439062D01*
X155030364Y-79384259D01*
X155149436Y-79304698D01*
X155250698Y-79203436D01*
X155330259Y-79084364D01*
X155385062Y-78952058D01*
X155413000Y-78811603D01*
X155413000Y-78668397D01*
X155385062Y-78527942D01*
X155330259Y-78395636D01*
X155250698Y-78276564D01*
X155149436Y-78175302D01*
X155030364Y-78095741D01*
X154898058Y-78040938D01*
X154757603Y-78013000D01*
X154614397Y-78013000D01*
X154473942Y-78040938D01*
X154341636Y-78095741D01*
X154222564Y-78175302D01*
X154121302Y-78276564D01*
X154113661Y-78288000D01*
X151397539Y-78288000D01*
X151389898Y-78276564D01*
X151288636Y-78175302D01*
X151169564Y-78095741D01*
X151037258Y-78040938D01*
X150896803Y-78013000D01*
X150753597Y-78013000D01*
X150613142Y-78040938D01*
X150480836Y-78095741D01*
X150361764Y-78175302D01*
X150260502Y-78276564D01*
X150252861Y-78288000D01*
X148762064Y-78288000D01*
X148739859Y-78285813D01*
X148651252Y-78294540D01*
X148631422Y-78300556D01*
X148566050Y-78320386D01*
X148487527Y-78362357D01*
X148418701Y-78418841D01*
X148404546Y-78436089D01*
X142677780Y-84162857D01*
X142660521Y-84177021D01*
X142604038Y-84245847D01*
X142562066Y-84324371D01*
X142536220Y-84409573D01*
X142527493Y-84498180D01*
X142529680Y-84520385D01*
X142529681Y-93501640D01*
X142518244Y-93509282D01*
X142416982Y-93610544D01*
X142337421Y-93729616D01*
X142282618Y-93861922D01*
X142270895Y-93920858D01*
X142226399Y-93813436D01*
X142146838Y-93694364D01*
X142045576Y-93593102D01*
X141926504Y-93513541D01*
X141794198Y-93458738D01*
X141653743Y-93430800D01*
X141510537Y-93430800D01*
X141370082Y-93458738D01*
X141237776Y-93513541D01*
X141118704Y-93593102D01*
X141017442Y-93694364D01*
X140937881Y-93813436D01*
X140883078Y-93945742D01*
X140855140Y-94086197D01*
X128480870Y-94086197D01*
X128531769Y-93963318D01*
X128577000Y-93735924D01*
X128577000Y-93504076D01*
X128531769Y-93276682D01*
X128443044Y-93062481D01*
X128314236Y-92869706D01*
X128150294Y-92705764D01*
X127957519Y-92576956D01*
X127743318Y-92488231D01*
X127515924Y-92443000D01*
X127284076Y-92443000D01*
X127056682Y-92488231D01*
X126842481Y-92576956D01*
X126649706Y-92705764D01*
X126485764Y-92869706D01*
X126356956Y-93062481D01*
X126268231Y-93276682D01*
X126223000Y-93504076D01*
X125052000Y-93504076D01*
X125052000Y-90964076D01*
X126223000Y-90964076D01*
X126223000Y-91195924D01*
X126268231Y-91423318D01*
X126356956Y-91637519D01*
X126485764Y-91830294D01*
X126649706Y-91994236D01*
X126842481Y-92123044D01*
X127056682Y-92211769D01*
X127284076Y-92257000D01*
X127515924Y-92257000D01*
X127743318Y-92211769D01*
X127957519Y-92123044D01*
X128150294Y-91994236D01*
X128314236Y-91830294D01*
X128443044Y-91637519D01*
X128531769Y-91423318D01*
X128577000Y-91195924D01*
X128577000Y-90964076D01*
X128531769Y-90736682D01*
X128443044Y-90522481D01*
X128314236Y-90329706D01*
X128150294Y-90165764D01*
X127957519Y-90036956D01*
X127743318Y-89948231D01*
X127515924Y-89903000D01*
X127284076Y-89903000D01*
X127056682Y-89948231D01*
X126842481Y-90036956D01*
X126649706Y-90165764D01*
X126485764Y-90329706D01*
X126356956Y-90522481D01*
X126268231Y-90736682D01*
X126223000Y-90964076D01*
X125052000Y-90964076D01*
X125052000Y-88424076D01*
X126223000Y-88424076D01*
X126223000Y-88655924D01*
X126268231Y-88883318D01*
X126356956Y-89097519D01*
X126485764Y-89290294D01*
X126649706Y-89454236D01*
X126842481Y-89583044D01*
X127056682Y-89671769D01*
X127284076Y-89717000D01*
X127515924Y-89717000D01*
X127743318Y-89671769D01*
X127957519Y-89583044D01*
X128150294Y-89454236D01*
X128314236Y-89290294D01*
X128443044Y-89097519D01*
X128531769Y-88883318D01*
X128577000Y-88655924D01*
X128577000Y-88424076D01*
X128531769Y-88196682D01*
X128443044Y-87982481D01*
X128314236Y-87789706D01*
X128150294Y-87625764D01*
X127957519Y-87496956D01*
X127743318Y-87408231D01*
X127515924Y-87363000D01*
X127284076Y-87363000D01*
X127056682Y-87408231D01*
X126842481Y-87496956D01*
X126649706Y-87625764D01*
X126485764Y-87789706D01*
X126356956Y-87982481D01*
X126268231Y-88196682D01*
X126223000Y-88424076D01*
X125052000Y-88424076D01*
X125052000Y-85884076D01*
X126223000Y-85884076D01*
X126223000Y-86115924D01*
X126268231Y-86343318D01*
X126356956Y-86557519D01*
X126485764Y-86750294D01*
X126649706Y-86914236D01*
X126842481Y-87043044D01*
X127056682Y-87131769D01*
X127284076Y-87177000D01*
X127515924Y-87177000D01*
X127743318Y-87131769D01*
X127957519Y-87043044D01*
X128150294Y-86914236D01*
X128314236Y-86750294D01*
X128443044Y-86557519D01*
X128531769Y-86343318D01*
X128577000Y-86115924D01*
X128577000Y-85884076D01*
X128531769Y-85656682D01*
X128443044Y-85442481D01*
X128314236Y-85249706D01*
X128150294Y-85085764D01*
X127957519Y-84956956D01*
X127743318Y-84868231D01*
X127515924Y-84823000D01*
X127284076Y-84823000D01*
X127056682Y-84868231D01*
X126842481Y-84956956D01*
X126649706Y-85085764D01*
X126485764Y-85249706D01*
X126356956Y-85442481D01*
X126268231Y-85656682D01*
X126223000Y-85884076D01*
X125052000Y-85884076D01*
X125052000Y-83344076D01*
X126223000Y-83344076D01*
X126223000Y-83575924D01*
X126268231Y-83803318D01*
X126356956Y-84017519D01*
X126485764Y-84210294D01*
X126649706Y-84374236D01*
X126842481Y-84503044D01*
X127056682Y-84591769D01*
X127284076Y-84637000D01*
X127515924Y-84637000D01*
X127743318Y-84591769D01*
X127957519Y-84503044D01*
X128150294Y-84374236D01*
X128314236Y-84210294D01*
X128443044Y-84017519D01*
X128531769Y-83803318D01*
X128577000Y-83575924D01*
X128577000Y-83344076D01*
X128531769Y-83116682D01*
X128443044Y-82902481D01*
X128314236Y-82709706D01*
X128150294Y-82545764D01*
X127957519Y-82416956D01*
X127743318Y-82328231D01*
X127515924Y-82283000D01*
X127284076Y-82283000D01*
X127056682Y-82328231D01*
X126842481Y-82416956D01*
X126649706Y-82545764D01*
X126485764Y-82709706D01*
X126356956Y-82902481D01*
X126268231Y-83116682D01*
X126223000Y-83344076D01*
X125052000Y-83344076D01*
X125052000Y-80804076D01*
X126223000Y-80804076D01*
X126223000Y-81035924D01*
X126268231Y-81263318D01*
X126356956Y-81477519D01*
X126485764Y-81670294D01*
X126649706Y-81834236D01*
X126842481Y-81963044D01*
X127056682Y-82051769D01*
X127284076Y-82097000D01*
X127515924Y-82097000D01*
X127743318Y-82051769D01*
X127957519Y-81963044D01*
X128150294Y-81834236D01*
X128314236Y-81670294D01*
X128443044Y-81477519D01*
X128531769Y-81263318D01*
X128577000Y-81035924D01*
X128577000Y-80804076D01*
X128531769Y-80576682D01*
X128443044Y-80362481D01*
X128314236Y-80169706D01*
X128150294Y-80005764D01*
X127957519Y-79876956D01*
X127743318Y-79788231D01*
X127515924Y-79743000D01*
X127284076Y-79743000D01*
X127056682Y-79788231D01*
X126842481Y-79876956D01*
X126649706Y-80005764D01*
X126485764Y-80169706D01*
X126356956Y-80362481D01*
X126268231Y-80576682D01*
X126223000Y-80804076D01*
X125052000Y-80804076D01*
X125052000Y-78264076D01*
X126223000Y-78264076D01*
X126223000Y-78495924D01*
X126268231Y-78723318D01*
X126356956Y-78937519D01*
X126485764Y-79130294D01*
X126649706Y-79294236D01*
X126842481Y-79423044D01*
X127056682Y-79511769D01*
X127284076Y-79557000D01*
X127515924Y-79557000D01*
X127743318Y-79511769D01*
X127957519Y-79423044D01*
X128150294Y-79294236D01*
X128314236Y-79130294D01*
X128443044Y-78937519D01*
X128531769Y-78723318D01*
X128577000Y-78495924D01*
X128577000Y-78264076D01*
X128531769Y-78036682D01*
X128443044Y-77822481D01*
X128314236Y-77629706D01*
X128150294Y-77465764D01*
X127957519Y-77336956D01*
X127743318Y-77248231D01*
X127515924Y-77203000D01*
X127284076Y-77203000D01*
X127056682Y-77248231D01*
X126842481Y-77336956D01*
X126649706Y-77465764D01*
X126485764Y-77629706D01*
X126356956Y-77822481D01*
X126268231Y-78036682D01*
X126223000Y-78264076D01*
X125052000Y-78264076D01*
X125052000Y-74990000D01*
X126221418Y-74990000D01*
X126221418Y-76690000D01*
X126227732Y-76754103D01*
X126246430Y-76815743D01*
X126276794Y-76872550D01*
X126317657Y-76922343D01*
X126367450Y-76963206D01*
X126424257Y-76993570D01*
X126485897Y-77012268D01*
X126550000Y-77018582D01*
X128250000Y-77018582D01*
X128314103Y-77012268D01*
X128375743Y-76993570D01*
X128432550Y-76963206D01*
X128482343Y-76922343D01*
X128523206Y-76872550D01*
X128553570Y-76815743D01*
X128572268Y-76754103D01*
X128578582Y-76690000D01*
X128578582Y-74990000D01*
X128572268Y-74925897D01*
X128553570Y-74864257D01*
X128523206Y-74807450D01*
X128482343Y-74757657D01*
X128432550Y-74716794D01*
X128375743Y-74686430D01*
X128314103Y-74667732D01*
X128250000Y-74661418D01*
X126550000Y-74661418D01*
X126485897Y-74667732D01*
X126424257Y-74686430D01*
X126367450Y-74716794D01*
X126317657Y-74757657D01*
X126276794Y-74807450D01*
X126246430Y-74864257D01*
X126227732Y-74925897D01*
X126221418Y-74990000D01*
X125052000Y-74990000D01*
X125052000Y-71448397D01*
X145743000Y-71448397D01*
X145743000Y-71591603D01*
X145770938Y-71732058D01*
X145825741Y-71864364D01*
X145905302Y-71983436D01*
X146006564Y-72084698D01*
X146125636Y-72164259D01*
X146257942Y-72219062D01*
X146398397Y-72247000D01*
X146541603Y-72247000D01*
X146555093Y-72244317D01*
X149494681Y-75183905D01*
X149508841Y-75201159D01*
X149577667Y-75257643D01*
X149656190Y-75299614D01*
X149741392Y-75325460D01*
X149830000Y-75334187D01*
X149852205Y-75332000D01*
X152107661Y-75332000D01*
X152115302Y-75343436D01*
X152216564Y-75444698D01*
X152335636Y-75524259D01*
X152467942Y-75579062D01*
X152608397Y-75607000D01*
X152751603Y-75607000D01*
X152892058Y-75579062D01*
X153024364Y-75524259D01*
X153143436Y-75444698D01*
X153244698Y-75343436D01*
X153324259Y-75224364D01*
X153379062Y-75092058D01*
X153407000Y-74951603D01*
X153407000Y-74808397D01*
X153379062Y-74667942D01*
X153324259Y-74535636D01*
X153244698Y-74416564D01*
X153143436Y-74315302D01*
X153024364Y-74235741D01*
X152892058Y-74180938D01*
X152751603Y-74153000D01*
X152608397Y-74153000D01*
X152467942Y-74180938D01*
X152335636Y-74235741D01*
X152216564Y-74315302D01*
X152115302Y-74416564D01*
X152107661Y-74428000D01*
X150017224Y-74428000D01*
X147194317Y-71605093D01*
X147197000Y-71591603D01*
X147197000Y-71448397D01*
X147169062Y-71307942D01*
X147114259Y-71175636D01*
X147034698Y-71056564D01*
X146933436Y-70955302D01*
X146814364Y-70875741D01*
X146682058Y-70820938D01*
X146541603Y-70793000D01*
X146398397Y-70793000D01*
X146257942Y-70820938D01*
X146125636Y-70875741D01*
X146006564Y-70955302D01*
X145905302Y-71056564D01*
X145825741Y-71175636D01*
X145770938Y-71307942D01*
X145743000Y-71448397D01*
X125052000Y-71448397D01*
X125052000Y-60563500D01*
X137869918Y-60563500D01*
X137869918Y-62263500D01*
X137876232Y-62327603D01*
X137894930Y-62389243D01*
X137925294Y-62446050D01*
X137966157Y-62495843D01*
X138015950Y-62536706D01*
X138072757Y-62567070D01*
X138134397Y-62585768D01*
X138198500Y-62592082D01*
X139898500Y-62592082D01*
X139962603Y-62585768D01*
X140024243Y-62567070D01*
X140081050Y-62536706D01*
X140130843Y-62495843D01*
X140171706Y-62446050D01*
X140202070Y-62389243D01*
X140220768Y-62327603D01*
X140227082Y-62263500D01*
X140227082Y-61297576D01*
X140411500Y-61297576D01*
X140411500Y-61529424D01*
X140456731Y-61756818D01*
X140545456Y-61971019D01*
X140674264Y-62163794D01*
X140838206Y-62327736D01*
X141030981Y-62456544D01*
X141245182Y-62545269D01*
X141472576Y-62590500D01*
X141704424Y-62590500D01*
X141931818Y-62545269D01*
X142037338Y-62501561D01*
X160215700Y-80679925D01*
X160215701Y-96811260D01*
X160204264Y-96818902D01*
X160103002Y-96920164D01*
X160095361Y-96931600D01*
X157034764Y-96931600D01*
X153588041Y-93484878D01*
X153573877Y-93467619D01*
X153505051Y-93411135D01*
X153426528Y-93369164D01*
X153341325Y-93343318D01*
X153274923Y-93336778D01*
X153252718Y-93334591D01*
X153230513Y-93336778D01*
X147003339Y-93336778D01*
X146995698Y-93325342D01*
X146894436Y-93224080D01*
X146775364Y-93144519D01*
X146643058Y-93089716D01*
X146502603Y-93061778D01*
X146359397Y-93061778D01*
X146218942Y-93089716D01*
X146086636Y-93144519D01*
X145967564Y-93224080D01*
X145866302Y-93325342D01*
X145786741Y-93444414D01*
X145731938Y-93576720D01*
X145704000Y-93717175D01*
X145704000Y-93860381D01*
X145731938Y-94000836D01*
X145786741Y-94133142D01*
X145866302Y-94252214D01*
X145967564Y-94353476D01*
X146086636Y-94433037D01*
X146218942Y-94487840D01*
X146359397Y-94515778D01*
X146502603Y-94515778D01*
X146643058Y-94487840D01*
X146775364Y-94433037D01*
X146894436Y-94353476D01*
X146995698Y-94252214D01*
X147003339Y-94240778D01*
X153065495Y-94240778D01*
X156512221Y-97687505D01*
X156526381Y-97704759D01*
X156595207Y-97761243D01*
X156641083Y-97785764D01*
X156673730Y-97803214D01*
X156758932Y-97829060D01*
X156847539Y-97837787D01*
X156869744Y-97835600D01*
X160095361Y-97835600D01*
X160103002Y-97847036D01*
X160204264Y-97948298D01*
X160323336Y-98027859D01*
X160455642Y-98082662D01*
X160596097Y-98110600D01*
X160739303Y-98110600D01*
X160879758Y-98082662D01*
X161012064Y-98027859D01*
X161131136Y-97948298D01*
X161232398Y-97847036D01*
X161311959Y-97727964D01*
X161366762Y-97595658D01*
X161394700Y-97455203D01*
X161394700Y-97311997D01*
X161366762Y-97171542D01*
X161311959Y-97039236D01*
X161232398Y-96920164D01*
X161131136Y-96818902D01*
X161119700Y-96811261D01*
X161119700Y-80514904D01*
X161121887Y-80492699D01*
X161113160Y-80404092D01*
X161100537Y-80362481D01*
X161087314Y-80318890D01*
X161045343Y-80240367D01*
X160988859Y-80171541D01*
X160971612Y-80157387D01*
X142676561Y-61862338D01*
X142720269Y-61756818D01*
X142765500Y-61529424D01*
X142765500Y-61297576D01*
X142951500Y-61297576D01*
X142951500Y-61529424D01*
X142996731Y-61756818D01*
X143085456Y-61971019D01*
X143214264Y-62163794D01*
X143378206Y-62327736D01*
X143570981Y-62456544D01*
X143785182Y-62545269D01*
X144012576Y-62590500D01*
X144244424Y-62590500D01*
X144471818Y-62545269D01*
X144686019Y-62456544D01*
X144878794Y-62327736D01*
X145042736Y-62163794D01*
X145171544Y-61971019D01*
X145260269Y-61756818D01*
X145305500Y-61529424D01*
X145305500Y-61297576D01*
X145491500Y-61297576D01*
X145491500Y-61529424D01*
X145536731Y-61756818D01*
X145625456Y-61971019D01*
X145754264Y-62163794D01*
X145918206Y-62327736D01*
X146110981Y-62456544D01*
X146325182Y-62545269D01*
X146552576Y-62590500D01*
X146784424Y-62590500D01*
X147011818Y-62545269D01*
X147226019Y-62456544D01*
X147418794Y-62327736D01*
X147582736Y-62163794D01*
X147711544Y-61971019D01*
X147800269Y-61756818D01*
X147845500Y-61529424D01*
X147845500Y-61297576D01*
X147800269Y-61070182D01*
X147711544Y-60855981D01*
X147582736Y-60663206D01*
X147418794Y-60499264D01*
X147226019Y-60370456D01*
X147011818Y-60281731D01*
X146784424Y-60236500D01*
X146552576Y-60236500D01*
X146325182Y-60281731D01*
X146110981Y-60370456D01*
X145918206Y-60499264D01*
X145754264Y-60663206D01*
X145625456Y-60855981D01*
X145536731Y-61070182D01*
X145491500Y-61297576D01*
X145305500Y-61297576D01*
X145260269Y-61070182D01*
X145171544Y-60855981D01*
X145042736Y-60663206D01*
X144878794Y-60499264D01*
X144686019Y-60370456D01*
X144471818Y-60281731D01*
X144244424Y-60236500D01*
X144012576Y-60236500D01*
X143785182Y-60281731D01*
X143570981Y-60370456D01*
X143378206Y-60499264D01*
X143214264Y-60663206D01*
X143085456Y-60855981D01*
X142996731Y-61070182D01*
X142951500Y-61297576D01*
X142765500Y-61297576D01*
X142720269Y-61070182D01*
X142631544Y-60855981D01*
X142502736Y-60663206D01*
X142338794Y-60499264D01*
X142146019Y-60370456D01*
X141931818Y-60281731D01*
X141704424Y-60236500D01*
X141472576Y-60236500D01*
X141245182Y-60281731D01*
X141030981Y-60370456D01*
X140838206Y-60499264D01*
X140674264Y-60663206D01*
X140545456Y-60855981D01*
X140456731Y-61070182D01*
X140411500Y-61297576D01*
X140227082Y-61297576D01*
X140227082Y-60563500D01*
X140220768Y-60499397D01*
X140202070Y-60437757D01*
X140171706Y-60380950D01*
X140130843Y-60331157D01*
X140081050Y-60290294D01*
X140024243Y-60259930D01*
X139962603Y-60241232D01*
X139898500Y-60234918D01*
X138198500Y-60234918D01*
X138134397Y-60241232D01*
X138072757Y-60259930D01*
X138015950Y-60290294D01*
X137966157Y-60331157D01*
X137925294Y-60380950D01*
X137894930Y-60437757D01*
X137876232Y-60499397D01*
X137869918Y-60563500D01*
X125052000Y-60563500D01*
X125052000Y-58753606D01*
X125553606Y-58252000D01*
X164006394Y-58252000D01*
X164548001Y-58793607D01*
M02*
