G04 #@! TF.GenerationSoftware,KiCad,Pcbnew,(5.1.5)-3*
G04 #@! TF.CreationDate,2020-09-08T23:30:12-05:00*
G04 #@! TF.ProjectId,video-transceiver,76696465-6f2d-4747-9261-6e7363656976,rev?*
G04 #@! TF.SameCoordinates,Original*
G04 #@! TF.FileFunction,Soldermask,Bot*
G04 #@! TF.FilePolarity,Negative*
%FSLAX46Y46*%
G04 Gerber Fmt 4.6, Leading zero omitted, Abs format (unit mm)*
G04 Created by KiCad (PCBNEW (5.1.5)-3) date 2020-09-08 23:30:12*
%MOMM*%
%LPD*%
G04 APERTURE LIST*
%ADD10C,0.100000*%
G04 APERTURE END LIST*
D10*
G36*
X127513512Y-107963927D02*
G01*
X127662812Y-107993624D01*
X127826784Y-108061544D01*
X127974354Y-108160147D01*
X128099853Y-108285646D01*
X128198456Y-108433216D01*
X128266376Y-108597188D01*
X128301000Y-108771259D01*
X128301000Y-108948741D01*
X128266376Y-109122812D01*
X128198456Y-109286784D01*
X128099853Y-109434354D01*
X127974354Y-109559853D01*
X127826784Y-109658456D01*
X127662812Y-109726376D01*
X127513512Y-109756073D01*
X127488742Y-109761000D01*
X127311258Y-109761000D01*
X127286488Y-109756073D01*
X127137188Y-109726376D01*
X126973216Y-109658456D01*
X126825646Y-109559853D01*
X126700147Y-109434354D01*
X126601544Y-109286784D01*
X126533624Y-109122812D01*
X126499000Y-108948741D01*
X126499000Y-108771259D01*
X126533624Y-108597188D01*
X126601544Y-108433216D01*
X126700147Y-108285646D01*
X126825646Y-108160147D01*
X126973216Y-108061544D01*
X127137188Y-107993624D01*
X127286488Y-107963927D01*
X127311258Y-107959000D01*
X127488742Y-107959000D01*
X127513512Y-107963927D01*
G37*
G36*
X127513512Y-105423927D02*
G01*
X127662812Y-105453624D01*
X127826784Y-105521544D01*
X127974354Y-105620147D01*
X128099853Y-105745646D01*
X128198456Y-105893216D01*
X128266376Y-106057188D01*
X128301000Y-106231259D01*
X128301000Y-106408741D01*
X128266376Y-106582812D01*
X128198456Y-106746784D01*
X128099853Y-106894354D01*
X127974354Y-107019853D01*
X127826784Y-107118456D01*
X127662812Y-107186376D01*
X127513512Y-107216073D01*
X127488742Y-107221000D01*
X127311258Y-107221000D01*
X127286488Y-107216073D01*
X127137188Y-107186376D01*
X126973216Y-107118456D01*
X126825646Y-107019853D01*
X126700147Y-106894354D01*
X126601544Y-106746784D01*
X126533624Y-106582812D01*
X126499000Y-106408741D01*
X126499000Y-106231259D01*
X126533624Y-106057188D01*
X126601544Y-105893216D01*
X126700147Y-105745646D01*
X126825646Y-105620147D01*
X126973216Y-105521544D01*
X127137188Y-105453624D01*
X127286488Y-105423927D01*
X127311258Y-105419000D01*
X127488742Y-105419000D01*
X127513512Y-105423927D01*
G37*
G36*
X127513512Y-102883927D02*
G01*
X127662812Y-102913624D01*
X127826784Y-102981544D01*
X127974354Y-103080147D01*
X128099853Y-103205646D01*
X128198456Y-103353216D01*
X128266376Y-103517188D01*
X128301000Y-103691259D01*
X128301000Y-103868741D01*
X128266376Y-104042812D01*
X128198456Y-104206784D01*
X128099853Y-104354354D01*
X127974354Y-104479853D01*
X127826784Y-104578456D01*
X127662812Y-104646376D01*
X127513512Y-104676073D01*
X127488742Y-104681000D01*
X127311258Y-104681000D01*
X127286488Y-104676073D01*
X127137188Y-104646376D01*
X126973216Y-104578456D01*
X126825646Y-104479853D01*
X126700147Y-104354354D01*
X126601544Y-104206784D01*
X126533624Y-104042812D01*
X126499000Y-103868741D01*
X126499000Y-103691259D01*
X126533624Y-103517188D01*
X126601544Y-103353216D01*
X126700147Y-103205646D01*
X126825646Y-103080147D01*
X126973216Y-102981544D01*
X127137188Y-102913624D01*
X127286488Y-102883927D01*
X127311258Y-102879000D01*
X127488742Y-102879000D01*
X127513512Y-102883927D01*
G37*
G36*
X127513512Y-100343927D02*
G01*
X127662812Y-100373624D01*
X127826784Y-100441544D01*
X127974354Y-100540147D01*
X128099853Y-100665646D01*
X128198456Y-100813216D01*
X128266376Y-100977188D01*
X128301000Y-101151259D01*
X128301000Y-101328741D01*
X128266376Y-101502812D01*
X128198456Y-101666784D01*
X128099853Y-101814354D01*
X127974354Y-101939853D01*
X127826784Y-102038456D01*
X127662812Y-102106376D01*
X127513512Y-102136073D01*
X127488742Y-102141000D01*
X127311258Y-102141000D01*
X127286488Y-102136073D01*
X127137188Y-102106376D01*
X126973216Y-102038456D01*
X126825646Y-101939853D01*
X126700147Y-101814354D01*
X126601544Y-101666784D01*
X126533624Y-101502812D01*
X126499000Y-101328741D01*
X126499000Y-101151259D01*
X126533624Y-100977188D01*
X126601544Y-100813216D01*
X126700147Y-100665646D01*
X126825646Y-100540147D01*
X126973216Y-100441544D01*
X127137188Y-100373624D01*
X127286488Y-100343927D01*
X127311258Y-100339000D01*
X127488742Y-100339000D01*
X127513512Y-100343927D01*
G37*
G36*
X127513512Y-97803927D02*
G01*
X127662812Y-97833624D01*
X127826784Y-97901544D01*
X127974354Y-98000147D01*
X128099853Y-98125646D01*
X128198456Y-98273216D01*
X128266376Y-98437188D01*
X128301000Y-98611259D01*
X128301000Y-98788741D01*
X128266376Y-98962812D01*
X128198456Y-99126784D01*
X128099853Y-99274354D01*
X127974354Y-99399853D01*
X127826784Y-99498456D01*
X127662812Y-99566376D01*
X127513512Y-99596073D01*
X127488742Y-99601000D01*
X127311258Y-99601000D01*
X127286488Y-99596073D01*
X127137188Y-99566376D01*
X126973216Y-99498456D01*
X126825646Y-99399853D01*
X126700147Y-99274354D01*
X126601544Y-99126784D01*
X126533624Y-98962812D01*
X126499000Y-98788741D01*
X126499000Y-98611259D01*
X126533624Y-98437188D01*
X126601544Y-98273216D01*
X126700147Y-98125646D01*
X126825646Y-98000147D01*
X126973216Y-97901544D01*
X127137188Y-97833624D01*
X127286488Y-97803927D01*
X127311258Y-97799000D01*
X127488742Y-97799000D01*
X127513512Y-97803927D01*
G37*
G36*
X127513512Y-95263927D02*
G01*
X127662812Y-95293624D01*
X127826784Y-95361544D01*
X127974354Y-95460147D01*
X128099853Y-95585646D01*
X128198456Y-95733216D01*
X128266376Y-95897188D01*
X128301000Y-96071259D01*
X128301000Y-96248741D01*
X128266376Y-96422812D01*
X128198456Y-96586784D01*
X128099853Y-96734354D01*
X127974354Y-96859853D01*
X127826784Y-96958456D01*
X127662812Y-97026376D01*
X127513512Y-97056073D01*
X127488742Y-97061000D01*
X127311258Y-97061000D01*
X127286488Y-97056073D01*
X127137188Y-97026376D01*
X126973216Y-96958456D01*
X126825646Y-96859853D01*
X126700147Y-96734354D01*
X126601544Y-96586784D01*
X126533624Y-96422812D01*
X126499000Y-96248741D01*
X126499000Y-96071259D01*
X126533624Y-95897188D01*
X126601544Y-95733216D01*
X126700147Y-95585646D01*
X126825646Y-95460147D01*
X126973216Y-95361544D01*
X127137188Y-95293624D01*
X127286488Y-95263927D01*
X127311258Y-95259000D01*
X127488742Y-95259000D01*
X127513512Y-95263927D01*
G37*
G36*
X127513512Y-92723927D02*
G01*
X127662812Y-92753624D01*
X127826784Y-92821544D01*
X127974354Y-92920147D01*
X128099853Y-93045646D01*
X128198456Y-93193216D01*
X128266376Y-93357188D01*
X128301000Y-93531259D01*
X128301000Y-93708741D01*
X128266376Y-93882812D01*
X128198456Y-94046784D01*
X128099853Y-94194354D01*
X127974354Y-94319853D01*
X127826784Y-94418456D01*
X127662812Y-94486376D01*
X127513512Y-94516073D01*
X127488742Y-94521000D01*
X127311258Y-94521000D01*
X127286488Y-94516073D01*
X127137188Y-94486376D01*
X126973216Y-94418456D01*
X126825646Y-94319853D01*
X126700147Y-94194354D01*
X126601544Y-94046784D01*
X126533624Y-93882812D01*
X126499000Y-93708741D01*
X126499000Y-93531259D01*
X126533624Y-93357188D01*
X126601544Y-93193216D01*
X126700147Y-93045646D01*
X126825646Y-92920147D01*
X126973216Y-92821544D01*
X127137188Y-92753624D01*
X127286488Y-92723927D01*
X127311258Y-92719000D01*
X127488742Y-92719000D01*
X127513512Y-92723927D01*
G37*
G36*
X127513512Y-90183927D02*
G01*
X127662812Y-90213624D01*
X127826784Y-90281544D01*
X127974354Y-90380147D01*
X128099853Y-90505646D01*
X128198456Y-90653216D01*
X128266376Y-90817188D01*
X128301000Y-90991259D01*
X128301000Y-91168741D01*
X128266376Y-91342812D01*
X128198456Y-91506784D01*
X128099853Y-91654354D01*
X127974354Y-91779853D01*
X127826784Y-91878456D01*
X127662812Y-91946376D01*
X127513512Y-91976073D01*
X127488742Y-91981000D01*
X127311258Y-91981000D01*
X127286488Y-91976073D01*
X127137188Y-91946376D01*
X126973216Y-91878456D01*
X126825646Y-91779853D01*
X126700147Y-91654354D01*
X126601544Y-91506784D01*
X126533624Y-91342812D01*
X126499000Y-91168741D01*
X126499000Y-90991259D01*
X126533624Y-90817188D01*
X126601544Y-90653216D01*
X126700147Y-90505646D01*
X126825646Y-90380147D01*
X126973216Y-90281544D01*
X127137188Y-90213624D01*
X127286488Y-90183927D01*
X127311258Y-90179000D01*
X127488742Y-90179000D01*
X127513512Y-90183927D01*
G37*
G36*
X127513512Y-87643927D02*
G01*
X127662812Y-87673624D01*
X127826784Y-87741544D01*
X127974354Y-87840147D01*
X128099853Y-87965646D01*
X128198456Y-88113216D01*
X128266376Y-88277188D01*
X128301000Y-88451259D01*
X128301000Y-88628741D01*
X128266376Y-88802812D01*
X128198456Y-88966784D01*
X128099853Y-89114354D01*
X127974354Y-89239853D01*
X127826784Y-89338456D01*
X127662812Y-89406376D01*
X127513512Y-89436073D01*
X127488742Y-89441000D01*
X127311258Y-89441000D01*
X127286488Y-89436073D01*
X127137188Y-89406376D01*
X126973216Y-89338456D01*
X126825646Y-89239853D01*
X126700147Y-89114354D01*
X126601544Y-88966784D01*
X126533624Y-88802812D01*
X126499000Y-88628741D01*
X126499000Y-88451259D01*
X126533624Y-88277188D01*
X126601544Y-88113216D01*
X126700147Y-87965646D01*
X126825646Y-87840147D01*
X126973216Y-87741544D01*
X127137188Y-87673624D01*
X127286488Y-87643927D01*
X127311258Y-87639000D01*
X127488742Y-87639000D01*
X127513512Y-87643927D01*
G37*
G36*
X127513512Y-85103927D02*
G01*
X127662812Y-85133624D01*
X127826784Y-85201544D01*
X127974354Y-85300147D01*
X128099853Y-85425646D01*
X128198456Y-85573216D01*
X128266376Y-85737188D01*
X128301000Y-85911259D01*
X128301000Y-86088741D01*
X128266376Y-86262812D01*
X128198456Y-86426784D01*
X128099853Y-86574354D01*
X127974354Y-86699853D01*
X127826784Y-86798456D01*
X127662812Y-86866376D01*
X127513512Y-86896073D01*
X127488742Y-86901000D01*
X127311258Y-86901000D01*
X127286488Y-86896073D01*
X127137188Y-86866376D01*
X126973216Y-86798456D01*
X126825646Y-86699853D01*
X126700147Y-86574354D01*
X126601544Y-86426784D01*
X126533624Y-86262812D01*
X126499000Y-86088741D01*
X126499000Y-85911259D01*
X126533624Y-85737188D01*
X126601544Y-85573216D01*
X126700147Y-85425646D01*
X126825646Y-85300147D01*
X126973216Y-85201544D01*
X127137188Y-85133624D01*
X127286488Y-85103927D01*
X127311258Y-85099000D01*
X127488742Y-85099000D01*
X127513512Y-85103927D01*
G37*
G36*
X127513512Y-82563927D02*
G01*
X127662812Y-82593624D01*
X127826784Y-82661544D01*
X127974354Y-82760147D01*
X128099853Y-82885646D01*
X128198456Y-83033216D01*
X128266376Y-83197188D01*
X128301000Y-83371259D01*
X128301000Y-83548741D01*
X128266376Y-83722812D01*
X128198456Y-83886784D01*
X128099853Y-84034354D01*
X127974354Y-84159853D01*
X127826784Y-84258456D01*
X127662812Y-84326376D01*
X127513512Y-84356073D01*
X127488742Y-84361000D01*
X127311258Y-84361000D01*
X127286488Y-84356073D01*
X127137188Y-84326376D01*
X126973216Y-84258456D01*
X126825646Y-84159853D01*
X126700147Y-84034354D01*
X126601544Y-83886784D01*
X126533624Y-83722812D01*
X126499000Y-83548741D01*
X126499000Y-83371259D01*
X126533624Y-83197188D01*
X126601544Y-83033216D01*
X126700147Y-82885646D01*
X126825646Y-82760147D01*
X126973216Y-82661544D01*
X127137188Y-82593624D01*
X127286488Y-82563927D01*
X127311258Y-82559000D01*
X127488742Y-82559000D01*
X127513512Y-82563927D01*
G37*
G36*
X127513512Y-80023927D02*
G01*
X127662812Y-80053624D01*
X127826784Y-80121544D01*
X127974354Y-80220147D01*
X128099853Y-80345646D01*
X128198456Y-80493216D01*
X128266376Y-80657188D01*
X128301000Y-80831259D01*
X128301000Y-81008741D01*
X128266376Y-81182812D01*
X128198456Y-81346784D01*
X128099853Y-81494354D01*
X127974354Y-81619853D01*
X127826784Y-81718456D01*
X127662812Y-81786376D01*
X127513512Y-81816073D01*
X127488742Y-81821000D01*
X127311258Y-81821000D01*
X127286488Y-81816073D01*
X127137188Y-81786376D01*
X126973216Y-81718456D01*
X126825646Y-81619853D01*
X126700147Y-81494354D01*
X126601544Y-81346784D01*
X126533624Y-81182812D01*
X126499000Y-81008741D01*
X126499000Y-80831259D01*
X126533624Y-80657188D01*
X126601544Y-80493216D01*
X126700147Y-80345646D01*
X126825646Y-80220147D01*
X126973216Y-80121544D01*
X127137188Y-80053624D01*
X127286488Y-80023927D01*
X127311258Y-80019000D01*
X127488742Y-80019000D01*
X127513512Y-80023927D01*
G37*
G36*
X127513512Y-77483927D02*
G01*
X127662812Y-77513624D01*
X127826784Y-77581544D01*
X127974354Y-77680147D01*
X128099853Y-77805646D01*
X128198456Y-77953216D01*
X128266376Y-78117188D01*
X128301000Y-78291259D01*
X128301000Y-78468741D01*
X128266376Y-78642812D01*
X128198456Y-78806784D01*
X128099853Y-78954354D01*
X127974354Y-79079853D01*
X127826784Y-79178456D01*
X127662812Y-79246376D01*
X127513512Y-79276073D01*
X127488742Y-79281000D01*
X127311258Y-79281000D01*
X127286488Y-79276073D01*
X127137188Y-79246376D01*
X126973216Y-79178456D01*
X126825646Y-79079853D01*
X126700147Y-78954354D01*
X126601544Y-78806784D01*
X126533624Y-78642812D01*
X126499000Y-78468741D01*
X126499000Y-78291259D01*
X126533624Y-78117188D01*
X126601544Y-77953216D01*
X126700147Y-77805646D01*
X126825646Y-77680147D01*
X126973216Y-77581544D01*
X127137188Y-77513624D01*
X127286488Y-77483927D01*
X127311258Y-77479000D01*
X127488742Y-77479000D01*
X127513512Y-77483927D01*
G37*
G36*
X128301000Y-76741000D02*
G01*
X126499000Y-76741000D01*
X126499000Y-74939000D01*
X128301000Y-74939000D01*
X128301000Y-76741000D01*
G37*
G36*
X146782012Y-60517427D02*
G01*
X146931312Y-60547124D01*
X147095284Y-60615044D01*
X147242854Y-60713647D01*
X147368353Y-60839146D01*
X147466956Y-60986716D01*
X147534876Y-61150688D01*
X147569500Y-61324759D01*
X147569500Y-61502241D01*
X147534876Y-61676312D01*
X147466956Y-61840284D01*
X147368353Y-61987854D01*
X147242854Y-62113353D01*
X147095284Y-62211956D01*
X146931312Y-62279876D01*
X146782012Y-62309573D01*
X146757242Y-62314500D01*
X146579758Y-62314500D01*
X146554988Y-62309573D01*
X146405688Y-62279876D01*
X146241716Y-62211956D01*
X146094146Y-62113353D01*
X145968647Y-61987854D01*
X145870044Y-61840284D01*
X145802124Y-61676312D01*
X145767500Y-61502241D01*
X145767500Y-61324759D01*
X145802124Y-61150688D01*
X145870044Y-60986716D01*
X145968647Y-60839146D01*
X146094146Y-60713647D01*
X146241716Y-60615044D01*
X146405688Y-60547124D01*
X146554988Y-60517427D01*
X146579758Y-60512500D01*
X146757242Y-60512500D01*
X146782012Y-60517427D01*
G37*
G36*
X144242012Y-60517427D02*
G01*
X144391312Y-60547124D01*
X144555284Y-60615044D01*
X144702854Y-60713647D01*
X144828353Y-60839146D01*
X144926956Y-60986716D01*
X144994876Y-61150688D01*
X145029500Y-61324759D01*
X145029500Y-61502241D01*
X144994876Y-61676312D01*
X144926956Y-61840284D01*
X144828353Y-61987854D01*
X144702854Y-62113353D01*
X144555284Y-62211956D01*
X144391312Y-62279876D01*
X144242012Y-62309573D01*
X144217242Y-62314500D01*
X144039758Y-62314500D01*
X144014988Y-62309573D01*
X143865688Y-62279876D01*
X143701716Y-62211956D01*
X143554146Y-62113353D01*
X143428647Y-61987854D01*
X143330044Y-61840284D01*
X143262124Y-61676312D01*
X143227500Y-61502241D01*
X143227500Y-61324759D01*
X143262124Y-61150688D01*
X143330044Y-60986716D01*
X143428647Y-60839146D01*
X143554146Y-60713647D01*
X143701716Y-60615044D01*
X143865688Y-60547124D01*
X144014988Y-60517427D01*
X144039758Y-60512500D01*
X144217242Y-60512500D01*
X144242012Y-60517427D01*
G37*
G36*
X141702012Y-60517427D02*
G01*
X141851312Y-60547124D01*
X142015284Y-60615044D01*
X142162854Y-60713647D01*
X142288353Y-60839146D01*
X142386956Y-60986716D01*
X142454876Y-61150688D01*
X142489500Y-61324759D01*
X142489500Y-61502241D01*
X142454876Y-61676312D01*
X142386956Y-61840284D01*
X142288353Y-61987854D01*
X142162854Y-62113353D01*
X142015284Y-62211956D01*
X141851312Y-62279876D01*
X141702012Y-62309573D01*
X141677242Y-62314500D01*
X141499758Y-62314500D01*
X141474988Y-62309573D01*
X141325688Y-62279876D01*
X141161716Y-62211956D01*
X141014146Y-62113353D01*
X140888647Y-61987854D01*
X140790044Y-61840284D01*
X140722124Y-61676312D01*
X140687500Y-61502241D01*
X140687500Y-61324759D01*
X140722124Y-61150688D01*
X140790044Y-60986716D01*
X140888647Y-60839146D01*
X141014146Y-60713647D01*
X141161716Y-60615044D01*
X141325688Y-60547124D01*
X141474988Y-60517427D01*
X141499758Y-60512500D01*
X141677242Y-60512500D01*
X141702012Y-60517427D01*
G37*
G36*
X139949500Y-62314500D02*
G01*
X138147500Y-62314500D01*
X138147500Y-60512500D01*
X139949500Y-60512500D01*
X139949500Y-62314500D01*
G37*
M02*
