%FSLAX45Y45*%
G04 Gerber Fmt 4.5, Leading zero omitted, Abs format (unit mm)*
G04 Created by KiCad (PCBNEW (5.1.5)-3) date 2020-09-08 23:26:04*
%MOMM*%
%LPD*%
G04 APERTURE LIST*
%TA.AperFunction,Profile*%
%ADD10C,0.050000*%
%TD*%
%ADD11C,0.200000*%
%ADD12C,0.300000*%
G04 APERTURE END LIST*
D10*
X16490000Y-5790000D02*
X12470000Y-5790000D01*
X16490000Y-11070000D02*
X16490000Y-5790000D01*
X12470000Y-11070000D02*
X16490000Y-11070000D01*
X12470000Y-5790000D02*
X12470000Y-11070000D01*
D11*
X12680000Y-6076000D02*
X12720000Y-6116000D01*
X12720000Y-6076000D02*
X12680000Y-6116000D01*
X12680000Y-6203000D02*
X12720000Y-6243000D01*
X12720000Y-6203000D02*
X12680000Y-6243000D01*
X12680000Y-6330000D02*
X12720000Y-6370000D01*
X12720000Y-6330000D02*
X12680000Y-6370000D01*
X12807000Y-6076000D02*
X12847000Y-6116000D01*
X12847000Y-6076000D02*
X12807000Y-6116000D01*
X12807000Y-6203000D02*
X12847000Y-6243000D01*
X12847000Y-6203000D02*
X12807000Y-6243000D01*
X12807000Y-6330000D02*
X12847000Y-6370000D01*
X12847000Y-6330000D02*
X12807000Y-6370000D01*
X12934000Y-6076000D02*
X12974000Y-6116000D01*
X12974000Y-6076000D02*
X12934000Y-6116000D01*
X12934000Y-6203000D02*
X12974000Y-6243000D01*
X12974000Y-6203000D02*
X12934000Y-6243000D01*
X12934000Y-6330000D02*
X12974000Y-6370000D01*
X12974000Y-6330000D02*
X12934000Y-6370000D01*
X13083000Y-10688000D02*
X13123000Y-10728000D01*
X13123000Y-10688000D02*
X13083000Y-10728000D01*
X13162600Y-10495600D02*
X13202600Y-10535600D01*
X13202600Y-10495600D02*
X13162600Y-10535600D01*
X13746800Y-10876600D02*
X13786800Y-10916600D01*
X13786800Y-10876600D02*
X13746800Y-10916600D01*
X13754420Y-8397560D02*
X13794420Y-8437560D01*
X13794420Y-8397560D02*
X13754420Y-8437560D01*
X13899200Y-8590600D02*
X13939200Y-8630600D01*
X13939200Y-8590600D02*
X13899200Y-8630600D01*
X14064300Y-7377750D02*
X14104300Y-7417750D01*
X14104300Y-7377750D02*
X14064300Y-7417750D01*
X14077000Y-6965000D02*
X14117000Y-7005000D01*
X14117000Y-6965000D02*
X14077000Y-7005000D01*
X14102400Y-10876600D02*
X14142400Y-10916600D01*
X14142400Y-10876600D02*
X14102400Y-10916600D01*
X14138214Y-9395780D02*
X14178214Y-9435780D01*
X14178214Y-9395780D02*
X14138214Y-9435780D01*
X14278168Y-9387398D02*
X14318168Y-9427398D01*
X14318168Y-9387398D02*
X14278168Y-9427398D01*
X14354000Y-9483000D02*
X14394000Y-9523000D01*
X14394000Y-9483000D02*
X14354000Y-9523000D01*
X14623100Y-8838879D02*
X14663100Y-8878879D01*
X14663100Y-8838879D02*
X14623100Y-8878879D01*
X14623100Y-9358878D02*
X14663100Y-9398878D01*
X14663100Y-9358878D02*
X14623100Y-9398878D01*
X14627000Y-7132000D02*
X14667000Y-7172000D01*
X14667000Y-7132000D02*
X14627000Y-7172000D01*
X14660000Y-10587000D02*
X14700000Y-10627000D01*
X14700000Y-10587000D02*
X14660000Y-10627000D01*
X14668000Y-9807000D02*
X14708000Y-9847000D01*
X14708000Y-9807000D02*
X14668000Y-9847000D01*
X14668820Y-8621080D02*
X14708820Y-8661080D01*
X14708820Y-8621080D02*
X14668820Y-8661080D01*
X14812000Y-9115499D02*
X14852000Y-9155499D01*
X14852000Y-9115499D02*
X14812000Y-9155499D01*
X14813000Y-9239000D02*
X14853000Y-9279000D01*
X14853000Y-9239000D02*
X14813000Y-9279000D01*
X14893000Y-10587000D02*
X14933000Y-10627000D01*
X14933000Y-10587000D02*
X14893000Y-10627000D01*
X14978700Y-6768150D02*
X15018700Y-6808150D01*
X15018700Y-6768150D02*
X14978700Y-6808150D01*
X14978700Y-8025450D02*
X15018700Y-8065450D01*
X15018700Y-8025450D02*
X14978700Y-8065450D01*
X15062520Y-7854000D02*
X15102520Y-7894000D01*
X15102520Y-7854000D02*
X15062520Y-7894000D01*
X15100000Y-10299000D02*
X15140000Y-10339000D01*
X15140000Y-10299000D02*
X15100000Y-10339000D01*
X15117638Y-8628700D02*
X15157638Y-8668700D01*
X15157638Y-8628700D02*
X15117638Y-8668700D01*
X15248000Y-7468000D02*
X15288000Y-7508000D01*
X15288000Y-7468000D02*
X15248000Y-7508000D01*
X15428026Y-8625144D02*
X15468026Y-8665144D01*
X15468026Y-8625144D02*
X15428026Y-8665144D01*
X15448600Y-7854000D02*
X15488600Y-7894000D01*
X15488600Y-7854000D02*
X15448600Y-7894000D01*
X15470000Y-10870000D02*
X15510000Y-10910000D01*
X15510000Y-10870000D02*
X15470000Y-10910000D01*
X15471206Y-9725218D02*
X15511206Y-9765218D01*
X15511206Y-9725218D02*
X15471206Y-9765218D01*
X15562900Y-8025450D02*
X15602900Y-8065450D01*
X15602900Y-8025450D02*
X15562900Y-8065450D01*
X15644000Y-6120000D02*
X15684000Y-6160000D01*
X15684000Y-6120000D02*
X15644000Y-6160000D01*
X15673390Y-9136700D02*
X15713390Y-9176700D01*
X15713390Y-9136700D02*
X15673390Y-9176700D01*
X15710000Y-10865000D02*
X15750000Y-10905000D01*
X15750000Y-10865000D02*
X15710000Y-10905000D01*
X16040000Y-10170000D02*
X16080000Y-10210000D01*
X16080000Y-10170000D02*
X16040000Y-10210000D01*
X16046770Y-9718360D02*
X16086770Y-9758360D01*
X16086770Y-9718360D02*
X16046770Y-9758360D01*
X16160000Y-8760000D02*
X16200000Y-8800000D01*
X16200000Y-8760000D02*
X16160000Y-8800000D01*
X16278672Y-9237538D02*
X16318672Y-9277538D01*
X16318672Y-9237538D02*
X16278672Y-9277538D01*
X12790000Y-7584000D02*
G75*
G03X12790000Y-7584000I-50000J0D01*
G01*
X12790000Y-7838000D02*
G75*
G03X12790000Y-7838000I-50000J0D01*
G01*
X12790000Y-8092000D02*
G75*
G03X12790000Y-8092000I-50000J0D01*
G01*
X12790000Y-8346000D02*
G75*
G03X12790000Y-8346000I-50000J0D01*
G01*
X12790000Y-8600000D02*
G75*
G03X12790000Y-8600000I-50000J0D01*
G01*
X12790000Y-8854000D02*
G75*
G03X12790000Y-8854000I-50000J0D01*
G01*
X12790000Y-9108000D02*
G75*
G03X12790000Y-9108000I-50000J0D01*
G01*
X12790000Y-9362000D02*
G75*
G03X12790000Y-9362000I-50000J0D01*
G01*
X12790000Y-9616000D02*
G75*
G03X12790000Y-9616000I-50000J0D01*
G01*
X12790000Y-9870000D02*
G75*
G03X12790000Y-9870000I-50000J0D01*
G01*
X12790000Y-10124000D02*
G75*
G03X12790000Y-10124000I-50000J0D01*
G01*
X12790000Y-10378000D02*
G75*
G03X12790000Y-10378000I-50000J0D01*
G01*
X12790000Y-10632000D02*
G75*
G03X12790000Y-10632000I-50000J0D01*
G01*
X12790000Y-10886000D02*
G75*
G03X12790000Y-10886000I-50000J0D01*
G01*
X13954850Y-6141350D02*
G75*
G03X13954850Y-6141350I-50000J0D01*
G01*
X14208850Y-6141350D02*
G75*
G03X14208850Y-6141350I-50000J0D01*
G01*
X14462850Y-6141350D02*
G75*
G03X14462850Y-6141350I-50000J0D01*
G01*
X14716850Y-6141350D02*
G75*
G03X14716850Y-6141350I-50000J0D01*
G01*
D12*
X12753928Y-11538214D02*
X12753928Y-11238214D01*
X12825357Y-11238214D01*
X12868214Y-11252500D01*
X12896786Y-11281071D01*
X12911071Y-11309643D01*
X12925357Y-11366786D01*
X12925357Y-11409643D01*
X12911071Y-11466786D01*
X12896786Y-11495357D01*
X12868214Y-11523929D01*
X12825357Y-11538214D01*
X12753928Y-11538214D01*
X13053928Y-11538214D02*
X13053928Y-11338214D01*
X13053928Y-11395357D02*
X13068214Y-11366786D01*
X13082500Y-11352500D01*
X13111071Y-11338214D01*
X13139643Y-11338214D01*
X13239643Y-11538214D02*
X13239643Y-11338214D01*
X13239643Y-11238214D02*
X13225357Y-11252500D01*
X13239643Y-11266786D01*
X13253928Y-11252500D01*
X13239643Y-11238214D01*
X13239643Y-11266786D01*
X13425357Y-11538214D02*
X13396786Y-11523929D01*
X13382500Y-11495357D01*
X13382500Y-11238214D01*
X13582500Y-11538214D02*
X13553928Y-11523929D01*
X13539643Y-11495357D01*
X13539643Y-11238214D01*
X13925357Y-11538214D02*
X13925357Y-11238214D01*
X14025357Y-11452500D01*
X14125357Y-11238214D01*
X14125357Y-11538214D01*
X14396786Y-11538214D02*
X14396786Y-11381071D01*
X14382500Y-11352500D01*
X14353928Y-11338214D01*
X14296786Y-11338214D01*
X14268214Y-11352500D01*
X14396786Y-11523929D02*
X14368214Y-11538214D01*
X14296786Y-11538214D01*
X14268214Y-11523929D01*
X14253928Y-11495357D01*
X14253928Y-11466786D01*
X14268214Y-11438214D01*
X14296786Y-11423929D01*
X14368214Y-11423929D01*
X14396786Y-11409643D01*
X14539643Y-11338214D02*
X14539643Y-11638214D01*
X14539643Y-11352500D02*
X14568214Y-11338214D01*
X14625357Y-11338214D01*
X14653928Y-11352500D01*
X14668214Y-11366786D01*
X14682500Y-11395357D01*
X14682500Y-11481071D01*
X14668214Y-11509643D01*
X14653928Y-11523929D01*
X14625357Y-11538214D01*
X14568214Y-11538214D01*
X14539643Y-11523929D01*
X14811071Y-11509643D02*
X14825357Y-11523929D01*
X14811071Y-11538214D01*
X14796786Y-11523929D01*
X14811071Y-11509643D01*
X14811071Y-11538214D01*
X14811071Y-11352500D02*
X14825357Y-11366786D01*
X14811071Y-11381071D01*
X14796786Y-11366786D01*
X14811071Y-11352500D01*
X14811071Y-11381071D01*
X12427500Y-12012500D02*
X12467500Y-12052500D01*
X12467500Y-12012500D02*
X12427500Y-12052500D01*
X12811071Y-11868214D02*
X12839643Y-11868214D01*
X12868214Y-11882500D01*
X12882500Y-11896786D01*
X12896786Y-11925357D01*
X12911071Y-11982500D01*
X12911071Y-12053929D01*
X12896786Y-12111071D01*
X12882500Y-12139643D01*
X12868214Y-12153929D01*
X12839643Y-12168214D01*
X12811071Y-12168214D01*
X12782500Y-12153929D01*
X12768214Y-12139643D01*
X12753928Y-12111071D01*
X12739643Y-12053929D01*
X12739643Y-11982500D01*
X12753928Y-11925357D01*
X12768214Y-11896786D01*
X12782500Y-11882500D01*
X12811071Y-11868214D01*
X13039643Y-12139643D02*
X13053928Y-12153929D01*
X13039643Y-12168214D01*
X13025357Y-12153929D01*
X13039643Y-12139643D01*
X13039643Y-12168214D01*
X13311071Y-11968214D02*
X13311071Y-12168214D01*
X13239643Y-11853929D02*
X13168214Y-12068214D01*
X13353928Y-12068214D01*
X13525357Y-11868214D02*
X13553928Y-11868214D01*
X13582500Y-11882500D01*
X13596786Y-11896786D01*
X13611071Y-11925357D01*
X13625357Y-11982500D01*
X13625357Y-12053929D01*
X13611071Y-12111071D01*
X13596786Y-12139643D01*
X13582500Y-12153929D01*
X13553928Y-12168214D01*
X13525357Y-12168214D01*
X13496786Y-12153929D01*
X13482500Y-12139643D01*
X13468214Y-12111071D01*
X13453928Y-12053929D01*
X13453928Y-11982500D01*
X13468214Y-11925357D01*
X13482500Y-11896786D01*
X13496786Y-11882500D01*
X13525357Y-11868214D01*
X13753928Y-12168214D02*
X13753928Y-11968214D01*
X13753928Y-11996786D02*
X13768214Y-11982500D01*
X13796786Y-11968214D01*
X13839643Y-11968214D01*
X13868214Y-11982500D01*
X13882500Y-12011071D01*
X13882500Y-12168214D01*
X13882500Y-12011071D02*
X13896786Y-11982500D01*
X13925357Y-11968214D01*
X13968214Y-11968214D01*
X13996786Y-11982500D01*
X14011071Y-12011071D01*
X14011071Y-12168214D01*
X14153928Y-12168214D02*
X14153928Y-11968214D01*
X14153928Y-11996786D02*
X14168214Y-11982500D01*
X14196786Y-11968214D01*
X14239643Y-11968214D01*
X14268214Y-11982500D01*
X14282500Y-12011071D01*
X14282500Y-12168214D01*
X14282500Y-12011071D02*
X14296786Y-11982500D01*
X14325357Y-11968214D01*
X14368214Y-11968214D01*
X14396786Y-11982500D01*
X14411071Y-12011071D01*
X14411071Y-12168214D01*
X14996786Y-11853929D02*
X14739643Y-12239643D01*
X15382500Y-11868214D02*
X15411071Y-11868214D01*
X15439643Y-11882500D01*
X15453928Y-11896786D01*
X15468214Y-11925357D01*
X15482500Y-11982500D01*
X15482500Y-12053929D01*
X15468214Y-12111071D01*
X15453928Y-12139643D01*
X15439643Y-12153929D01*
X15411071Y-12168214D01*
X15382500Y-12168214D01*
X15353928Y-12153929D01*
X15339643Y-12139643D01*
X15325357Y-12111071D01*
X15311071Y-12053929D01*
X15311071Y-11982500D01*
X15325357Y-11925357D01*
X15339643Y-11896786D01*
X15353928Y-11882500D01*
X15382500Y-11868214D01*
X15611071Y-12139643D02*
X15625357Y-12153929D01*
X15611071Y-12168214D01*
X15596786Y-12153929D01*
X15611071Y-12139643D01*
X15611071Y-12168214D01*
X15811071Y-11868214D02*
X15839643Y-11868214D01*
X15868214Y-11882500D01*
X15882500Y-11896786D01*
X15896786Y-11925357D01*
X15911071Y-11982500D01*
X15911071Y-12053929D01*
X15896786Y-12111071D01*
X15882500Y-12139643D01*
X15868214Y-12153929D01*
X15839643Y-12168214D01*
X15811071Y-12168214D01*
X15782500Y-12153929D01*
X15768214Y-12139643D01*
X15753928Y-12111071D01*
X15739643Y-12053929D01*
X15739643Y-11982500D01*
X15753928Y-11925357D01*
X15768214Y-11896786D01*
X15782500Y-11882500D01*
X15811071Y-11868214D01*
X16196786Y-12168214D02*
X16025357Y-12168214D01*
X16111071Y-12168214D02*
X16111071Y-11868214D01*
X16082500Y-11911071D01*
X16053928Y-11939643D01*
X16025357Y-11953929D01*
X16453928Y-11868214D02*
X16396786Y-11868214D01*
X16368214Y-11882500D01*
X16353928Y-11896786D01*
X16325357Y-11939643D01*
X16311071Y-11996786D01*
X16311071Y-12111071D01*
X16325357Y-12139643D01*
X16339643Y-12153929D01*
X16368214Y-12168214D01*
X16425357Y-12168214D01*
X16453928Y-12153929D01*
X16468214Y-12139643D01*
X16482500Y-12111071D01*
X16482500Y-12039643D01*
X16468214Y-12011071D01*
X16453928Y-11996786D01*
X16425357Y-11982500D01*
X16368214Y-11982500D01*
X16339643Y-11996786D01*
X16325357Y-12011071D01*
X16311071Y-12039643D01*
X16596786Y-11868214D02*
X16596786Y-11925357D01*
X16711071Y-11868214D02*
X16711071Y-11925357D01*
X17153928Y-12282500D02*
X17139643Y-12268214D01*
X17111071Y-12225357D01*
X17096786Y-12196786D01*
X17082500Y-12153929D01*
X17068214Y-12082500D01*
X17068214Y-12025357D01*
X17082500Y-11953929D01*
X17096786Y-11911071D01*
X17111071Y-11882500D01*
X17139643Y-11839643D01*
X17153928Y-11825357D01*
X17396786Y-11968214D02*
X17396786Y-12168214D01*
X17325357Y-11853929D02*
X17253928Y-12068214D01*
X17439643Y-12068214D01*
X17525357Y-11868214D02*
X17725357Y-11868214D01*
X17596786Y-12168214D01*
X18068214Y-12168214D02*
X18068214Y-11868214D01*
X18196786Y-12168214D02*
X18196786Y-12011071D01*
X18182500Y-11982500D01*
X18153928Y-11968214D01*
X18111071Y-11968214D01*
X18082500Y-11982500D01*
X18068214Y-11996786D01*
X18382500Y-12168214D02*
X18353928Y-12153929D01*
X18339643Y-12139643D01*
X18325357Y-12111071D01*
X18325357Y-12025357D01*
X18339643Y-11996786D01*
X18353928Y-11982500D01*
X18382500Y-11968214D01*
X18425357Y-11968214D01*
X18453928Y-11982500D01*
X18468214Y-11996786D01*
X18482500Y-12025357D01*
X18482500Y-12111071D01*
X18468214Y-12139643D01*
X18453928Y-12153929D01*
X18425357Y-12168214D01*
X18382500Y-12168214D01*
X18653928Y-12168214D02*
X18625357Y-12153929D01*
X18611071Y-12125357D01*
X18611071Y-11868214D01*
X18882500Y-12153929D02*
X18853928Y-12168214D01*
X18796786Y-12168214D01*
X18768214Y-12153929D01*
X18753928Y-12125357D01*
X18753928Y-12011071D01*
X18768214Y-11982500D01*
X18796786Y-11968214D01*
X18853928Y-11968214D01*
X18882500Y-11982500D01*
X18896786Y-12011071D01*
X18896786Y-12039643D01*
X18753928Y-12068214D01*
X19011071Y-12153929D02*
X19039643Y-12168214D01*
X19096786Y-12168214D01*
X19125357Y-12153929D01*
X19139643Y-12125357D01*
X19139643Y-12111071D01*
X19125357Y-12082500D01*
X19096786Y-12068214D01*
X19053928Y-12068214D01*
X19025357Y-12053929D01*
X19011071Y-12025357D01*
X19011071Y-12011071D01*
X19025357Y-11982500D01*
X19053928Y-11968214D01*
X19096786Y-11968214D01*
X19125357Y-11982500D01*
X19239643Y-12282500D02*
X19253928Y-12268214D01*
X19282500Y-12225357D01*
X19296786Y-12196786D01*
X19311071Y-12153929D01*
X19325357Y-12082500D01*
X19325357Y-12025357D01*
X19311071Y-11953929D01*
X19296786Y-11911071D01*
X19282500Y-11882500D01*
X19253928Y-11839643D01*
X19239643Y-11825357D01*
X12467500Y-12428500D02*
G75*
G03X12467500Y-12428500I-50000J0D01*
G01*
X12911071Y-12564214D02*
X12739643Y-12564214D01*
X12825357Y-12564214D02*
X12825357Y-12264214D01*
X12796786Y-12307071D01*
X12768214Y-12335643D01*
X12739643Y-12349929D01*
X13039643Y-12535643D02*
X13053928Y-12549929D01*
X13039643Y-12564214D01*
X13025357Y-12549929D01*
X13039643Y-12535643D01*
X13039643Y-12564214D01*
X13239643Y-12264214D02*
X13268214Y-12264214D01*
X13296786Y-12278500D01*
X13311071Y-12292786D01*
X13325357Y-12321357D01*
X13339643Y-12378500D01*
X13339643Y-12449929D01*
X13325357Y-12507071D01*
X13311071Y-12535643D01*
X13296786Y-12549929D01*
X13268214Y-12564214D01*
X13239643Y-12564214D01*
X13211071Y-12549929D01*
X13196786Y-12535643D01*
X13182500Y-12507071D01*
X13168214Y-12449929D01*
X13168214Y-12378500D01*
X13182500Y-12321357D01*
X13196786Y-12292786D01*
X13211071Y-12278500D01*
X13239643Y-12264214D01*
X13525357Y-12264214D02*
X13553928Y-12264214D01*
X13582500Y-12278500D01*
X13596786Y-12292786D01*
X13611071Y-12321357D01*
X13625357Y-12378500D01*
X13625357Y-12449929D01*
X13611071Y-12507071D01*
X13596786Y-12535643D01*
X13582500Y-12549929D01*
X13553928Y-12564214D01*
X13525357Y-12564214D01*
X13496786Y-12549929D01*
X13482500Y-12535643D01*
X13468214Y-12507071D01*
X13453928Y-12449929D01*
X13453928Y-12378500D01*
X13468214Y-12321357D01*
X13482500Y-12292786D01*
X13496786Y-12278500D01*
X13525357Y-12264214D01*
X13753928Y-12564214D02*
X13753928Y-12364214D01*
X13753928Y-12392786D02*
X13768214Y-12378500D01*
X13796786Y-12364214D01*
X13839643Y-12364214D01*
X13868214Y-12378500D01*
X13882500Y-12407071D01*
X13882500Y-12564214D01*
X13882500Y-12407071D02*
X13896786Y-12378500D01*
X13925357Y-12364214D01*
X13968214Y-12364214D01*
X13996786Y-12378500D01*
X14011071Y-12407071D01*
X14011071Y-12564214D01*
X14153928Y-12564214D02*
X14153928Y-12364214D01*
X14153928Y-12392786D02*
X14168214Y-12378500D01*
X14196786Y-12364214D01*
X14239643Y-12364214D01*
X14268214Y-12378500D01*
X14282500Y-12407071D01*
X14282500Y-12564214D01*
X14282500Y-12407071D02*
X14296786Y-12378500D01*
X14325357Y-12364214D01*
X14368214Y-12364214D01*
X14396786Y-12378500D01*
X14411071Y-12407071D01*
X14411071Y-12564214D01*
X14996786Y-12249929D02*
X14739643Y-12635643D01*
X15382500Y-12264214D02*
X15411071Y-12264214D01*
X15439643Y-12278500D01*
X15453928Y-12292786D01*
X15468214Y-12321357D01*
X15482500Y-12378500D01*
X15482500Y-12449929D01*
X15468214Y-12507071D01*
X15453928Y-12535643D01*
X15439643Y-12549929D01*
X15411071Y-12564214D01*
X15382500Y-12564214D01*
X15353928Y-12549929D01*
X15339643Y-12535643D01*
X15325357Y-12507071D01*
X15311071Y-12449929D01*
X15311071Y-12378500D01*
X15325357Y-12321357D01*
X15339643Y-12292786D01*
X15353928Y-12278500D01*
X15382500Y-12264214D01*
X15611071Y-12535643D02*
X15625357Y-12549929D01*
X15611071Y-12564214D01*
X15596786Y-12549929D01*
X15611071Y-12535643D01*
X15611071Y-12564214D01*
X15811071Y-12264214D02*
X15839643Y-12264214D01*
X15868214Y-12278500D01*
X15882500Y-12292786D01*
X15896786Y-12321357D01*
X15911071Y-12378500D01*
X15911071Y-12449929D01*
X15896786Y-12507071D01*
X15882500Y-12535643D01*
X15868214Y-12549929D01*
X15839643Y-12564214D01*
X15811071Y-12564214D01*
X15782500Y-12549929D01*
X15768214Y-12535643D01*
X15753928Y-12507071D01*
X15739643Y-12449929D01*
X15739643Y-12378500D01*
X15753928Y-12321357D01*
X15768214Y-12292786D01*
X15782500Y-12278500D01*
X15811071Y-12264214D01*
X16011071Y-12264214D02*
X16196786Y-12264214D01*
X16096786Y-12378500D01*
X16139643Y-12378500D01*
X16168214Y-12392786D01*
X16182500Y-12407071D01*
X16196786Y-12435643D01*
X16196786Y-12507071D01*
X16182500Y-12535643D01*
X16168214Y-12549929D01*
X16139643Y-12564214D01*
X16053928Y-12564214D01*
X16025357Y-12549929D01*
X16011071Y-12535643D01*
X16339643Y-12564214D02*
X16396786Y-12564214D01*
X16425357Y-12549929D01*
X16439643Y-12535643D01*
X16468214Y-12492786D01*
X16482500Y-12435643D01*
X16482500Y-12321357D01*
X16468214Y-12292786D01*
X16453928Y-12278500D01*
X16425357Y-12264214D01*
X16368214Y-12264214D01*
X16339643Y-12278500D01*
X16325357Y-12292786D01*
X16311071Y-12321357D01*
X16311071Y-12392786D01*
X16325357Y-12421357D01*
X16339643Y-12435643D01*
X16368214Y-12449929D01*
X16425357Y-12449929D01*
X16453928Y-12435643D01*
X16468214Y-12421357D01*
X16482500Y-12392786D01*
X16596786Y-12264214D02*
X16596786Y-12321357D01*
X16711071Y-12264214D02*
X16711071Y-12321357D01*
X17153928Y-12678500D02*
X17139643Y-12664214D01*
X17111071Y-12621357D01*
X17096786Y-12592786D01*
X17082500Y-12549929D01*
X17068214Y-12478500D01*
X17068214Y-12421357D01*
X17082500Y-12349929D01*
X17096786Y-12307071D01*
X17111071Y-12278500D01*
X17139643Y-12235643D01*
X17153928Y-12221357D01*
X17425357Y-12564214D02*
X17253928Y-12564214D01*
X17339643Y-12564214D02*
X17339643Y-12264214D01*
X17311071Y-12307071D01*
X17282500Y-12335643D01*
X17253928Y-12349929D01*
X17596786Y-12392786D02*
X17568214Y-12378500D01*
X17553928Y-12364214D01*
X17539643Y-12335643D01*
X17539643Y-12321357D01*
X17553928Y-12292786D01*
X17568214Y-12278500D01*
X17596786Y-12264214D01*
X17653928Y-12264214D01*
X17682500Y-12278500D01*
X17696786Y-12292786D01*
X17711071Y-12321357D01*
X17711071Y-12335643D01*
X17696786Y-12364214D01*
X17682500Y-12378500D01*
X17653928Y-12392786D01*
X17596786Y-12392786D01*
X17568214Y-12407071D01*
X17553928Y-12421357D01*
X17539643Y-12449929D01*
X17539643Y-12507071D01*
X17553928Y-12535643D01*
X17568214Y-12549929D01*
X17596786Y-12564214D01*
X17653928Y-12564214D01*
X17682500Y-12549929D01*
X17696786Y-12535643D01*
X17711071Y-12507071D01*
X17711071Y-12449929D01*
X17696786Y-12421357D01*
X17682500Y-12407071D01*
X17653928Y-12392786D01*
X18068214Y-12564214D02*
X18068214Y-12264214D01*
X18196786Y-12564214D02*
X18196786Y-12407071D01*
X18182500Y-12378500D01*
X18153928Y-12364214D01*
X18111071Y-12364214D01*
X18082500Y-12378500D01*
X18068214Y-12392786D01*
X18382500Y-12564214D02*
X18353928Y-12549929D01*
X18339643Y-12535643D01*
X18325357Y-12507071D01*
X18325357Y-12421357D01*
X18339643Y-12392786D01*
X18353928Y-12378500D01*
X18382500Y-12364214D01*
X18425357Y-12364214D01*
X18453928Y-12378500D01*
X18468214Y-12392786D01*
X18482500Y-12421357D01*
X18482500Y-12507071D01*
X18468214Y-12535643D01*
X18453928Y-12549929D01*
X18425357Y-12564214D01*
X18382500Y-12564214D01*
X18653928Y-12564214D02*
X18625357Y-12549929D01*
X18611071Y-12521357D01*
X18611071Y-12264214D01*
X18882500Y-12549929D02*
X18853928Y-12564214D01*
X18796786Y-12564214D01*
X18768214Y-12549929D01*
X18753928Y-12521357D01*
X18753928Y-12407071D01*
X18768214Y-12378500D01*
X18796786Y-12364214D01*
X18853928Y-12364214D01*
X18882500Y-12378500D01*
X18896786Y-12407071D01*
X18896786Y-12435643D01*
X18753928Y-12464214D01*
X19011071Y-12549929D02*
X19039643Y-12564214D01*
X19096786Y-12564214D01*
X19125357Y-12549929D01*
X19139643Y-12521357D01*
X19139643Y-12507071D01*
X19125357Y-12478500D01*
X19096786Y-12464214D01*
X19053928Y-12464214D01*
X19025357Y-12449929D01*
X19011071Y-12421357D01*
X19011071Y-12407071D01*
X19025357Y-12378500D01*
X19053928Y-12364214D01*
X19096786Y-12364214D01*
X19125357Y-12378500D01*
X19239643Y-12678500D02*
X19253928Y-12664214D01*
X19282500Y-12621357D01*
X19296786Y-12592786D01*
X19311071Y-12549929D01*
X19325357Y-12478500D01*
X19325357Y-12421357D01*
X19311071Y-12349929D01*
X19296786Y-12307071D01*
X19282500Y-12278500D01*
X19253928Y-12235643D01*
X19239643Y-12221357D01*
M02*
