G04 #@! TF.GenerationSoftware,KiCad,Pcbnew,(5.1.5)-3*
G04 #@! TF.CreationDate,2020-08-28T00:05:50-05:00*
G04 #@! TF.ProjectId,video-transceiver,76696465-6f2d-4747-9261-6e7363656976,rev?*
G04 #@! TF.SameCoordinates,Original*
G04 #@! TF.FileFunction,Legend,Top*
G04 #@! TF.FilePolarity,Positive*
%FSLAX46Y46*%
G04 Gerber Fmt 4.6, Leading zero omitted, Abs format (unit mm)*
G04 Created by KiCad (PCBNEW (5.1.5)-3) date 2020-08-28 00:05:50*
%MOMM*%
%LPD*%
G04 APERTURE LIST*
%ADD10C,0.120000*%
%ADD11C,0.150000*%
%ADD12C,0.125000*%
G04 APERTURE END LIST*
D10*
X134366000Y-65532000D02*
X136144000Y-65532000D01*
X134366000Y-81534000D02*
X134366000Y-65532000D01*
X145034000Y-81534000D02*
X134366000Y-81534000D01*
X145034000Y-79248000D02*
X145034000Y-81534000D01*
X158496000Y-79248000D02*
X145034000Y-79248000D01*
X158496000Y-65532000D02*
X158496000Y-79248000D01*
X136144000Y-65532000D02*
X158496000Y-65532000D01*
X149057000Y-71945500D02*
X149057000Y-70445500D01*
X149057000Y-71945500D02*
X149057000Y-73445500D01*
X145837000Y-71945500D02*
X145837000Y-70445500D01*
X145837000Y-71945500D02*
X145837000Y-74870500D01*
X158718760Y-98305160D02*
X158718760Y-101105160D01*
X158718760Y-101105160D02*
X156718760Y-101105160D01*
X156718760Y-101105160D02*
X156718760Y-98305160D01*
X156718760Y-98305160D02*
X158718760Y-98305160D01*
X136147000Y-63223500D02*
X136147000Y-62723500D01*
X136397000Y-62973500D02*
X135897000Y-62973500D01*
X135657000Y-60217937D02*
X134592563Y-59153500D01*
X135657000Y-62609063D02*
X134592563Y-63673500D01*
X135657000Y-62609063D02*
X135657000Y-62473500D01*
X135657000Y-60217937D02*
X135657000Y-60353500D01*
X134592563Y-59153500D02*
X131137000Y-59153500D01*
X134592563Y-63673500D02*
X131137000Y-63673500D01*
X131137000Y-63673500D02*
X131137000Y-62473500D01*
X131137000Y-59153500D02*
X131137000Y-60353500D01*
X160137380Y-99751099D02*
X160137380Y-99425541D01*
X161157380Y-99751099D02*
X161157380Y-99425541D01*
X155653080Y-106165702D02*
X155653080Y-106682858D01*
X154233080Y-106165702D02*
X154233080Y-106682858D01*
X154001400Y-76496678D02*
X154001400Y-75979522D01*
X155421400Y-76496678D02*
X155421400Y-75979522D01*
X160435220Y-93297242D02*
X160435220Y-93814398D01*
X161855220Y-93297242D02*
X161855220Y-93814398D01*
X151535200Y-76471278D02*
X151535200Y-75954122D01*
X150115200Y-76471278D02*
X150115200Y-75954122D01*
X158088260Y-93837018D02*
X158088260Y-93319862D01*
X159508260Y-93837018D02*
X159508260Y-93319862D01*
X142187200Y-76481721D02*
X142187200Y-76807279D01*
X143207200Y-76481721D02*
X143207200Y-76807279D01*
X148987000Y-84394500D02*
X148987000Y-81594500D01*
X148987000Y-81594500D02*
X150987000Y-81594500D01*
X150987000Y-81594500D02*
X150987000Y-84394500D01*
X150987000Y-84394500D02*
X148987000Y-84394500D01*
X160934860Y-84064600D02*
X160934860Y-86064600D01*
X158134860Y-84064600D02*
X160934860Y-84064600D01*
X158134860Y-86064600D02*
X158134860Y-84064600D01*
X160934860Y-86064600D02*
X158134860Y-86064600D01*
X125952000Y-73108000D02*
X126452000Y-73108000D01*
X126202000Y-73358000D02*
X126202000Y-72858000D01*
X128957563Y-72618000D02*
X130022000Y-71553563D01*
X126566437Y-72618000D02*
X125502000Y-71553563D01*
X126566437Y-72618000D02*
X126702000Y-72618000D01*
X128957563Y-72618000D02*
X128822000Y-72618000D01*
X130022000Y-71553563D02*
X130022000Y-68098000D01*
X125502000Y-71553563D02*
X125502000Y-68098000D01*
X125502000Y-68098000D02*
X126702000Y-68098000D01*
X130022000Y-68098000D02*
X128822000Y-68098000D01*
X137280400Y-80067600D02*
X137780400Y-80067600D01*
X137530400Y-80317600D02*
X137530400Y-79817600D01*
X140285963Y-79577600D02*
X141350400Y-78513163D01*
X137894837Y-79577600D02*
X136830400Y-78513163D01*
X137894837Y-79577600D02*
X138030400Y-79577600D01*
X140285963Y-79577600D02*
X140150400Y-79577600D01*
X141350400Y-78513163D02*
X141350400Y-75057600D01*
X136830400Y-78513163D02*
X136830400Y-75057600D01*
X136830400Y-75057600D02*
X138030400Y-75057600D01*
X141350400Y-75057600D02*
X140150400Y-75057600D01*
X150457500Y-89319700D02*
X150457500Y-90519700D01*
X150457500Y-93839700D02*
X150457500Y-92639700D01*
X153913063Y-93839700D02*
X150457500Y-93839700D01*
X153913063Y-89319700D02*
X150457500Y-89319700D01*
X154977500Y-90384137D02*
X154977500Y-90519700D01*
X154977500Y-92775263D02*
X154977500Y-92639700D01*
X154977500Y-92775263D02*
X153913063Y-93839700D01*
X154977500Y-90384137D02*
X153913063Y-89319700D01*
X155717500Y-93139700D02*
X155217500Y-93139700D01*
X155467500Y-93389700D02*
X155467500Y-92889700D01*
X137227500Y-99784500D02*
X137227500Y-100984500D01*
X137227500Y-104304500D02*
X137227500Y-103104500D01*
X140683063Y-104304500D02*
X137227500Y-104304500D01*
X140683063Y-99784500D02*
X137227500Y-99784500D01*
X141747500Y-100848937D02*
X141747500Y-100984500D01*
X141747500Y-103240063D02*
X141747500Y-103104500D01*
X141747500Y-103240063D02*
X140683063Y-104304500D01*
X141747500Y-100848937D02*
X140683063Y-99784500D01*
X142487500Y-103604500D02*
X141987500Y-103604500D01*
X142237500Y-103854500D02*
X142237500Y-103354500D01*
X149869500Y-59153500D02*
X149869500Y-60353500D01*
X149869500Y-63673500D02*
X149869500Y-62473500D01*
X153325063Y-63673500D02*
X149869500Y-63673500D01*
X153325063Y-59153500D02*
X149869500Y-59153500D01*
X154389500Y-60217937D02*
X154389500Y-60353500D01*
X154389500Y-62609063D02*
X154389500Y-62473500D01*
X154389500Y-62609063D02*
X153325063Y-63673500D01*
X154389500Y-60217937D02*
X153325063Y-59153500D01*
X155129500Y-62973500D02*
X154629500Y-62973500D01*
X154879500Y-63223500D02*
X154879500Y-62723500D01*
X158002580Y-106165702D02*
X158002580Y-106682858D01*
X156582580Y-106165702D02*
X156582580Y-106682858D01*
X142365000Y-69250779D02*
X142365000Y-68925221D01*
X143385000Y-69250779D02*
X143385000Y-68925221D01*
X144143000Y-69250779D02*
X144143000Y-68925221D01*
X145163000Y-69250779D02*
X145163000Y-68925221D01*
X143895578Y-74687500D02*
X143378422Y-74687500D01*
X143895578Y-73267500D02*
X143378422Y-73267500D01*
X147538221Y-75753500D02*
X147863779Y-75753500D01*
X147538221Y-76773500D02*
X147863779Y-76773500D01*
X152910000Y-101064279D02*
X152910000Y-100738721D01*
X151890000Y-101064279D02*
X151890000Y-100738721D01*
X145379221Y-100649500D02*
X145704779Y-100649500D01*
X145379221Y-99629500D02*
X145704779Y-99629500D01*
D11*
X139684000Y-87263788D02*
X139684000Y-87488788D01*
X144334000Y-87263788D02*
X144334000Y-87588788D01*
X144334000Y-97213788D02*
X144334000Y-96888788D01*
X139684000Y-97213788D02*
X139684000Y-96888788D01*
X139684000Y-87263788D02*
X144334000Y-87263788D01*
X139684000Y-97213788D02*
X144334000Y-97213788D01*
X139684000Y-87488788D02*
X138609000Y-87488788D01*
D10*
X151052000Y-100955500D02*
X151052000Y-101455500D01*
X149052000Y-99855500D02*
X149652000Y-99855500D01*
X149052000Y-102555500D02*
X149652000Y-102555500D01*
X147652000Y-100955500D02*
X147652000Y-101455500D01*
X147998500Y-62743500D02*
X147998500Y-60083500D01*
X140318500Y-62743500D02*
X147998500Y-62743500D01*
X140318500Y-60083500D02*
X147998500Y-60083500D01*
X140318500Y-62743500D02*
X140318500Y-60083500D01*
X139048500Y-62743500D02*
X137718500Y-62743500D01*
X137718500Y-62743500D02*
X137718500Y-61413500D01*
X145480000Y-101598500D02*
X145480000Y-102998500D01*
X145480000Y-102998500D02*
X144080000Y-102998500D01*
X144080000Y-102998500D02*
X144080000Y-101598500D01*
X144080000Y-101598500D02*
X145480000Y-101598500D01*
X126070000Y-110190000D02*
X128730000Y-110190000D01*
X126070000Y-77110000D02*
X126070000Y-110190000D01*
X128730000Y-77110000D02*
X128730000Y-110190000D01*
X126070000Y-77110000D02*
X128730000Y-77110000D01*
X126070000Y-75840000D02*
X126070000Y-74510000D01*
X126070000Y-74510000D02*
X127400000Y-74510000D01*
X150435540Y-86574860D02*
X149035540Y-86574860D01*
X149035540Y-86574860D02*
X149035540Y-85174860D01*
X149035540Y-85174860D02*
X150435540Y-85174860D01*
X150435540Y-85174860D02*
X150435540Y-86574860D01*
X155421100Y-86430080D02*
X155421100Y-85030080D01*
X156821100Y-86430080D02*
X155421100Y-86430080D01*
X156821100Y-85030080D02*
X156821100Y-86430080D01*
X155421100Y-85030080D02*
X156821100Y-85030080D01*
X135410500Y-101324720D02*
X135410500Y-104124720D01*
X135410500Y-104124720D02*
X133410500Y-104124720D01*
X133410500Y-104124720D02*
X133410500Y-101324720D01*
X133410500Y-101324720D02*
X135410500Y-101324720D01*
X154829000Y-84252500D02*
X154829000Y-81452500D01*
X154829000Y-81452500D02*
X156829000Y-81452500D01*
X156829000Y-81452500D02*
X156829000Y-84252500D01*
X156829000Y-84252500D02*
X154829000Y-84252500D01*
X160912000Y-89413840D02*
X160912000Y-91413840D01*
X158112000Y-89413840D02*
X160912000Y-89413840D01*
X158112000Y-91413840D02*
X158112000Y-89413840D01*
X160912000Y-91413840D02*
X158112000Y-91413840D01*
X160912000Y-86726520D02*
X160912000Y-88726520D01*
X158112000Y-86726520D02*
X160912000Y-86726520D01*
X158112000Y-88726520D02*
X158112000Y-86726520D01*
X160912000Y-88726520D02*
X158112000Y-88726520D01*
X153937460Y-98317860D02*
X155937460Y-98317860D01*
X153937460Y-101117860D02*
X153937460Y-98317860D01*
X155937460Y-101117860D02*
X153937460Y-101117860D01*
X155937460Y-98317860D02*
X155937460Y-101117860D01*
X130800000Y-101322180D02*
X132800000Y-101322180D01*
X130800000Y-104122180D02*
X130800000Y-101322180D01*
X132800000Y-104122180D02*
X130800000Y-104122180D01*
X132800000Y-101322180D02*
X132800000Y-104122180D01*
X151475942Y-73961060D02*
X151993098Y-73961060D01*
X151475942Y-72541060D02*
X151993098Y-72541060D01*
X151713000Y-70099422D02*
X151713000Y-70616578D01*
X150293000Y-70099422D02*
X150293000Y-70616578D01*
D11*
X144262380Y-72651904D02*
X145071904Y-72651904D01*
X145167142Y-72604285D01*
X145214761Y-72556666D01*
X145262380Y-72461428D01*
X145262380Y-72270952D01*
X145214761Y-72175714D01*
X145167142Y-72128095D01*
X145071904Y-72080476D01*
X144262380Y-72080476D01*
X144357619Y-71651904D02*
X144310000Y-71604285D01*
X144262380Y-71509047D01*
X144262380Y-71270952D01*
X144310000Y-71175714D01*
X144357619Y-71128095D01*
X144452857Y-71080476D01*
X144548095Y-71080476D01*
X144690952Y-71128095D01*
X145262380Y-71699523D01*
X145262380Y-71080476D01*
X156470476Y-96812380D02*
X156470476Y-97526666D01*
X156422857Y-97669523D01*
X156327619Y-97764761D01*
X156184761Y-97812380D01*
X156089523Y-97812380D01*
X156946666Y-97812380D02*
X156946666Y-96812380D01*
X157327619Y-96812380D01*
X157422857Y-96860000D01*
X157470476Y-96907619D01*
X157518095Y-97002857D01*
X157518095Y-97145714D01*
X157470476Y-97240952D01*
X157422857Y-97288571D01*
X157327619Y-97336190D01*
X156946666Y-97336190D01*
X158470476Y-97812380D02*
X157899047Y-97812380D01*
X158184761Y-97812380D02*
X158184761Y-96812380D01*
X158089523Y-96955238D01*
X157994285Y-97050476D01*
X157899047Y-97098095D01*
X159089523Y-96812380D02*
X159184761Y-96812380D01*
X159280000Y-96860000D01*
X159327619Y-96907619D01*
X159375238Y-97002857D01*
X159422857Y-97193333D01*
X159422857Y-97431428D01*
X159375238Y-97621904D01*
X159327619Y-97717142D01*
X159280000Y-97764761D01*
X159184761Y-97812380D01*
X159089523Y-97812380D01*
X158994285Y-97764761D01*
X158946666Y-97717142D01*
X158899047Y-97621904D01*
X158851428Y-97431428D01*
X158851428Y-97193333D01*
X158899047Y-97002857D01*
X158946666Y-96907619D01*
X158994285Y-96860000D01*
X159089523Y-96812380D01*
X133083333Y-65357142D02*
X133035714Y-65404761D01*
X132892857Y-65452380D01*
X132797619Y-65452380D01*
X132654761Y-65404761D01*
X132559523Y-65309523D01*
X132511904Y-65214285D01*
X132464285Y-65023809D01*
X132464285Y-64880952D01*
X132511904Y-64690476D01*
X132559523Y-64595238D01*
X132654761Y-64500000D01*
X132797619Y-64452380D01*
X132892857Y-64452380D01*
X133035714Y-64500000D01*
X133083333Y-64547619D01*
X133559523Y-65452380D02*
X133750000Y-65452380D01*
X133845238Y-65404761D01*
X133892857Y-65357142D01*
X133988095Y-65214285D01*
X134035714Y-65023809D01*
X134035714Y-64642857D01*
X133988095Y-64547619D01*
X133940476Y-64500000D01*
X133845238Y-64452380D01*
X133654761Y-64452380D01*
X133559523Y-64500000D01*
X133511904Y-64547619D01*
X133464285Y-64642857D01*
X133464285Y-64880952D01*
X133511904Y-64976190D01*
X133559523Y-65023809D01*
X133654761Y-65071428D01*
X133845238Y-65071428D01*
X133940476Y-65023809D01*
X133988095Y-64976190D01*
X134035714Y-64880952D01*
X162433333Y-99852380D02*
X162100000Y-99376190D01*
X161861904Y-99852380D02*
X161861904Y-98852380D01*
X162242857Y-98852380D01*
X162338095Y-98900000D01*
X162385714Y-98947619D01*
X162433333Y-99042857D01*
X162433333Y-99185714D01*
X162385714Y-99280952D01*
X162338095Y-99328571D01*
X162242857Y-99376190D01*
X161861904Y-99376190D01*
X163290476Y-98852380D02*
X163100000Y-98852380D01*
X163004761Y-98900000D01*
X162957142Y-98947619D01*
X162861904Y-99090476D01*
X162814285Y-99280952D01*
X162814285Y-99661904D01*
X162861904Y-99757142D01*
X162909523Y-99804761D01*
X163004761Y-99852380D01*
X163195238Y-99852380D01*
X163290476Y-99804761D01*
X163338095Y-99757142D01*
X163385714Y-99661904D01*
X163385714Y-99423809D01*
X163338095Y-99328571D01*
X163290476Y-99280952D01*
X163195238Y-99233333D01*
X163004761Y-99233333D01*
X162909523Y-99280952D01*
X162861904Y-99328571D01*
X162814285Y-99423809D01*
X151767142Y-106882380D02*
X151433809Y-106406190D01*
X151195714Y-106882380D02*
X151195714Y-105882380D01*
X151576666Y-105882380D01*
X151671904Y-105930000D01*
X151719523Y-105977619D01*
X151767142Y-106072857D01*
X151767142Y-106215714D01*
X151719523Y-106310952D01*
X151671904Y-106358571D01*
X151576666Y-106406190D01*
X151195714Y-106406190D01*
X152719523Y-106882380D02*
X152148095Y-106882380D01*
X152433809Y-106882380D02*
X152433809Y-105882380D01*
X152338571Y-106025238D01*
X152243333Y-106120476D01*
X152148095Y-106168095D01*
X153052857Y-105882380D02*
X153719523Y-105882380D01*
X153290952Y-106882380D01*
X156992380Y-76912857D02*
X156516190Y-77246190D01*
X156992380Y-77484285D02*
X155992380Y-77484285D01*
X155992380Y-77103333D01*
X156040000Y-77008095D01*
X156087619Y-76960476D01*
X156182857Y-76912857D01*
X156325714Y-76912857D01*
X156420952Y-76960476D01*
X156468571Y-77008095D01*
X156516190Y-77103333D01*
X156516190Y-77484285D01*
X156992380Y-75960476D02*
X156992380Y-76531904D01*
X156992380Y-76246190D02*
X155992380Y-76246190D01*
X156135238Y-76341428D01*
X156230476Y-76436666D01*
X156278095Y-76531904D01*
X155992380Y-75055714D02*
X155992380Y-75531904D01*
X156468571Y-75579523D01*
X156420952Y-75531904D01*
X156373333Y-75436666D01*
X156373333Y-75198571D01*
X156420952Y-75103333D01*
X156468571Y-75055714D01*
X156563809Y-75008095D01*
X156801904Y-75008095D01*
X156897142Y-75055714D01*
X156944761Y-75103333D01*
X156992380Y-75198571D01*
X156992380Y-75436666D01*
X156944761Y-75531904D01*
X156897142Y-75579523D01*
X163372380Y-95242857D02*
X162896190Y-95576190D01*
X163372380Y-95814285D02*
X162372380Y-95814285D01*
X162372380Y-95433333D01*
X162420000Y-95338095D01*
X162467619Y-95290476D01*
X162562857Y-95242857D01*
X162705714Y-95242857D01*
X162800952Y-95290476D01*
X162848571Y-95338095D01*
X162896190Y-95433333D01*
X162896190Y-95814285D01*
X163372380Y-94290476D02*
X163372380Y-94861904D01*
X163372380Y-94576190D02*
X162372380Y-94576190D01*
X162515238Y-94671428D01*
X162610476Y-94766666D01*
X162658095Y-94861904D01*
X162705714Y-93433333D02*
X163372380Y-93433333D01*
X162324761Y-93671428D02*
X163039047Y-93909523D01*
X163039047Y-93290476D01*
X153042380Y-77482857D02*
X152566190Y-77816190D01*
X153042380Y-78054285D02*
X152042380Y-78054285D01*
X152042380Y-77673333D01*
X152090000Y-77578095D01*
X152137619Y-77530476D01*
X152232857Y-77482857D01*
X152375714Y-77482857D01*
X152470952Y-77530476D01*
X152518571Y-77578095D01*
X152566190Y-77673333D01*
X152566190Y-78054285D01*
X153042380Y-76530476D02*
X153042380Y-77101904D01*
X153042380Y-76816190D02*
X152042380Y-76816190D01*
X152185238Y-76911428D01*
X152280476Y-77006666D01*
X152328095Y-77101904D01*
X152042380Y-75673333D02*
X152042380Y-75863809D01*
X152090000Y-75959047D01*
X152137619Y-76006666D01*
X152280476Y-76101904D01*
X152470952Y-76149523D01*
X152851904Y-76149523D01*
X152947142Y-76101904D01*
X152994761Y-76054285D01*
X153042380Y-75959047D01*
X153042380Y-75768571D01*
X152994761Y-75673333D01*
X152947142Y-75625714D01*
X152851904Y-75578095D01*
X152613809Y-75578095D01*
X152518571Y-75625714D01*
X152470952Y-75673333D01*
X152423333Y-75768571D01*
X152423333Y-75959047D01*
X152470952Y-76054285D01*
X152518571Y-76101904D01*
X152613809Y-76149523D01*
X157532380Y-95242857D02*
X157056190Y-95576190D01*
X157532380Y-95814285D02*
X156532380Y-95814285D01*
X156532380Y-95433333D01*
X156580000Y-95338095D01*
X156627619Y-95290476D01*
X156722857Y-95242857D01*
X156865714Y-95242857D01*
X156960952Y-95290476D01*
X157008571Y-95338095D01*
X157056190Y-95433333D01*
X157056190Y-95814285D01*
X157532380Y-94290476D02*
X157532380Y-94861904D01*
X157532380Y-94576190D02*
X156532380Y-94576190D01*
X156675238Y-94671428D01*
X156770476Y-94766666D01*
X156818095Y-94861904D01*
X156532380Y-93957142D02*
X156532380Y-93338095D01*
X156913333Y-93671428D01*
X156913333Y-93528571D01*
X156960952Y-93433333D01*
X157008571Y-93385714D01*
X157103809Y-93338095D01*
X157341904Y-93338095D01*
X157437142Y-93385714D01*
X157484761Y-93433333D01*
X157532380Y-93528571D01*
X157532380Y-93814285D01*
X157484761Y-93909523D01*
X157437142Y-93957142D01*
X142619433Y-79509880D02*
X142286100Y-79033690D01*
X142048004Y-79509880D02*
X142048004Y-78509880D01*
X142428957Y-78509880D01*
X142524195Y-78557500D01*
X142571814Y-78605119D01*
X142619433Y-78700357D01*
X142619433Y-78843214D01*
X142571814Y-78938452D01*
X142524195Y-78986071D01*
X142428957Y-79033690D01*
X142048004Y-79033690D01*
X143524195Y-78509880D02*
X143048004Y-78509880D01*
X143000385Y-78986071D01*
X143048004Y-78938452D01*
X143143242Y-78890833D01*
X143381338Y-78890833D01*
X143476576Y-78938452D01*
X143524195Y-78986071D01*
X143571814Y-79081309D01*
X143571814Y-79319404D01*
X143524195Y-79414642D01*
X143476576Y-79462261D01*
X143381338Y-79509880D01*
X143143242Y-79509880D01*
X143048004Y-79462261D01*
X143000385Y-79414642D01*
D12*
X153770140Y-87419600D02*
X153803473Y-87452933D01*
X153836806Y-87552933D01*
X153836806Y-87619600D01*
X153803473Y-87719600D01*
X153736806Y-87786266D01*
X153670140Y-87819600D01*
X153536806Y-87852933D01*
X153436806Y-87852933D01*
X153303473Y-87819600D01*
X153236806Y-87786266D01*
X153170140Y-87719600D01*
X153136806Y-87619600D01*
X153136806Y-87552933D01*
X153170140Y-87452933D01*
X153203473Y-87419600D01*
X153836806Y-86752933D02*
X153836806Y-87152933D01*
X153836806Y-86952933D02*
X153136806Y-86952933D01*
X153236806Y-87019600D01*
X153303473Y-87086266D01*
X153336806Y-87152933D01*
X153836806Y-86086266D02*
X153836806Y-86486266D01*
X153836806Y-86286266D02*
X153136806Y-86286266D01*
X153236806Y-86352933D01*
X153303473Y-86419600D01*
X153336806Y-86486266D01*
D11*
X146486642Y-97512142D02*
X146439023Y-97559761D01*
X146296166Y-97607380D01*
X146200928Y-97607380D01*
X146058071Y-97559761D01*
X145962833Y-97464523D01*
X145915214Y-97369285D01*
X145867595Y-97178809D01*
X145867595Y-97035952D01*
X145915214Y-96845476D01*
X145962833Y-96750238D01*
X146058071Y-96655000D01*
X146200928Y-96607380D01*
X146296166Y-96607380D01*
X146439023Y-96655000D01*
X146486642Y-96702619D01*
X146867595Y-96702619D02*
X146915214Y-96655000D01*
X147010452Y-96607380D01*
X147248547Y-96607380D01*
X147343785Y-96655000D01*
X147391404Y-96702619D01*
X147439023Y-96797857D01*
X147439023Y-96893095D01*
X147391404Y-97035952D01*
X146819976Y-97607380D01*
X147439023Y-97607380D01*
X147772357Y-96607380D02*
X148391404Y-96607380D01*
X148058071Y-96988333D01*
X148200928Y-96988333D01*
X148296166Y-97035952D01*
X148343785Y-97083571D01*
X148391404Y-97178809D01*
X148391404Y-97416904D01*
X148343785Y-97512142D01*
X148296166Y-97559761D01*
X148200928Y-97607380D01*
X147915214Y-97607380D01*
X147819976Y-97559761D01*
X147772357Y-97512142D01*
X146406666Y-81452380D02*
X146406666Y-82166666D01*
X146359047Y-82309523D01*
X146263809Y-82404761D01*
X146120952Y-82452380D01*
X146025714Y-82452380D01*
X146882857Y-82452380D02*
X146882857Y-81452380D01*
X147263809Y-81452380D01*
X147359047Y-81500000D01*
X147406666Y-81547619D01*
X147454285Y-81642857D01*
X147454285Y-81785714D01*
X147406666Y-81880952D01*
X147359047Y-81928571D01*
X147263809Y-81976190D01*
X146882857Y-81976190D01*
X148359047Y-81452380D02*
X147882857Y-81452380D01*
X147835238Y-81928571D01*
X147882857Y-81880952D01*
X147978095Y-81833333D01*
X148216190Y-81833333D01*
X148311428Y-81880952D01*
X148359047Y-81928571D01*
X148406666Y-82023809D01*
X148406666Y-82261904D01*
X148359047Y-82357142D01*
X148311428Y-82404761D01*
X148216190Y-82452380D01*
X147978095Y-82452380D01*
X147882857Y-82404761D01*
X147835238Y-82357142D01*
X161504380Y-85923333D02*
X162218666Y-85923333D01*
X162361523Y-85970952D01*
X162456761Y-86066190D01*
X162504380Y-86209047D01*
X162504380Y-86304285D01*
X162504380Y-85447142D02*
X161504380Y-85447142D01*
X161504380Y-85066190D01*
X161552000Y-84970952D01*
X161599619Y-84923333D01*
X161694857Y-84875714D01*
X161837714Y-84875714D01*
X161932952Y-84923333D01*
X161980571Y-84970952D01*
X162028190Y-85066190D01*
X162028190Y-85447142D01*
X161504380Y-84542380D02*
X161504380Y-83875714D01*
X162504380Y-84304285D01*
X135953333Y-86447142D02*
X135905714Y-86494761D01*
X135762857Y-86542380D01*
X135667619Y-86542380D01*
X135524761Y-86494761D01*
X135429523Y-86399523D01*
X135381904Y-86304285D01*
X135334285Y-86113809D01*
X135334285Y-85970952D01*
X135381904Y-85780476D01*
X135429523Y-85685238D01*
X135524761Y-85590000D01*
X135667619Y-85542380D01*
X135762857Y-85542380D01*
X135905714Y-85590000D01*
X135953333Y-85637619D01*
X136905714Y-86542380D02*
X136334285Y-86542380D01*
X136620000Y-86542380D02*
X136620000Y-85542380D01*
X136524761Y-85685238D01*
X136429523Y-85780476D01*
X136334285Y-85828095D01*
X127583333Y-66357142D02*
X127535714Y-66404761D01*
X127392857Y-66452380D01*
X127297619Y-66452380D01*
X127154761Y-66404761D01*
X127059523Y-66309523D01*
X127011904Y-66214285D01*
X126964285Y-66023809D01*
X126964285Y-65880952D01*
X127011904Y-65690476D01*
X127059523Y-65595238D01*
X127154761Y-65500000D01*
X127297619Y-65452380D01*
X127392857Y-65452380D01*
X127535714Y-65500000D01*
X127583333Y-65547619D01*
X127964285Y-65547619D02*
X128011904Y-65500000D01*
X128107142Y-65452380D01*
X128345238Y-65452380D01*
X128440476Y-65500000D01*
X128488095Y-65547619D01*
X128535714Y-65642857D01*
X128535714Y-65738095D01*
X128488095Y-65880952D01*
X127916666Y-66452380D01*
X128535714Y-66452380D01*
X144791133Y-78385942D02*
X144743514Y-78433561D01*
X144600657Y-78481180D01*
X144505419Y-78481180D01*
X144362561Y-78433561D01*
X144267323Y-78338323D01*
X144219704Y-78243085D01*
X144172085Y-78052609D01*
X144172085Y-77909752D01*
X144219704Y-77719276D01*
X144267323Y-77624038D01*
X144362561Y-77528800D01*
X144505419Y-77481180D01*
X144600657Y-77481180D01*
X144743514Y-77528800D01*
X144791133Y-77576419D01*
X145648276Y-77481180D02*
X145457800Y-77481180D01*
X145362561Y-77528800D01*
X145314942Y-77576419D01*
X145219704Y-77719276D01*
X145172085Y-77909752D01*
X145172085Y-78290704D01*
X145219704Y-78385942D01*
X145267323Y-78433561D01*
X145362561Y-78481180D01*
X145553038Y-78481180D01*
X145648276Y-78433561D01*
X145695895Y-78385942D01*
X145743514Y-78290704D01*
X145743514Y-78052609D01*
X145695895Y-77957371D01*
X145648276Y-77909752D01*
X145553038Y-77862133D01*
X145362561Y-77862133D01*
X145267323Y-77909752D01*
X145219704Y-77957371D01*
X145172085Y-78052609D01*
X135313333Y-77627142D02*
X135265714Y-77674761D01*
X135122857Y-77722380D01*
X135027619Y-77722380D01*
X134884761Y-77674761D01*
X134789523Y-77579523D01*
X134741904Y-77484285D01*
X134694285Y-77293809D01*
X134694285Y-77150952D01*
X134741904Y-76960476D01*
X134789523Y-76865238D01*
X134884761Y-76770000D01*
X135027619Y-76722380D01*
X135122857Y-76722380D01*
X135265714Y-76770000D01*
X135313333Y-76817619D01*
X135646666Y-76722380D02*
X136313333Y-76722380D01*
X135884761Y-77722380D01*
X145153333Y-85537142D02*
X145105714Y-85584761D01*
X144962857Y-85632380D01*
X144867619Y-85632380D01*
X144724761Y-85584761D01*
X144629523Y-85489523D01*
X144581904Y-85394285D01*
X144534285Y-85203809D01*
X144534285Y-85060952D01*
X144581904Y-84870476D01*
X144629523Y-84775238D01*
X144724761Y-84680000D01*
X144867619Y-84632380D01*
X144962857Y-84632380D01*
X145105714Y-84680000D01*
X145153333Y-84727619D01*
X145724761Y-85060952D02*
X145629523Y-85013333D01*
X145581904Y-84965714D01*
X145534285Y-84870476D01*
X145534285Y-84822857D01*
X145581904Y-84727619D01*
X145629523Y-84680000D01*
X145724761Y-84632380D01*
X145915238Y-84632380D01*
X146010476Y-84680000D01*
X146058095Y-84727619D01*
X146105714Y-84822857D01*
X146105714Y-84870476D01*
X146058095Y-84965714D01*
X146010476Y-85013333D01*
X145915238Y-85060952D01*
X145724761Y-85060952D01*
X145629523Y-85108571D01*
X145581904Y-85156190D01*
X145534285Y-85251428D01*
X145534285Y-85441904D01*
X145581904Y-85537142D01*
X145629523Y-85584761D01*
X145724761Y-85632380D01*
X145915238Y-85632380D01*
X146010476Y-85584761D01*
X146058095Y-85537142D01*
X146105714Y-85441904D01*
X146105714Y-85251428D01*
X146058095Y-85156190D01*
X146010476Y-85108571D01*
X145915238Y-85060952D01*
X146607142Y-90347142D02*
X146559523Y-90394761D01*
X146416666Y-90442380D01*
X146321428Y-90442380D01*
X146178571Y-90394761D01*
X146083333Y-90299523D01*
X146035714Y-90204285D01*
X145988095Y-90013809D01*
X145988095Y-89870952D01*
X146035714Y-89680476D01*
X146083333Y-89585238D01*
X146178571Y-89490000D01*
X146321428Y-89442380D01*
X146416666Y-89442380D01*
X146559523Y-89490000D01*
X146607142Y-89537619D01*
X147559523Y-90442380D02*
X146988095Y-90442380D01*
X147273809Y-90442380D02*
X147273809Y-89442380D01*
X147178571Y-89585238D01*
X147083333Y-89680476D01*
X146988095Y-89728095D01*
X148178571Y-89442380D02*
X148273809Y-89442380D01*
X148369047Y-89490000D01*
X148416666Y-89537619D01*
X148464285Y-89632857D01*
X148511904Y-89823333D01*
X148511904Y-90061428D01*
X148464285Y-90251904D01*
X148416666Y-90347142D01*
X148369047Y-90394761D01*
X148273809Y-90442380D01*
X148178571Y-90442380D01*
X148083333Y-90394761D01*
X148035714Y-90347142D01*
X147988095Y-90251904D01*
X147940476Y-90061428D01*
X147940476Y-89823333D01*
X147988095Y-89632857D01*
X148035714Y-89537619D01*
X148083333Y-89490000D01*
X148178571Y-89442380D01*
X138337142Y-98887142D02*
X138289523Y-98934761D01*
X138146666Y-98982380D01*
X138051428Y-98982380D01*
X137908571Y-98934761D01*
X137813333Y-98839523D01*
X137765714Y-98744285D01*
X137718095Y-98553809D01*
X137718095Y-98410952D01*
X137765714Y-98220476D01*
X137813333Y-98125238D01*
X137908571Y-98030000D01*
X138051428Y-97982380D01*
X138146666Y-97982380D01*
X138289523Y-98030000D01*
X138337142Y-98077619D01*
X139289523Y-98982380D02*
X138718095Y-98982380D01*
X139003809Y-98982380D02*
X139003809Y-97982380D01*
X138908571Y-98125238D01*
X138813333Y-98220476D01*
X138718095Y-98268095D01*
X139670476Y-98077619D02*
X139718095Y-98030000D01*
X139813333Y-97982380D01*
X140051428Y-97982380D01*
X140146666Y-98030000D01*
X140194285Y-98077619D01*
X140241904Y-98172857D01*
X140241904Y-98268095D01*
X140194285Y-98410952D01*
X139622857Y-98982380D01*
X140241904Y-98982380D01*
X147566142Y-66841642D02*
X147518523Y-66889261D01*
X147375666Y-66936880D01*
X147280428Y-66936880D01*
X147137571Y-66889261D01*
X147042333Y-66794023D01*
X146994714Y-66698785D01*
X146947095Y-66508309D01*
X146947095Y-66365452D01*
X146994714Y-66174976D01*
X147042333Y-66079738D01*
X147137571Y-65984500D01*
X147280428Y-65936880D01*
X147375666Y-65936880D01*
X147518523Y-65984500D01*
X147566142Y-66032119D01*
X148518523Y-66936880D02*
X147947095Y-66936880D01*
X148232809Y-66936880D02*
X148232809Y-65936880D01*
X148137571Y-66079738D01*
X148042333Y-66174976D01*
X147947095Y-66222595D01*
X148851857Y-65936880D02*
X149470904Y-65936880D01*
X149137571Y-66317833D01*
X149280428Y-66317833D01*
X149375666Y-66365452D01*
X149423285Y-66413071D01*
X149470904Y-66508309D01*
X149470904Y-66746404D01*
X149423285Y-66841642D01*
X149375666Y-66889261D01*
X149280428Y-66936880D01*
X148994714Y-66936880D01*
X148899476Y-66889261D01*
X148851857Y-66841642D01*
X152037142Y-95237142D02*
X151989523Y-95284761D01*
X151846666Y-95332380D01*
X151751428Y-95332380D01*
X151608571Y-95284761D01*
X151513333Y-95189523D01*
X151465714Y-95094285D01*
X151418095Y-94903809D01*
X151418095Y-94760952D01*
X151465714Y-94570476D01*
X151513333Y-94475238D01*
X151608571Y-94380000D01*
X151751428Y-94332380D01*
X151846666Y-94332380D01*
X151989523Y-94380000D01*
X152037142Y-94427619D01*
X152989523Y-95332380D02*
X152418095Y-95332380D01*
X152703809Y-95332380D02*
X152703809Y-94332380D01*
X152608571Y-94475238D01*
X152513333Y-94570476D01*
X152418095Y-94618095D01*
X153846666Y-94665714D02*
X153846666Y-95332380D01*
X153608571Y-94284761D02*
X153370476Y-94999047D01*
X153989523Y-94999047D01*
X152629680Y-87472940D02*
X152663013Y-87506273D01*
X152696346Y-87606273D01*
X152696346Y-87672940D01*
X152663013Y-87772940D01*
X152596346Y-87839606D01*
X152529680Y-87872940D01*
X152396346Y-87906273D01*
X152296346Y-87906273D01*
X152163013Y-87872940D01*
X152096346Y-87839606D01*
X152029680Y-87772940D01*
X151996346Y-87672940D01*
X151996346Y-87606273D01*
X152029680Y-87506273D01*
X152063013Y-87472940D01*
X152696346Y-86806273D02*
X152696346Y-87206273D01*
X152696346Y-87006273D02*
X151996346Y-87006273D01*
X152096346Y-87072940D01*
X152163013Y-87139606D01*
X152196346Y-87206273D01*
X151996346Y-86172940D02*
X151996346Y-86506273D01*
X152329680Y-86539606D01*
X152296346Y-86506273D01*
X152263013Y-86439606D01*
X152263013Y-86272940D01*
X152296346Y-86206273D01*
X152329680Y-86172940D01*
X152396346Y-86139606D01*
X152563013Y-86139606D01*
X152629680Y-86172940D01*
X152663013Y-86206273D01*
X152696346Y-86272940D01*
X152696346Y-86439606D01*
X152663013Y-86506273D01*
X152629680Y-86539606D01*
X138803142Y-105703642D02*
X138755523Y-105751261D01*
X138612666Y-105798880D01*
X138517428Y-105798880D01*
X138374571Y-105751261D01*
X138279333Y-105656023D01*
X138231714Y-105560785D01*
X138184095Y-105370309D01*
X138184095Y-105227452D01*
X138231714Y-105036976D01*
X138279333Y-104941738D01*
X138374571Y-104846500D01*
X138517428Y-104798880D01*
X138612666Y-104798880D01*
X138755523Y-104846500D01*
X138803142Y-104894119D01*
X139755523Y-105798880D02*
X139184095Y-105798880D01*
X139469809Y-105798880D02*
X139469809Y-104798880D01*
X139374571Y-104941738D01*
X139279333Y-105036976D01*
X139184095Y-105084595D01*
X140612666Y-104798880D02*
X140422190Y-104798880D01*
X140326952Y-104846500D01*
X140279333Y-104894119D01*
X140184095Y-105036976D01*
X140136476Y-105227452D01*
X140136476Y-105608404D01*
X140184095Y-105703642D01*
X140231714Y-105751261D01*
X140326952Y-105798880D01*
X140517428Y-105798880D01*
X140612666Y-105751261D01*
X140660285Y-105703642D01*
X140707904Y-105608404D01*
X140707904Y-105370309D01*
X140660285Y-105275071D01*
X140612666Y-105227452D01*
X140517428Y-105179833D01*
X140326952Y-105179833D01*
X140231714Y-105227452D01*
X140184095Y-105275071D01*
X140136476Y-105370309D01*
X151486642Y-65326642D02*
X151439023Y-65374261D01*
X151296166Y-65421880D01*
X151200928Y-65421880D01*
X151058071Y-65374261D01*
X150962833Y-65279023D01*
X150915214Y-65183785D01*
X150867595Y-64993309D01*
X150867595Y-64850452D01*
X150915214Y-64659976D01*
X150962833Y-64564738D01*
X151058071Y-64469500D01*
X151200928Y-64421880D01*
X151296166Y-64421880D01*
X151439023Y-64469500D01*
X151486642Y-64517119D01*
X152439023Y-65421880D02*
X151867595Y-65421880D01*
X152153309Y-65421880D02*
X152153309Y-64421880D01*
X152058071Y-64564738D01*
X151962833Y-64659976D01*
X151867595Y-64707595D01*
X152772357Y-64421880D02*
X153439023Y-64421880D01*
X153010452Y-65421880D01*
X136717142Y-107972857D02*
X136764761Y-108020476D01*
X136812380Y-108163333D01*
X136812380Y-108258571D01*
X136764761Y-108401428D01*
X136669523Y-108496666D01*
X136574285Y-108544285D01*
X136383809Y-108591904D01*
X136240952Y-108591904D01*
X136050476Y-108544285D01*
X135955238Y-108496666D01*
X135860000Y-108401428D01*
X135812380Y-108258571D01*
X135812380Y-108163333D01*
X135860000Y-108020476D01*
X135907619Y-107972857D01*
X136812380Y-107020476D02*
X136812380Y-107591904D01*
X136812380Y-107306190D02*
X135812380Y-107306190D01*
X135955238Y-107401428D01*
X136050476Y-107496666D01*
X136098095Y-107591904D01*
X136240952Y-106449047D02*
X136193333Y-106544285D01*
X136145714Y-106591904D01*
X136050476Y-106639523D01*
X136002857Y-106639523D01*
X135907619Y-106591904D01*
X135860000Y-106544285D01*
X135812380Y-106449047D01*
X135812380Y-106258571D01*
X135860000Y-106163333D01*
X135907619Y-106115714D01*
X136002857Y-106068095D01*
X136050476Y-106068095D01*
X136145714Y-106115714D01*
X136193333Y-106163333D01*
X136240952Y-106258571D01*
X136240952Y-106449047D01*
X136288571Y-106544285D01*
X136336190Y-106591904D01*
X136431428Y-106639523D01*
X136621904Y-106639523D01*
X136717142Y-106591904D01*
X136764761Y-106544285D01*
X136812380Y-106449047D01*
X136812380Y-106258571D01*
X136764761Y-106163333D01*
X136717142Y-106115714D01*
X136621904Y-106068095D01*
X136431428Y-106068095D01*
X136336190Y-106115714D01*
X136288571Y-106163333D01*
X136240952Y-106258571D01*
X142997142Y-107922857D02*
X143044761Y-107970476D01*
X143092380Y-108113333D01*
X143092380Y-108208571D01*
X143044761Y-108351428D01*
X142949523Y-108446666D01*
X142854285Y-108494285D01*
X142663809Y-108541904D01*
X142520952Y-108541904D01*
X142330476Y-108494285D01*
X142235238Y-108446666D01*
X142140000Y-108351428D01*
X142092380Y-108208571D01*
X142092380Y-108113333D01*
X142140000Y-107970476D01*
X142187619Y-107922857D01*
X143092380Y-106970476D02*
X143092380Y-107541904D01*
X143092380Y-107256190D02*
X142092380Y-107256190D01*
X142235238Y-107351428D01*
X142330476Y-107446666D01*
X142378095Y-107541904D01*
X143092380Y-106494285D02*
X143092380Y-106303809D01*
X143044761Y-106208571D01*
X142997142Y-106160952D01*
X142854285Y-106065714D01*
X142663809Y-106018095D01*
X142282857Y-106018095D01*
X142187619Y-106065714D01*
X142140000Y-106113333D01*
X142092380Y-106208571D01*
X142092380Y-106399047D01*
X142140000Y-106494285D01*
X142187619Y-106541904D01*
X142282857Y-106589523D01*
X142520952Y-106589523D01*
X142616190Y-106541904D01*
X142663809Y-106494285D01*
X142711428Y-106399047D01*
X142711428Y-106208571D01*
X142663809Y-106113333D01*
X142616190Y-106065714D01*
X142520952Y-106018095D01*
X147654642Y-94187142D02*
X147607023Y-94234761D01*
X147464166Y-94282380D01*
X147368928Y-94282380D01*
X147226071Y-94234761D01*
X147130833Y-94139523D01*
X147083214Y-94044285D01*
X147035595Y-93853809D01*
X147035595Y-93710952D01*
X147083214Y-93520476D01*
X147130833Y-93425238D01*
X147226071Y-93330000D01*
X147368928Y-93282380D01*
X147464166Y-93282380D01*
X147607023Y-93330000D01*
X147654642Y-93377619D01*
X148035595Y-93377619D02*
X148083214Y-93330000D01*
X148178452Y-93282380D01*
X148416547Y-93282380D01*
X148511785Y-93330000D01*
X148559404Y-93377619D01*
X148607023Y-93472857D01*
X148607023Y-93568095D01*
X148559404Y-93710952D01*
X147987976Y-94282380D01*
X148607023Y-94282380D01*
X149226071Y-93282380D02*
X149321309Y-93282380D01*
X149416547Y-93330000D01*
X149464166Y-93377619D01*
X149511785Y-93472857D01*
X149559404Y-93663333D01*
X149559404Y-93901428D01*
X149511785Y-94091904D01*
X149464166Y-94187142D01*
X149416547Y-94234761D01*
X149321309Y-94282380D01*
X149226071Y-94282380D01*
X149130833Y-94234761D01*
X149083214Y-94187142D01*
X149035595Y-94091904D01*
X148987976Y-93901428D01*
X148987976Y-93663333D01*
X149035595Y-93472857D01*
X149083214Y-93377619D01*
X149130833Y-93330000D01*
X149226071Y-93282380D01*
X151587142Y-97517142D02*
X151539523Y-97564761D01*
X151396666Y-97612380D01*
X151301428Y-97612380D01*
X151158571Y-97564761D01*
X151063333Y-97469523D01*
X151015714Y-97374285D01*
X150968095Y-97183809D01*
X150968095Y-97040952D01*
X151015714Y-96850476D01*
X151063333Y-96755238D01*
X151158571Y-96660000D01*
X151301428Y-96612380D01*
X151396666Y-96612380D01*
X151539523Y-96660000D01*
X151587142Y-96707619D01*
X151968095Y-96707619D02*
X152015714Y-96660000D01*
X152110952Y-96612380D01*
X152349047Y-96612380D01*
X152444285Y-96660000D01*
X152491904Y-96707619D01*
X152539523Y-96802857D01*
X152539523Y-96898095D01*
X152491904Y-97040952D01*
X151920476Y-97612380D01*
X152539523Y-97612380D01*
X153491904Y-97612380D02*
X152920476Y-97612380D01*
X153206190Y-97612380D02*
X153206190Y-96612380D01*
X153110952Y-96755238D01*
X153015714Y-96850476D01*
X152920476Y-96898095D01*
X159177142Y-106747142D02*
X159129523Y-106794761D01*
X158986666Y-106842380D01*
X158891428Y-106842380D01*
X158748571Y-106794761D01*
X158653333Y-106699523D01*
X158605714Y-106604285D01*
X158558095Y-106413809D01*
X158558095Y-106270952D01*
X158605714Y-106080476D01*
X158653333Y-105985238D01*
X158748571Y-105890000D01*
X158891428Y-105842380D01*
X158986666Y-105842380D01*
X159129523Y-105890000D01*
X159177142Y-105937619D01*
X159558095Y-105937619D02*
X159605714Y-105890000D01*
X159700952Y-105842380D01*
X159939047Y-105842380D01*
X160034285Y-105890000D01*
X160081904Y-105937619D01*
X160129523Y-106032857D01*
X160129523Y-106128095D01*
X160081904Y-106270952D01*
X159510476Y-106842380D01*
X160129523Y-106842380D01*
X160510476Y-105937619D02*
X160558095Y-105890000D01*
X160653333Y-105842380D01*
X160891428Y-105842380D01*
X160986666Y-105890000D01*
X161034285Y-105937619D01*
X161081904Y-106032857D01*
X161081904Y-106128095D01*
X161034285Y-106270952D01*
X160462857Y-106842380D01*
X161081904Y-106842380D01*
X142713333Y-71822380D02*
X142380000Y-71346190D01*
X142141904Y-71822380D02*
X142141904Y-70822380D01*
X142522857Y-70822380D01*
X142618095Y-70870000D01*
X142665714Y-70917619D01*
X142713333Y-71012857D01*
X142713333Y-71155714D01*
X142665714Y-71250952D01*
X142618095Y-71298571D01*
X142522857Y-71346190D01*
X142141904Y-71346190D01*
X143665714Y-71822380D02*
X143094285Y-71822380D01*
X143380000Y-71822380D02*
X143380000Y-70822380D01*
X143284761Y-70965238D01*
X143189523Y-71060476D01*
X143094285Y-71108095D01*
X144573333Y-67162380D02*
X144240000Y-66686190D01*
X144001904Y-67162380D02*
X144001904Y-66162380D01*
X144382857Y-66162380D01*
X144478095Y-66210000D01*
X144525714Y-66257619D01*
X144573333Y-66352857D01*
X144573333Y-66495714D01*
X144525714Y-66590952D01*
X144478095Y-66638571D01*
X144382857Y-66686190D01*
X144001904Y-66686190D01*
X144954285Y-66257619D02*
X145001904Y-66210000D01*
X145097142Y-66162380D01*
X145335238Y-66162380D01*
X145430476Y-66210000D01*
X145478095Y-66257619D01*
X145525714Y-66352857D01*
X145525714Y-66448095D01*
X145478095Y-66590952D01*
X144906666Y-67162380D01*
X145525714Y-67162380D01*
X141816080Y-72759866D02*
X141339890Y-73093200D01*
X141816080Y-73331295D02*
X140816080Y-73331295D01*
X140816080Y-72950342D01*
X140863700Y-72855104D01*
X140911319Y-72807485D01*
X141006557Y-72759866D01*
X141149414Y-72759866D01*
X141244652Y-72807485D01*
X141292271Y-72855104D01*
X141339890Y-72950342D01*
X141339890Y-73331295D01*
X140816080Y-72426533D02*
X140816080Y-71807485D01*
X141197033Y-72140819D01*
X141197033Y-71997961D01*
X141244652Y-71902723D01*
X141292271Y-71855104D01*
X141387509Y-71807485D01*
X141625604Y-71807485D01*
X141720842Y-71855104D01*
X141768461Y-71902723D01*
X141816080Y-71997961D01*
X141816080Y-72283676D01*
X141768461Y-72378914D01*
X141720842Y-72426533D01*
X147508933Y-78328780D02*
X147175600Y-77852590D01*
X146937504Y-78328780D02*
X146937504Y-77328780D01*
X147318457Y-77328780D01*
X147413695Y-77376400D01*
X147461314Y-77424019D01*
X147508933Y-77519257D01*
X147508933Y-77662114D01*
X147461314Y-77757352D01*
X147413695Y-77804971D01*
X147318457Y-77852590D01*
X146937504Y-77852590D01*
X148366076Y-77662114D02*
X148366076Y-78328780D01*
X148127980Y-77281161D02*
X147889885Y-77995447D01*
X148508933Y-77995447D01*
X152725380Y-81129166D02*
X152249190Y-81462500D01*
X152725380Y-81700595D02*
X151725380Y-81700595D01*
X151725380Y-81319642D01*
X151773000Y-81224404D01*
X151820619Y-81176785D01*
X151915857Y-81129166D01*
X152058714Y-81129166D01*
X152153952Y-81176785D01*
X152201571Y-81224404D01*
X152249190Y-81319642D01*
X152249190Y-81700595D01*
X151725380Y-80795833D02*
X151725380Y-80129166D01*
X152725380Y-80557738D01*
X154249380Y-81129166D02*
X153773190Y-81462500D01*
X154249380Y-81700595D02*
X153249380Y-81700595D01*
X153249380Y-81319642D01*
X153297000Y-81224404D01*
X153344619Y-81176785D01*
X153439857Y-81129166D01*
X153582714Y-81129166D01*
X153677952Y-81176785D01*
X153725571Y-81224404D01*
X153773190Y-81319642D01*
X153773190Y-81700595D01*
X153677952Y-80557738D02*
X153630333Y-80652976D01*
X153582714Y-80700595D01*
X153487476Y-80748214D01*
X153439857Y-80748214D01*
X153344619Y-80700595D01*
X153297000Y-80652976D01*
X153249380Y-80557738D01*
X153249380Y-80367261D01*
X153297000Y-80272023D01*
X153344619Y-80224404D01*
X153439857Y-80176785D01*
X153487476Y-80176785D01*
X153582714Y-80224404D01*
X153630333Y-80272023D01*
X153677952Y-80367261D01*
X153677952Y-80557738D01*
X153725571Y-80652976D01*
X153773190Y-80700595D01*
X153868428Y-80748214D01*
X154058904Y-80748214D01*
X154154142Y-80700595D01*
X154201761Y-80652976D01*
X154249380Y-80557738D01*
X154249380Y-80367261D01*
X154201761Y-80272023D01*
X154154142Y-80224404D01*
X154058904Y-80176785D01*
X153868428Y-80176785D01*
X153773190Y-80224404D01*
X153725571Y-80272023D01*
X153677952Y-80367261D01*
X152296833Y-103830380D02*
X151963500Y-103354190D01*
X151725404Y-103830380D02*
X151725404Y-102830380D01*
X152106357Y-102830380D01*
X152201595Y-102878000D01*
X152249214Y-102925619D01*
X152296833Y-103020857D01*
X152296833Y-103163714D01*
X152249214Y-103258952D01*
X152201595Y-103306571D01*
X152106357Y-103354190D01*
X151725404Y-103354190D01*
X152773023Y-103830380D02*
X152963500Y-103830380D01*
X153058738Y-103782761D01*
X153106357Y-103735142D01*
X153201595Y-103592285D01*
X153249214Y-103401809D01*
X153249214Y-103020857D01*
X153201595Y-102925619D01*
X153153976Y-102878000D01*
X153058738Y-102830380D01*
X152868261Y-102830380D01*
X152773023Y-102878000D01*
X152725404Y-102925619D01*
X152677785Y-103020857D01*
X152677785Y-103258952D01*
X152725404Y-103354190D01*
X152773023Y-103401809D01*
X152868261Y-103449428D01*
X153058738Y-103449428D01*
X153153976Y-103401809D01*
X153201595Y-103354190D01*
X153249214Y-103258952D01*
X144708642Y-99067880D02*
X144375309Y-98591690D01*
X144137214Y-99067880D02*
X144137214Y-98067880D01*
X144518166Y-98067880D01*
X144613404Y-98115500D01*
X144661023Y-98163119D01*
X144708642Y-98258357D01*
X144708642Y-98401214D01*
X144661023Y-98496452D01*
X144613404Y-98544071D01*
X144518166Y-98591690D01*
X144137214Y-98591690D01*
X145661023Y-99067880D02*
X145089595Y-99067880D01*
X145375309Y-99067880D02*
X145375309Y-98067880D01*
X145280071Y-98210738D01*
X145184833Y-98305976D01*
X145089595Y-98353595D01*
X146280071Y-98067880D02*
X146375309Y-98067880D01*
X146470547Y-98115500D01*
X146518166Y-98163119D01*
X146565785Y-98258357D01*
X146613404Y-98448833D01*
X146613404Y-98686928D01*
X146565785Y-98877404D01*
X146518166Y-98972642D01*
X146470547Y-99020261D01*
X146375309Y-99067880D01*
X146280071Y-99067880D01*
X146184833Y-99020261D01*
X146137214Y-98972642D01*
X146089595Y-98877404D01*
X146041976Y-98686928D01*
X146041976Y-98448833D01*
X146089595Y-98258357D01*
X146137214Y-98163119D01*
X146184833Y-98115500D01*
X146280071Y-98067880D01*
X140208095Y-85812380D02*
X140208095Y-86621904D01*
X140255714Y-86717142D01*
X140303333Y-86764761D01*
X140398571Y-86812380D01*
X140589047Y-86812380D01*
X140684285Y-86764761D01*
X140731904Y-86717142D01*
X140779523Y-86621904D01*
X140779523Y-85812380D01*
X141779523Y-86812380D02*
X141208095Y-86812380D01*
X141493809Y-86812380D02*
X141493809Y-85812380D01*
X141398571Y-85955238D01*
X141303333Y-86050476D01*
X141208095Y-86098095D01*
X148568095Y-103282380D02*
X148568095Y-104091904D01*
X148615714Y-104187142D01*
X148663333Y-104234761D01*
X148758571Y-104282380D01*
X148949047Y-104282380D01*
X149044285Y-104234761D01*
X149091904Y-104187142D01*
X149139523Y-104091904D01*
X149139523Y-103282380D01*
X149520476Y-103282380D02*
X150139523Y-103282380D01*
X149806190Y-103663333D01*
X149949047Y-103663333D01*
X150044285Y-103710952D01*
X150091904Y-103758571D01*
X150139523Y-103853809D01*
X150139523Y-104091904D01*
X150091904Y-104187142D01*
X150044285Y-104234761D01*
X149949047Y-104282380D01*
X149663333Y-104282380D01*
X149568095Y-104234761D01*
X149520476Y-104187142D01*
X147605166Y-63659880D02*
X147605166Y-64374166D01*
X147557547Y-64517023D01*
X147462309Y-64612261D01*
X147319452Y-64659880D01*
X147224214Y-64659880D01*
X148033738Y-63755119D02*
X148081357Y-63707500D01*
X148176595Y-63659880D01*
X148414690Y-63659880D01*
X148509928Y-63707500D01*
X148557547Y-63755119D01*
X148605166Y-63850357D01*
X148605166Y-63945595D01*
X148557547Y-64088452D01*
X147986119Y-64659880D01*
X148605166Y-64659880D01*
X143518095Y-103782880D02*
X144089523Y-103782880D01*
X143803809Y-104782880D02*
X143803809Y-103782880D01*
X144422857Y-104782880D02*
X144422857Y-103782880D01*
X144803809Y-103782880D01*
X144899047Y-103830500D01*
X144946666Y-103878119D01*
X144994285Y-103973357D01*
X144994285Y-104116214D01*
X144946666Y-104211452D01*
X144899047Y-104259071D01*
X144803809Y-104306690D01*
X144422857Y-104306690D01*
X145327619Y-103782880D02*
X145946666Y-103782880D01*
X145613333Y-104163833D01*
X145756190Y-104163833D01*
X145851428Y-104211452D01*
X145899047Y-104259071D01*
X145946666Y-104354309D01*
X145946666Y-104592404D01*
X145899047Y-104687642D01*
X145851428Y-104735261D01*
X145756190Y-104782880D01*
X145470476Y-104782880D01*
X145375238Y-104735261D01*
X145327619Y-104687642D01*
X129968666Y-74636380D02*
X129968666Y-75350666D01*
X129921047Y-75493523D01*
X129825809Y-75588761D01*
X129682952Y-75636380D01*
X129587714Y-75636380D01*
X130968666Y-75636380D02*
X130397238Y-75636380D01*
X130682952Y-75636380D02*
X130682952Y-74636380D01*
X130587714Y-74779238D01*
X130492476Y-74874476D01*
X130397238Y-74922095D01*
X148488875Y-87140800D02*
X149060303Y-87140800D01*
X148774589Y-88140800D02*
X148774589Y-87140800D01*
X149393637Y-88140800D02*
X149393637Y-87140800D01*
X149774589Y-87140800D01*
X149869827Y-87188420D01*
X149917446Y-87236039D01*
X149965065Y-87331277D01*
X149965065Y-87474134D01*
X149917446Y-87569372D01*
X149869827Y-87616991D01*
X149774589Y-87664610D01*
X149393637Y-87664610D01*
X150917446Y-88140800D02*
X150346018Y-88140800D01*
X150631732Y-88140800D02*
X150631732Y-87140800D01*
X150536494Y-87283658D01*
X150441256Y-87378896D01*
X150346018Y-87426515D01*
X154909995Y-87026500D02*
X155481423Y-87026500D01*
X155195709Y-88026500D02*
X155195709Y-87026500D01*
X155814757Y-88026500D02*
X155814757Y-87026500D01*
X156195709Y-87026500D01*
X156290947Y-87074120D01*
X156338566Y-87121739D01*
X156386185Y-87216977D01*
X156386185Y-87359834D01*
X156338566Y-87455072D01*
X156290947Y-87502691D01*
X156195709Y-87550310D01*
X155814757Y-87550310D01*
X156767138Y-87121739D02*
X156814757Y-87074120D01*
X156909995Y-87026500D01*
X157148090Y-87026500D01*
X157243328Y-87074120D01*
X157290947Y-87121739D01*
X157338566Y-87216977D01*
X157338566Y-87312215D01*
X157290947Y-87455072D01*
X156719519Y-88026500D01*
X157338566Y-88026500D01*
X133566666Y-104672380D02*
X133566666Y-105386666D01*
X133519047Y-105529523D01*
X133423809Y-105624761D01*
X133280952Y-105672380D01*
X133185714Y-105672380D01*
X134042857Y-105672380D02*
X134042857Y-104672380D01*
X134423809Y-104672380D01*
X134519047Y-104720000D01*
X134566666Y-104767619D01*
X134614285Y-104862857D01*
X134614285Y-105005714D01*
X134566666Y-105100952D01*
X134519047Y-105148571D01*
X134423809Y-105196190D01*
X134042857Y-105196190D01*
X135566666Y-105672380D02*
X134995238Y-105672380D01*
X135280952Y-105672380D02*
X135280952Y-104672380D01*
X135185714Y-104815238D01*
X135090476Y-104910476D01*
X134995238Y-104958095D01*
X157636666Y-81272380D02*
X157636666Y-81986666D01*
X157589047Y-82129523D01*
X157493809Y-82224761D01*
X157350952Y-82272380D01*
X157255714Y-82272380D01*
X158112857Y-82272380D02*
X158112857Y-81272380D01*
X158493809Y-81272380D01*
X158589047Y-81320000D01*
X158636666Y-81367619D01*
X158684285Y-81462857D01*
X158684285Y-81605714D01*
X158636666Y-81700952D01*
X158589047Y-81748571D01*
X158493809Y-81796190D01*
X158112857Y-81796190D01*
X159541428Y-81272380D02*
X159350952Y-81272380D01*
X159255714Y-81320000D01*
X159208095Y-81367619D01*
X159112857Y-81510476D01*
X159065238Y-81700952D01*
X159065238Y-82081904D01*
X159112857Y-82177142D01*
X159160476Y-82224761D01*
X159255714Y-82272380D01*
X159446190Y-82272380D01*
X159541428Y-82224761D01*
X159589047Y-82177142D01*
X159636666Y-82081904D01*
X159636666Y-81843809D01*
X159589047Y-81748571D01*
X159541428Y-81700952D01*
X159446190Y-81653333D01*
X159255714Y-81653333D01*
X159160476Y-81700952D01*
X159112857Y-81748571D01*
X159065238Y-81843809D01*
X161504380Y-91257333D02*
X162218666Y-91257333D01*
X162361523Y-91304952D01*
X162456761Y-91400190D01*
X162504380Y-91543047D01*
X162504380Y-91638285D01*
X162504380Y-90781142D02*
X161504380Y-90781142D01*
X161504380Y-90400190D01*
X161552000Y-90304952D01*
X161599619Y-90257333D01*
X161694857Y-90209714D01*
X161837714Y-90209714D01*
X161932952Y-90257333D01*
X161980571Y-90304952D01*
X162028190Y-90400190D01*
X162028190Y-90781142D01*
X161932952Y-89638285D02*
X161885333Y-89733523D01*
X161837714Y-89781142D01*
X161742476Y-89828761D01*
X161694857Y-89828761D01*
X161599619Y-89781142D01*
X161552000Y-89733523D01*
X161504380Y-89638285D01*
X161504380Y-89447809D01*
X161552000Y-89352571D01*
X161599619Y-89304952D01*
X161694857Y-89257333D01*
X161742476Y-89257333D01*
X161837714Y-89304952D01*
X161885333Y-89352571D01*
X161932952Y-89447809D01*
X161932952Y-89638285D01*
X161980571Y-89733523D01*
X162028190Y-89781142D01*
X162123428Y-89828761D01*
X162313904Y-89828761D01*
X162409142Y-89781142D01*
X162456761Y-89733523D01*
X162504380Y-89638285D01*
X162504380Y-89447809D01*
X162456761Y-89352571D01*
X162409142Y-89304952D01*
X162313904Y-89257333D01*
X162123428Y-89257333D01*
X162028190Y-89304952D01*
X161980571Y-89352571D01*
X161932952Y-89447809D01*
X162520380Y-88717333D02*
X163234666Y-88717333D01*
X163377523Y-88764952D01*
X163472761Y-88860190D01*
X163520380Y-89003047D01*
X163520380Y-89098285D01*
X163520380Y-88241142D02*
X162520380Y-88241142D01*
X162520380Y-87860190D01*
X162568000Y-87764952D01*
X162615619Y-87717333D01*
X162710857Y-87669714D01*
X162853714Y-87669714D01*
X162948952Y-87717333D01*
X162996571Y-87764952D01*
X163044190Y-87860190D01*
X163044190Y-88241142D01*
X163520380Y-87193523D02*
X163520380Y-87003047D01*
X163472761Y-86907809D01*
X163425142Y-86860190D01*
X163282285Y-86764952D01*
X163091809Y-86717333D01*
X162710857Y-86717333D01*
X162615619Y-86764952D01*
X162568000Y-86812571D01*
X162520380Y-86907809D01*
X162520380Y-87098285D01*
X162568000Y-87193523D01*
X162615619Y-87241142D01*
X162710857Y-87288761D01*
X162948952Y-87288761D01*
X163044190Y-87241142D01*
X163091809Y-87193523D01*
X163139428Y-87098285D01*
X163139428Y-86907809D01*
X163091809Y-86812571D01*
X163044190Y-86764952D01*
X162948952Y-86717333D01*
X153680476Y-101612380D02*
X153680476Y-102326666D01*
X153632857Y-102469523D01*
X153537619Y-102564761D01*
X153394761Y-102612380D01*
X153299523Y-102612380D01*
X154156666Y-102612380D02*
X154156666Y-101612380D01*
X154537619Y-101612380D01*
X154632857Y-101660000D01*
X154680476Y-101707619D01*
X154728095Y-101802857D01*
X154728095Y-101945714D01*
X154680476Y-102040952D01*
X154632857Y-102088571D01*
X154537619Y-102136190D01*
X154156666Y-102136190D01*
X155680476Y-102612380D02*
X155109047Y-102612380D01*
X155394761Y-102612380D02*
X155394761Y-101612380D01*
X155299523Y-101755238D01*
X155204285Y-101850476D01*
X155109047Y-101898095D01*
X156632857Y-102612380D02*
X156061428Y-102612380D01*
X156347142Y-102612380D02*
X156347142Y-101612380D01*
X156251904Y-101755238D01*
X156156666Y-101850476D01*
X156061428Y-101898095D01*
X130936666Y-99752380D02*
X130936666Y-100466666D01*
X130889047Y-100609523D01*
X130793809Y-100704761D01*
X130650952Y-100752380D01*
X130555714Y-100752380D01*
X131412857Y-100752380D02*
X131412857Y-99752380D01*
X131793809Y-99752380D01*
X131889047Y-99800000D01*
X131936666Y-99847619D01*
X131984285Y-99942857D01*
X131984285Y-100085714D01*
X131936666Y-100180952D01*
X131889047Y-100228571D01*
X131793809Y-100276190D01*
X131412857Y-100276190D01*
X132365238Y-99847619D02*
X132412857Y-99800000D01*
X132508095Y-99752380D01*
X132746190Y-99752380D01*
X132841428Y-99800000D01*
X132889047Y-99847619D01*
X132936666Y-99942857D01*
X132936666Y-100038095D01*
X132889047Y-100180952D01*
X132317619Y-100752380D01*
X132936666Y-100752380D01*
X154424142Y-73858380D02*
X154090809Y-73382190D01*
X153852714Y-73858380D02*
X153852714Y-72858380D01*
X154233666Y-72858380D01*
X154328904Y-72906000D01*
X154376523Y-72953619D01*
X154424142Y-73048857D01*
X154424142Y-73191714D01*
X154376523Y-73286952D01*
X154328904Y-73334571D01*
X154233666Y-73382190D01*
X153852714Y-73382190D01*
X155376523Y-73858380D02*
X154805095Y-73858380D01*
X155090809Y-73858380D02*
X155090809Y-72858380D01*
X154995571Y-73001238D01*
X154900333Y-73096476D01*
X154805095Y-73144095D01*
X156328904Y-73858380D02*
X155757476Y-73858380D01*
X156043190Y-73858380D02*
X156043190Y-72858380D01*
X155947952Y-73001238D01*
X155852714Y-73096476D01*
X155757476Y-73144095D01*
X152925542Y-70911980D02*
X152592209Y-70435790D01*
X152354114Y-70911980D02*
X152354114Y-69911980D01*
X152735066Y-69911980D01*
X152830304Y-69959600D01*
X152877923Y-70007219D01*
X152925542Y-70102457D01*
X152925542Y-70245314D01*
X152877923Y-70340552D01*
X152830304Y-70388171D01*
X152735066Y-70435790D01*
X152354114Y-70435790D01*
X153877923Y-70911980D02*
X153306495Y-70911980D01*
X153592209Y-70911980D02*
X153592209Y-69911980D01*
X153496971Y-70054838D01*
X153401733Y-70150076D01*
X153306495Y-70197695D01*
X154258876Y-70007219D02*
X154306495Y-69959600D01*
X154401733Y-69911980D01*
X154639828Y-69911980D01*
X154735066Y-69959600D01*
X154782685Y-70007219D01*
X154830304Y-70102457D01*
X154830304Y-70197695D01*
X154782685Y-70340552D01*
X154211257Y-70911980D01*
X154830304Y-70911980D01*
M02*
