G04 #@! TF.GenerationSoftware,KiCad,Pcbnew,(5.0.1)-3*
G04 #@! TF.CreationDate,2019-04-14T21:22:41-05:00*
G04 #@! TF.ProjectId,transceiver,7472616E736365697665722E6B696361,rev?*
G04 #@! TF.SameCoordinates,Original*
G04 #@! TF.FileFunction,Paste,Top*
G04 #@! TF.FilePolarity,Positive*
%FSLAX46Y46*%
G04 Gerber Fmt 4.6, Leading zero omitted, Abs format (unit mm)*
G04 Created by KiCad (PCBNEW (5.0.1)-3) date 4/14/2019 21:22:41*
%MOMM*%
%LPD*%
G01*
G04 APERTURE LIST*
%ADD10R,0.600000X0.500000*%
%ADD11R,0.780000X0.780000*%
%ADD12R,0.300000X0.850000*%
%ADD13R,0.850000X0.300000*%
%ADD14R,0.500000X0.600000*%
%ADD15R,0.800000X0.900000*%
%ADD16R,1.500000X5.080000*%
%ADD17R,0.400000X0.600000*%
%ADD18R,0.600000X0.400000*%
%ADD19R,0.700000X1.300000*%
G04 APERTURE END LIST*
D10*
G04 #@! TO.C,C6*
X143670000Y-83450000D03*
X144770000Y-83450000D03*
G04 #@! TD*
D11*
G04 #@! TO.C,U1*
X138400000Y-82500000D03*
X138400000Y-83800000D03*
X139700000Y-82500000D03*
X139700000Y-83800000D03*
D12*
X137800000Y-81200000D03*
X138300000Y-81200000D03*
X138800000Y-81200000D03*
X139300000Y-81200000D03*
X139800000Y-81200000D03*
X140300000Y-81200000D03*
D13*
X141000000Y-81900000D03*
X141000000Y-82400000D03*
X141000000Y-82900000D03*
X141000000Y-83400000D03*
X141000000Y-83900000D03*
X141000000Y-84400000D03*
D12*
X140300000Y-85100000D03*
X139800000Y-85100000D03*
X139300000Y-85100000D03*
X138800000Y-85100000D03*
X138300000Y-85100000D03*
X137800000Y-85100000D03*
D13*
X137100000Y-84400000D03*
X137100000Y-83900000D03*
X137100000Y-83400000D03*
X137100000Y-82900000D03*
X137100000Y-82400000D03*
X137100000Y-81900000D03*
G04 #@! TD*
D10*
G04 #@! TO.C,C1*
X135750000Y-82300000D03*
X134650000Y-82300000D03*
G04 #@! TD*
G04 #@! TO.C,C2*
X134850000Y-79600000D03*
X135950000Y-79600000D03*
G04 #@! TD*
G04 #@! TO.C,C4*
X144770000Y-85430000D03*
X143670000Y-85430000D03*
G04 #@! TD*
G04 #@! TO.C,C5*
X140550000Y-78500000D03*
X139450000Y-78500000D03*
G04 #@! TD*
G04 #@! TO.C,C7*
X139450000Y-76400000D03*
X138350000Y-76400000D03*
G04 #@! TD*
D14*
G04 #@! TO.C,C8*
X137000000Y-74150000D03*
X137000000Y-75250000D03*
G04 #@! TD*
G04 #@! TO.C,C10*
X138300000Y-71850000D03*
X138300000Y-70750000D03*
G04 #@! TD*
D10*
G04 #@! TO.C,C9*
X138350000Y-73000000D03*
X139450000Y-73000000D03*
G04 #@! TD*
G04 #@! TO.C,C3*
X144770000Y-84440000D03*
X143670000Y-84440000D03*
G04 #@! TD*
D15*
G04 #@! TO.C,Y1*
X133550000Y-86325000D03*
X133550000Y-84925000D03*
X134650000Y-84925000D03*
X134650000Y-86325000D03*
G04 #@! TD*
D16*
G04 #@! TO.C,J1*
X142550000Y-66100000D03*
X134050000Y-66100000D03*
X138300000Y-66100000D03*
G04 #@! TD*
D17*
G04 #@! TO.C,L2*
X138050000Y-78475000D03*
X137150000Y-78475000D03*
G04 #@! TD*
D18*
G04 #@! TO.C,L3*
X138300000Y-74250000D03*
X138300000Y-75150000D03*
G04 #@! TD*
D19*
G04 #@! TO.C,L1*
X142660000Y-86990000D03*
X144560000Y-86990000D03*
G04 #@! TD*
M02*
