G04 #@! TF.GenerationSoftware,KiCad,Pcbnew,(5.0.1)-3*
G04 #@! TF.CreationDate,2019-04-14T21:22:41-05:00*
G04 #@! TF.ProjectId,transceiver,7472616E736365697665722E6B696361,rev?*
G04 #@! TF.SameCoordinates,Original*
G04 #@! TF.FileFunction,Legend,Top*
G04 #@! TF.FilePolarity,Positive*
%FSLAX46Y46*%
G04 Gerber Fmt 4.6, Leading zero omitted, Abs format (unit mm)*
G04 Created by KiCad (PCBNEW (5.0.1)-3) date 4/14/2019 21:22:41*
%MOMM*%
%LPD*%
G01*
G04 APERTURE LIST*
%ADD10C,0.150000*%
%ADD11C,0.120000*%
G04 APERTURE END LIST*
D10*
G04 #@! TO.C,J2*
X130100000Y-90800000D02*
X147700000Y-90800000D01*
X147700000Y-90800000D02*
X147700000Y-100600000D01*
X147700000Y-100600000D02*
X130100000Y-100600000D01*
X130100000Y-100600000D02*
X130100000Y-90800000D01*
D11*
G04 #@! TO.C,C6*
X144470000Y-82980000D02*
X143970000Y-82980000D01*
X143970000Y-83920000D02*
X144470000Y-83920000D01*
D10*
G04 #@! TO.C,U1*
X141200000Y-81000000D02*
X140675000Y-81000000D01*
X141200000Y-85300000D02*
X140675000Y-85300000D01*
X136900000Y-85300000D02*
X137425000Y-85300000D01*
X136900000Y-81000000D02*
X137425000Y-81000000D01*
X141200000Y-85300000D02*
X141200000Y-84775000D01*
X136900000Y-85300000D02*
X136900000Y-84775000D01*
X141200000Y-81000000D02*
X141200000Y-81525000D01*
D11*
G04 #@! TO.C,C1*
X134950000Y-82770000D02*
X135450000Y-82770000D01*
X135450000Y-81830000D02*
X134950000Y-81830000D01*
G04 #@! TO.C,C2*
X135650000Y-79130000D02*
X135150000Y-79130000D01*
X135150000Y-80070000D02*
X135650000Y-80070000D01*
G04 #@! TO.C,C4*
X143970000Y-85900000D02*
X144470000Y-85900000D01*
X144470000Y-84960000D02*
X143970000Y-84960000D01*
G04 #@! TO.C,C5*
X139750000Y-78970000D02*
X140250000Y-78970000D01*
X140250000Y-78030000D02*
X139750000Y-78030000D01*
G04 #@! TO.C,C7*
X138650000Y-76870000D02*
X139150000Y-76870000D01*
X139150000Y-75930000D02*
X138650000Y-75930000D01*
G04 #@! TO.C,C8*
X137470000Y-74950000D02*
X137470000Y-74450000D01*
X136530000Y-74450000D02*
X136530000Y-74950000D01*
G04 #@! TO.C,C10*
X137830000Y-71050000D02*
X137830000Y-71550000D01*
X138770000Y-71550000D02*
X138770000Y-71050000D01*
G04 #@! TO.C,C9*
X139150000Y-72530000D02*
X138650000Y-72530000D01*
X138650000Y-73470000D02*
X139150000Y-73470000D01*
G04 #@! TO.C,C3*
X143970000Y-84910000D02*
X144470000Y-84910000D01*
X144470000Y-83970000D02*
X143970000Y-83970000D01*
G04 #@! TO.C,Y1*
X135250000Y-86975000D02*
X135250000Y-84275000D01*
X132950000Y-86975000D02*
X135250000Y-86975000D01*
G04 #@! TO.C,J1*
X138550000Y-69810000D02*
X138300000Y-69310000D01*
X138050000Y-69810000D02*
X138550000Y-69810000D01*
X138300000Y-69310000D02*
X138050000Y-69810000D01*
G04 #@! TO.C,L2*
X137350000Y-79005000D02*
X137850000Y-79005000D01*
X137850000Y-77945000D02*
X137350000Y-77945000D01*
G04 #@! TO.C,L3*
X138830000Y-74950000D02*
X138830000Y-74450000D01*
X137770000Y-74450000D02*
X137770000Y-74950000D01*
G04 #@! TO.C,L1*
X144210000Y-87870000D02*
X143010000Y-87870000D01*
X143010000Y-86110000D02*
X144210000Y-86110000D01*
G04 #@! TO.C,J2*
D10*
X146616666Y-89277380D02*
X146616666Y-89991666D01*
X146569047Y-90134523D01*
X146473809Y-90229761D01*
X146330952Y-90277380D01*
X146235714Y-90277380D01*
X147045238Y-89372619D02*
X147092857Y-89325000D01*
X147188095Y-89277380D01*
X147426190Y-89277380D01*
X147521428Y-89325000D01*
X147569047Y-89372619D01*
X147616666Y-89467857D01*
X147616666Y-89563095D01*
X147569047Y-89705952D01*
X146997619Y-90277380D01*
X147616666Y-90277380D01*
G04 #@! TO.C,C6*
X145983333Y-83257142D02*
X145935714Y-83304761D01*
X145792857Y-83352380D01*
X145697619Y-83352380D01*
X145554761Y-83304761D01*
X145459523Y-83209523D01*
X145411904Y-83114285D01*
X145364285Y-82923809D01*
X145364285Y-82780952D01*
X145411904Y-82590476D01*
X145459523Y-82495238D01*
X145554761Y-82400000D01*
X145697619Y-82352380D01*
X145792857Y-82352380D01*
X145935714Y-82400000D01*
X145983333Y-82447619D01*
X146840476Y-82352380D02*
X146650000Y-82352380D01*
X146554761Y-82400000D01*
X146507142Y-82447619D01*
X146411904Y-82590476D01*
X146364285Y-82780952D01*
X146364285Y-83161904D01*
X146411904Y-83257142D01*
X146459523Y-83304761D01*
X146554761Y-83352380D01*
X146745238Y-83352380D01*
X146840476Y-83304761D01*
X146888095Y-83257142D01*
X146935714Y-83161904D01*
X146935714Y-82923809D01*
X146888095Y-82828571D01*
X146840476Y-82780952D01*
X146745238Y-82733333D01*
X146554761Y-82733333D01*
X146459523Y-82780952D01*
X146411904Y-82828571D01*
X146364285Y-82923809D01*
G04 #@! TO.C,U1*
X133738095Y-80532380D02*
X133738095Y-81341904D01*
X133785714Y-81437142D01*
X133833333Y-81484761D01*
X133928571Y-81532380D01*
X134119047Y-81532380D01*
X134214285Y-81484761D01*
X134261904Y-81437142D01*
X134309523Y-81341904D01*
X134309523Y-80532380D01*
X135309523Y-81532380D02*
X134738095Y-81532380D01*
X135023809Y-81532380D02*
X135023809Y-80532380D01*
X134928571Y-80675238D01*
X134833333Y-80770476D01*
X134738095Y-80818095D01*
G04 #@! TO.C,C1*
X133133333Y-83657142D02*
X133085714Y-83704761D01*
X132942857Y-83752380D01*
X132847619Y-83752380D01*
X132704761Y-83704761D01*
X132609523Y-83609523D01*
X132561904Y-83514285D01*
X132514285Y-83323809D01*
X132514285Y-83180952D01*
X132561904Y-82990476D01*
X132609523Y-82895238D01*
X132704761Y-82800000D01*
X132847619Y-82752380D01*
X132942857Y-82752380D01*
X133085714Y-82800000D01*
X133133333Y-82847619D01*
X134085714Y-83752380D02*
X133514285Y-83752380D01*
X133800000Y-83752380D02*
X133800000Y-82752380D01*
X133704761Y-82895238D01*
X133609523Y-82990476D01*
X133514285Y-83038095D01*
G04 #@! TO.C,C2*
X133033333Y-79957142D02*
X132985714Y-80004761D01*
X132842857Y-80052380D01*
X132747619Y-80052380D01*
X132604761Y-80004761D01*
X132509523Y-79909523D01*
X132461904Y-79814285D01*
X132414285Y-79623809D01*
X132414285Y-79480952D01*
X132461904Y-79290476D01*
X132509523Y-79195238D01*
X132604761Y-79100000D01*
X132747619Y-79052380D01*
X132842857Y-79052380D01*
X132985714Y-79100000D01*
X133033333Y-79147619D01*
X133414285Y-79147619D02*
X133461904Y-79100000D01*
X133557142Y-79052380D01*
X133795238Y-79052380D01*
X133890476Y-79100000D01*
X133938095Y-79147619D01*
X133985714Y-79242857D01*
X133985714Y-79338095D01*
X133938095Y-79480952D01*
X133366666Y-80052380D01*
X133985714Y-80052380D01*
G04 #@! TO.C,C4*
X145983333Y-86057142D02*
X145935714Y-86104761D01*
X145792857Y-86152380D01*
X145697619Y-86152380D01*
X145554761Y-86104761D01*
X145459523Y-86009523D01*
X145411904Y-85914285D01*
X145364285Y-85723809D01*
X145364285Y-85580952D01*
X145411904Y-85390476D01*
X145459523Y-85295238D01*
X145554761Y-85200000D01*
X145697619Y-85152380D01*
X145792857Y-85152380D01*
X145935714Y-85200000D01*
X145983333Y-85247619D01*
X146840476Y-85485714D02*
X146840476Y-86152380D01*
X146602380Y-85104761D02*
X146364285Y-85819047D01*
X146983333Y-85819047D01*
G04 #@! TO.C,C5*
X141933333Y-78857142D02*
X141885714Y-78904761D01*
X141742857Y-78952380D01*
X141647619Y-78952380D01*
X141504761Y-78904761D01*
X141409523Y-78809523D01*
X141361904Y-78714285D01*
X141314285Y-78523809D01*
X141314285Y-78380952D01*
X141361904Y-78190476D01*
X141409523Y-78095238D01*
X141504761Y-78000000D01*
X141647619Y-77952380D01*
X141742857Y-77952380D01*
X141885714Y-78000000D01*
X141933333Y-78047619D01*
X142838095Y-77952380D02*
X142361904Y-77952380D01*
X142314285Y-78428571D01*
X142361904Y-78380952D01*
X142457142Y-78333333D01*
X142695238Y-78333333D01*
X142790476Y-78380952D01*
X142838095Y-78428571D01*
X142885714Y-78523809D01*
X142885714Y-78761904D01*
X142838095Y-78857142D01*
X142790476Y-78904761D01*
X142695238Y-78952380D01*
X142457142Y-78952380D01*
X142361904Y-78904761D01*
X142314285Y-78857142D01*
G04 #@! TO.C,C7*
X140733333Y-77257142D02*
X140685714Y-77304761D01*
X140542857Y-77352380D01*
X140447619Y-77352380D01*
X140304761Y-77304761D01*
X140209523Y-77209523D01*
X140161904Y-77114285D01*
X140114285Y-76923809D01*
X140114285Y-76780952D01*
X140161904Y-76590476D01*
X140209523Y-76495238D01*
X140304761Y-76400000D01*
X140447619Y-76352380D01*
X140542857Y-76352380D01*
X140685714Y-76400000D01*
X140733333Y-76447619D01*
X141066666Y-76352380D02*
X141733333Y-76352380D01*
X141304761Y-77352380D01*
G04 #@! TO.C,C8*
X135333333Y-75157142D02*
X135285714Y-75204761D01*
X135142857Y-75252380D01*
X135047619Y-75252380D01*
X134904761Y-75204761D01*
X134809523Y-75109523D01*
X134761904Y-75014285D01*
X134714285Y-74823809D01*
X134714285Y-74680952D01*
X134761904Y-74490476D01*
X134809523Y-74395238D01*
X134904761Y-74300000D01*
X135047619Y-74252380D01*
X135142857Y-74252380D01*
X135285714Y-74300000D01*
X135333333Y-74347619D01*
X135904761Y-74680952D02*
X135809523Y-74633333D01*
X135761904Y-74585714D01*
X135714285Y-74490476D01*
X135714285Y-74442857D01*
X135761904Y-74347619D01*
X135809523Y-74300000D01*
X135904761Y-74252380D01*
X136095238Y-74252380D01*
X136190476Y-74300000D01*
X136238095Y-74347619D01*
X136285714Y-74442857D01*
X136285714Y-74490476D01*
X136238095Y-74585714D01*
X136190476Y-74633333D01*
X136095238Y-74680952D01*
X135904761Y-74680952D01*
X135809523Y-74728571D01*
X135761904Y-74776190D01*
X135714285Y-74871428D01*
X135714285Y-75061904D01*
X135761904Y-75157142D01*
X135809523Y-75204761D01*
X135904761Y-75252380D01*
X136095238Y-75252380D01*
X136190476Y-75204761D01*
X136238095Y-75157142D01*
X136285714Y-75061904D01*
X136285714Y-74871428D01*
X136238095Y-74776190D01*
X136190476Y-74728571D01*
X136095238Y-74680952D01*
G04 #@! TO.C,C10*
X139657142Y-71657142D02*
X139609523Y-71704761D01*
X139466666Y-71752380D01*
X139371428Y-71752380D01*
X139228571Y-71704761D01*
X139133333Y-71609523D01*
X139085714Y-71514285D01*
X139038095Y-71323809D01*
X139038095Y-71180952D01*
X139085714Y-70990476D01*
X139133333Y-70895238D01*
X139228571Y-70800000D01*
X139371428Y-70752380D01*
X139466666Y-70752380D01*
X139609523Y-70800000D01*
X139657142Y-70847619D01*
X140609523Y-71752380D02*
X140038095Y-71752380D01*
X140323809Y-71752380D02*
X140323809Y-70752380D01*
X140228571Y-70895238D01*
X140133333Y-70990476D01*
X140038095Y-71038095D01*
X141228571Y-70752380D02*
X141323809Y-70752380D01*
X141419047Y-70800000D01*
X141466666Y-70847619D01*
X141514285Y-70942857D01*
X141561904Y-71133333D01*
X141561904Y-71371428D01*
X141514285Y-71561904D01*
X141466666Y-71657142D01*
X141419047Y-71704761D01*
X141323809Y-71752380D01*
X141228571Y-71752380D01*
X141133333Y-71704761D01*
X141085714Y-71657142D01*
X141038095Y-71561904D01*
X140990476Y-71371428D01*
X140990476Y-71133333D01*
X141038095Y-70942857D01*
X141085714Y-70847619D01*
X141133333Y-70800000D01*
X141228571Y-70752380D01*
G04 #@! TO.C,C9*
X136533333Y-73357142D02*
X136485714Y-73404761D01*
X136342857Y-73452380D01*
X136247619Y-73452380D01*
X136104761Y-73404761D01*
X136009523Y-73309523D01*
X135961904Y-73214285D01*
X135914285Y-73023809D01*
X135914285Y-72880952D01*
X135961904Y-72690476D01*
X136009523Y-72595238D01*
X136104761Y-72500000D01*
X136247619Y-72452380D01*
X136342857Y-72452380D01*
X136485714Y-72500000D01*
X136533333Y-72547619D01*
X137009523Y-73452380D02*
X137200000Y-73452380D01*
X137295238Y-73404761D01*
X137342857Y-73357142D01*
X137438095Y-73214285D01*
X137485714Y-73023809D01*
X137485714Y-72642857D01*
X137438095Y-72547619D01*
X137390476Y-72500000D01*
X137295238Y-72452380D01*
X137104761Y-72452380D01*
X137009523Y-72500000D01*
X136961904Y-72547619D01*
X136914285Y-72642857D01*
X136914285Y-72880952D01*
X136961904Y-72976190D01*
X137009523Y-73023809D01*
X137104761Y-73071428D01*
X137295238Y-73071428D01*
X137390476Y-73023809D01*
X137438095Y-72976190D01*
X137485714Y-72880952D01*
G04 #@! TO.C,C3*
X145983333Y-84657142D02*
X145935714Y-84704761D01*
X145792857Y-84752380D01*
X145697619Y-84752380D01*
X145554761Y-84704761D01*
X145459523Y-84609523D01*
X145411904Y-84514285D01*
X145364285Y-84323809D01*
X145364285Y-84180952D01*
X145411904Y-83990476D01*
X145459523Y-83895238D01*
X145554761Y-83800000D01*
X145697619Y-83752380D01*
X145792857Y-83752380D01*
X145935714Y-83800000D01*
X145983333Y-83847619D01*
X146316666Y-83752380D02*
X146935714Y-83752380D01*
X146602380Y-84133333D01*
X146745238Y-84133333D01*
X146840476Y-84180952D01*
X146888095Y-84228571D01*
X146935714Y-84323809D01*
X146935714Y-84561904D01*
X146888095Y-84657142D01*
X146840476Y-84704761D01*
X146745238Y-84752380D01*
X146459523Y-84752380D01*
X146364285Y-84704761D01*
X146316666Y-84657142D01*
G04 #@! TO.C,Y1*
X134423809Y-88001190D02*
X134423809Y-88477380D01*
X134090476Y-87477380D02*
X134423809Y-88001190D01*
X134757142Y-87477380D01*
X135614285Y-88477380D02*
X135042857Y-88477380D01*
X135328571Y-88477380D02*
X135328571Y-87477380D01*
X135233333Y-87620238D01*
X135138095Y-87715476D01*
X135042857Y-87763095D01*
G04 #@! TO.C,J1*
X144486666Y-68002380D02*
X144486666Y-68716666D01*
X144439047Y-68859523D01*
X144343809Y-68954761D01*
X144200952Y-69002380D01*
X144105714Y-69002380D01*
X145486666Y-69002380D02*
X144915238Y-69002380D01*
X145200952Y-69002380D02*
X145200952Y-68002380D01*
X145105714Y-68145238D01*
X145010476Y-68240476D01*
X144915238Y-68288095D01*
G04 #@! TO.C,L2*
X135433333Y-78852380D02*
X134957142Y-78852380D01*
X134957142Y-77852380D01*
X135719047Y-77947619D02*
X135766666Y-77900000D01*
X135861904Y-77852380D01*
X136100000Y-77852380D01*
X136195238Y-77900000D01*
X136242857Y-77947619D01*
X136290476Y-78042857D01*
X136290476Y-78138095D01*
X136242857Y-78280952D01*
X135671428Y-78852380D01*
X136290476Y-78852380D01*
G04 #@! TO.C,L3*
X139733333Y-75052380D02*
X139257142Y-75052380D01*
X139257142Y-74052380D01*
X139971428Y-74052380D02*
X140590476Y-74052380D01*
X140257142Y-74433333D01*
X140400000Y-74433333D01*
X140495238Y-74480952D01*
X140542857Y-74528571D01*
X140590476Y-74623809D01*
X140590476Y-74861904D01*
X140542857Y-74957142D01*
X140495238Y-75004761D01*
X140400000Y-75052380D01*
X140114285Y-75052380D01*
X140019047Y-75004761D01*
X139971428Y-74957142D01*
G04 #@! TO.C,L1*
X144508333Y-89177380D02*
X144032142Y-89177380D01*
X144032142Y-88177380D01*
X145365476Y-89177380D02*
X144794047Y-89177380D01*
X145079761Y-89177380D02*
X145079761Y-88177380D01*
X144984523Y-88320238D01*
X144889285Y-88415476D01*
X144794047Y-88463095D01*
G04 #@! TD*
M02*
